<svg width="147" height="489" viewBox="0 0 147 489" fill="none" xmlns="http://www.w3.org/2000/svg">
<path fill-rule="evenodd" clip-rule="evenodd" d="M145.147 368.916C144.322 363.762 143.026 358.968 141.258 354.534C141.258 354.534 138.163 347.139 134.679 344.949L123.596 344.949L98.8384 345.365L88.2333 345.365L88.2333 356.152L98.8384 356.152L130.3 355.073C134.071 364.182 135.956 374.009 135.956 384.556C135.956 396.061 131.699 406.248 126.868 415.117C122.037 423.986 115.32 430.937 106.719 435.97C106.351 436.182 105.991 436.391 105.638 436.596C97.5978 441.256 92.7544 444.064 74.9832 444.064C65.7516 444.064 54.7097 441.903 47.6397 438.667C40.5696 435.431 34.5012 430.997 29.4344 425.364C24.3675 419.611 20.479 412.96 17.7688 405.409C15.0586 397.739 13.7036 389.529 13.7036 380.781C13.7036 374.548 14.4695 368.376 16.0013 362.264C17.5332 356.032 19.8898 350.159 23.0713 344.646C23.6605 343.807 23.9551 342.849 23.9551 341.77C23.9551 339.972 23.1303 338.474 21.4806 337.276C20.3022 336.677 19.1828 336.377 18.1223 336.377C16.3548 336.377 14.9997 337.276 14.0571 339.073C10.2864 345.306 7.45837 352.077 5.57303 359.388C3.56986 366.579 2.56828 373.889 2.56828 381.32C2.56828 391.747 4.21795 401.394 7.5173 410.263C10.8166 419.132 15.53 426.862 21.6573 433.454C27.7847 440.045 35.0315 445.199 43.3976 448.914L44.0568 449.198C52.0596 452.643 57.6895 455.067 77.8681 455.067C87.8839 455.067 95.8778 452.569 104.244 449.094C112.492 445.498 119.68 440.585 125.808 434.352C131.817 428.001 136.472 420.57 139.771 412.061C142.821 404.195 146.216 394.793 146.216 384.286C146.216 379.132 146.09 373.949 145.147 368.916Z" fill="#FCFCFC"/>
<path d="M11.1407 478.387C11.2585 478.267 11.9655 478.147 13.2617 478.027L11.1408 478.027L11.1407 478.387Z" fill="#FCFCFC"/>
<path d="M13.2617 488.813C12.5547 488.813 11.8477 488.694 11.1407 488.454L11.1603 488.813L13.2617 488.813Z" fill="#FCFCFC"/>
<path fill-rule="evenodd" clip-rule="evenodd" d="M144.286 478.027L133.511 478.027L13.2617 478.027C11.9655 478.147 11.2585 478.267 11.1407 478.387L11.1408 478.027L2.89812 478.027C2.89036 478.988 2.88649 479.947 2.88649 480.904C2.88649 483.54 2.91694 486.177 2.97785 488.813L11.1603 488.813L11.1407 488.454C11.8477 488.694 12.5547 488.813 13.2617 488.813L133.511 488.813L144.213 488.813C144.266 486.024 144.293 483.208 144.293 480.364C144.293 479.584 144.291 478.805 144.286 478.027Z" fill="#FCFCFC"/>
<path d="M72.5323 192.342C102.912 192.342 128.412 219.161 128.412 253.364C128.412 287.566 102.912 314.385 72.5323 314.385C42.1521 314.385 16.6522 287.566 16.6522 253.364C16.6522 219.161 42.1521 192.342 72.5323 192.342Z" stroke="#E8E8E8" stroke-width="13.1951"/>
<path d="M74.3744 63.7779C99.1239 63.7779 120.059 85.6571 120.059 113.765C120.059 141.874 99.1239 163.753 74.3744 163.753C49.6248 163.753 28.6893 141.874 28.6893 113.765C28.6893 85.6571 49.6248 63.7779 74.3744 63.7779Z" stroke="#E8E8E8" stroke-width="13.1951"/>
<ellipse cx="75.2976" cy="18.6938" rx="18.3797" ry="18.6938" fill="#B80000"/>
</svg>
