<svg width="349" height="234" viewBox="0 0 349 234" fill="none" xmlns="http://www.w3.org/2000/svg">
<path d="M184.585 117.392C184.585 121.279 184.07 125.032 183.042 128.653C182.051 132.235 180.641 135.607 178.812 138.77C176.983 141.894 174.773 144.752 172.181 147.344C169.59 149.935 166.732 152.164 163.607 154.031C160.483 155.86 157.11 157.27 153.49 158.261C149.87 159.29 146.117 159.804 142.23 159.804C138.343 159.804 134.59 159.29 130.969 158.261C127.387 157.27 124.015 155.86 120.852 154.031C117.728 152.164 114.87 149.935 112.278 147.344C109.687 144.752 107.458 141.894 105.591 138.77C103.762 135.607 102.333 132.235 101.304 128.653C100.313 125.032 99.8176 121.279 99.8176 117.392C99.8176 113.505 100.313 109.752 101.304 106.132C102.333 102.512 103.762 99.1393 105.591 96.0146C107.458 92.8899 109.687 90.0319 112.278 87.4407C114.87 84.8495 117.728 82.6393 120.852 80.8102C124.015 78.9811 127.387 77.5712 130.969 76.5804C134.59 75.5515 138.343 75.0371 142.23 75.0371C146.117 75.0371 149.87 75.5515 153.49 76.5804C157.11 77.5712 160.483 78.9811 163.607 80.8102C166.732 82.6393 169.59 84.8495 172.181 87.4407C174.773 90.0319 176.983 92.8899 178.812 96.0146C180.641 99.1393 182.051 102.512 183.042 106.132C184.07 109.752 184.585 113.505 184.585 117.392ZM168.294 117.392C168.294 113.81 167.609 110.438 166.237 107.275C164.865 104.074 162.998 101.311 160.635 98.9869C158.311 96.6243 155.548 94.7571 152.347 93.3852C149.184 92.0134 145.812 91.3275 142.23 91.3275C138.61 91.3275 135.218 92.0134 132.055 93.3852C128.893 94.7571 126.13 96.6243 123.767 98.9869C121.405 101.311 119.538 104.074 118.166 107.275C116.794 110.438 116.108 113.81 116.108 117.392C116.108 120.974 116.794 124.347 118.166 127.509C119.538 130.634 121.405 133.378 123.767 135.74C126.13 138.103 128.893 139.97 132.055 141.342C135.218 142.714 138.61 143.4 142.23 143.4C145.812 143.4 149.184 142.714 152.347 141.342C155.548 139.97 158.311 138.103 160.635 135.74C162.998 133.378 164.865 130.634 166.237 127.509C167.609 124.347 168.294 120.974 168.294 117.392ZM253.926 158.032H236.378L204.769 104.074V158.032H188.364V76.066H205.912L237.521 130.082V76.066H253.926V158.032ZM310.406 125.28V108.875C310.406 106.627 309.968 104.512 309.092 102.531C308.253 100.511 307.091 98.7582 305.605 97.2721C304.119 95.7859 302.366 94.6237 300.346 93.7854C298.365 92.9089 296.25 92.4707 294.002 92.4707C291.753 92.4707 289.619 92.9089 287.6 93.7854C285.618 94.6237 283.884 95.7859 282.398 97.2721C280.912 98.7582 279.731 100.511 278.854 102.531C278.016 104.512 277.597 106.627 277.597 108.875V125.28H310.406ZM326.811 158.032H310.406V141.628H277.597V158.032H261.249V108.875C261.249 104.341 262.107 100.092 263.821 96.1289C265.536 92.1277 267.861 88.641 270.795 85.6687C273.767 82.6964 277.235 80.3529 281.198 78.6381C285.199 76.9234 289.467 76.066 294.002 76.066C298.536 76.066 302.785 76.9234 306.748 78.6381C310.749 80.3529 314.236 82.6964 317.208 85.6687C320.181 88.641 322.524 92.1277 324.239 96.1289C325.954 100.092 326.811 104.341 326.811 108.875V158.032Z" fill="white"/>
<path d="M15.7188 158.986H0V76.0886H15.7188V158.986Z" fill="white"/>
<path d="M140.85 65.935C147.791 65.9414 154.653 67.4486 160.987 70.3576C167.322 73.2669 172.988 77.513 177.615 82.8188L192.102 69.4244C182.829 58.8486 170.664 51.3847 157.193 48.0074C143.722 44.6297 129.571 45.4953 116.587 50.4909C103.603 55.4865 92.3883 64.38 84.407 76.0111C76.4253 87.6424 72.0476 101.471 71.8446 115.692C71.6416 129.914 75.623 143.868 83.269 155.734C90.9154 167.599 101.871 176.826 114.707 182.209C127.543 187.592 141.663 188.882 155.225 185.911C168.786 182.939 181.16 175.844 190.73 165.551L176.573 151.762C170.933 157.811 163.92 162.332 156.16 164.922C148.401 167.511 140.136 168.089 132.106 166.602C124.075 165.115 116.53 161.611 110.143 156.402C103.755 151.193 98.7263 144.442 95.5049 136.753C92.2833 129.063 90.9695 120.675 91.6812 112.337C92.3933 104 95.1081 95.9733 99.5833 88.9753C104.059 81.9769 110.155 76.2251 117.328 72.234C124.5 68.2427 132.525 66.1366 140.686 66.1037L140.85 65.935Z" fill="#B80000"/>
<path d="M75.3743 49.2004L61.0819 35.3724C49.9167 46.0378 41.0571 58.7151 35.0113 72.6768C28.9659 86.6381 25.8535 101.609 25.8535 116.728C25.8535 131.847 28.9659 146.818 35.0113 160.779C41.0571 174.741 49.9167 187.418 61.0819 198.084L75.3743 184.256C66.0655 175.426 58.6749 164.91 53.6304 153.319C48.5864 141.727 45.989 129.29 45.989 116.728C45.989 104.166 48.5864 91.7289 53.6304 80.1375C58.6749 68.5457 66.0655 58.0303 75.3743 49.2004Z" fill="#B80000"/>
<path d="M209.788 22.9045C190.301 7.99487 166.753 -0.0303338 142.581 8.61625e-05V20.0769C162.526 20.0578 181.96 26.6533 198.072 38.9093L209.788 22.9045Z" fill="#B80000"/>
<path d="M142.581 213.649V233.455C165.192 233.481 187.319 226.888 206.251 214.486L195.13 198.083C179.485 208.267 161.23 213.674 142.581 213.649Z" fill="#B80000"/>
<path d="M142.581 189.187C127.264 189.177 112.32 184.596 99.7724 176.065C87.2242 167.533 77.678 155.463 72.4253 141.488L54.151 149.731C61.0326 167.086 73.1652 182.009 88.9507 192.534C104.736 203.06 123.434 208.694 142.581 208.695V189.187Z" fill="#B80000"/>
<path d="M70.1286 113.191C71.315 94.5837 79.4626 77.129 92.9178 64.3686C106.373 51.6085 124.128 44.498 142.581 44.4799V24.7611C118.95 24.7604 96.2236 33.9401 79.1047 50.4005C61.9857 66.8612 51.7847 89.3423 50.6139 113.191H70.1286Z" fill="#B80000"/>
</svg>
