<svg width="479" height="291" viewBox="0 0 479 291" fill="none" xmlns="http://www.w3.org/2000/svg">
<g filter="url(#filter0_d_460_8802)">
<path fill-rule="evenodd" clip-rule="evenodd" d="M123.685 10.5479C110.295 13.7538 97.713 19.0397 86.3 26.0449C95.761 38.0055 94.9683 55.4225 83.922 66.4688C72.8757 77.5152 55.4584 78.3077 43.4978 68.8465C36.4924 80.2596 31.2063 92.8416 28.0002 106.232C43.1544 107.993 54.917 120.872 54.917 136.499C54.917 152.126 43.1543 165.005 28 166.766C31.2058 180.156 36.4912 192.737 43.4958 204.149C55.4563 194.689 72.8726 195.482 83.9185 206.528C94.9648 217.574 95.7574 234.991 86.2964 246.952C97.7103 253.958 110.293 259.245 123.685 262.451C125.446 247.297 138.325 235.534 153.952 235.534C169.579 235.534 182.458 247.297 184.219 262.451C197.61 259.245 210.192 253.959 221.605 246.953C212.143 234.993 212.935 217.574 223.982 206.527C235.028 195.481 252.446 194.688 264.407 204.15C268.696 197.163 272.34 189.736 275.258 181.955H219.777C205.342 202.82 181.242 216.489 153.949 216.489C109.772 216.489 73.959 180.676 73.959 136.499C73.959 92.3219 109.772 56.5092 153.949 56.5092C179.312 56.5092 201.918 68.3137 216.573 86.7284H273.55C270.958 80.5071 267.895 74.5312 264.405 68.8455C252.444 78.3089 235.025 77.517 223.978 66.4698C212.931 55.4229 212.139 38.0045 221.602 26.0439C210.189 19.0394 197.608 13.7539 184.219 10.5481C182.458 25.7017 169.578 37.4637 153.952 37.4637C138.326 37.4637 125.447 25.7016 123.685 10.5479Z" fill="white"/>
</g>
<g filter="url(#filter1_d_460_8802)">
<path d="M191.194 152.879C191.194 155.789 190.689 158.512 189.679 161.049C188.699 163.552 187.352 165.751 185.638 167.646C183.954 169.506 181.965 170.978 179.669 172.06C177.373 173.143 174.939 173.684 172.368 173.684H127.781V163.282H172.368C173.653 163.282 174.863 163.011 175.995 162.47C177.158 161.928 178.169 161.184 179.026 160.237C179.883 159.29 180.556 158.19 181.046 156.939C181.536 155.653 181.781 154.3 181.781 152.879C181.781 151.458 181.536 150.122 181.046 148.871C180.556 147.619 179.883 146.519 179.026 145.572C178.169 144.625 177.158 143.881 175.995 143.339C174.863 142.798 173.653 142.528 172.368 142.528H127.781V132.125H162.954C164.24 132.125 165.449 131.855 166.582 131.313C167.745 130.772 168.755 130.028 169.613 129.081C170.47 128.133 171.143 127.034 171.633 125.782C172.123 124.497 172.368 123.144 172.368 121.723C172.368 120.302 172.123 118.966 171.633 117.714C171.143 116.429 170.47 115.312 169.613 114.365C168.755 113.418 167.745 112.674 166.582 112.132C165.449 111.591 164.24 111.32 162.954 111.32H123.097V173.684H113.684V100.918H162.954C165.526 100.918 167.959 101.476 170.255 102.593C172.551 103.675 174.541 105.164 176.225 107.058C177.939 108.919 179.286 111.117 180.266 113.655C181.276 116.192 181.781 118.881 181.781 121.723C181.781 123.922 181.49 126.002 180.908 127.964C180.327 129.892 179.546 131.685 178.567 133.343C180.403 134.053 182.087 135.051 183.618 136.337C185.179 137.622 186.511 139.111 187.613 140.802C188.745 142.494 189.618 144.371 190.23 146.435C190.873 148.465 191.194 150.613 191.194 152.879Z" fill="white"/>
<path d="M274.9 173.684H232.517C227.956 173.684 223.808 172.737 220.073 170.842C216.339 168.948 213.14 166.36 210.476 163.079C207.844 159.797 205.808 155.941 204.369 151.509C202.93 147.078 202.211 142.342 202.211 137.301C202.211 132.294 202.93 127.592 204.369 123.194C205.808 118.763 207.844 114.906 210.476 111.625C213.14 108.31 216.339 105.705 220.073 103.81C223.808 101.882 227.956 100.918 232.517 100.918H274.9V111.32H232.517C229.272 111.32 226.349 112.014 223.747 113.401C221.175 114.754 218.987 116.615 217.181 118.983C215.405 121.317 214.027 124.057 213.048 127.203C212.099 130.349 211.624 133.715 211.624 137.301C211.624 140.887 212.099 144.27 213.048 147.45C214.027 150.596 215.405 153.353 217.181 155.721C218.987 158.055 221.175 159.899 223.747 161.252C226.349 162.605 229.272 163.282 232.517 163.282H274.9V173.684Z" fill="white"/>
<path d="M364.943 173.684H355.53V152.879H302.999V142.528H355.53V111.32H321.78C318.565 111.32 315.535 112.014 312.688 113.401C309.841 114.754 307.361 116.615 305.249 118.983C303.137 121.317 301.453 124.057 300.198 127.203C298.973 130.349 298.361 133.715 298.361 137.301V173.684H288.948V137.301C288.948 133.952 289.33 130.738 290.096 127.66C290.892 124.547 291.994 121.655 293.402 118.983C294.841 116.276 296.555 113.824 298.545 111.625C300.565 109.392 302.785 107.481 305.203 105.891C307.652 104.301 310.269 103.083 313.055 102.237C315.841 101.358 318.749 100.918 321.78 100.918H364.943V173.684Z" fill="white"/>
<path d="M460.496 173.684H447.777L428.032 152.879H399.195V142.629H436.986C438.945 142.629 440.782 142.223 442.496 141.411C444.21 140.565 445.695 139.432 446.95 138.011C448.236 136.591 449.246 134.933 449.981 133.039C450.715 131.11 451.083 129.064 451.083 126.899C451.083 124.734 450.715 122.704 449.981 120.809C449.246 118.915 448.236 117.274 446.95 115.887C445.695 114.466 444.21 113.35 442.496 112.538C440.782 111.726 438.945 111.32 436.986 111.32H393.914V173.684H384.501V100.918H436.986C440.231 100.918 443.277 101.611 446.124 102.998C448.971 104.352 451.45 106.212 453.562 108.58C455.705 110.914 457.389 113.655 458.613 116.801C459.869 119.947 460.496 123.313 460.496 126.899C460.496 130.146 459.991 133.225 458.981 136.134C457.971 139.009 456.578 141.597 454.802 143.898C453.027 146.164 450.93 148.059 448.511 149.581C446.124 151.069 443.537 152.067 440.751 152.575L460.496 173.684Z" fill="white"/>
</g>
<defs>
<filter id="filter0_d_460_8802" x="0" y="0.547852" width="285.258" height="289.903" filterUnits="userSpaceOnUse" color-interpolation-filters="sRGB">
<feFlood flood-opacity="0" result="BackgroundImageFix"/>
<feColorMatrix in="SourceAlpha" type="matrix" values="0 0 0 0 0 0 0 0 0 0 0 0 0 0 0 0 0 0 127 0" result="hardAlpha"/>
<feOffset dx="-9" dy="9"/>
<feGaussianBlur stdDeviation="9.5"/>
<feComposite in2="hardAlpha" operator="out"/>
<feColorMatrix type="matrix" values="0 0 0 0 0 0 0 0 0 0 0 0 0 0 0 0 0 0 1 0"/>
<feBlend mode="normal" in2="BackgroundImageFix" result="effect1_dropShadow_460_8802"/>
<feBlend mode="normal" in="SourceGraphic" in2="effect1_dropShadow_460_8802" result="shape"/>
</filter>
<filter id="filter1_d_460_8802" x="107.684" y="92.918" width="370.812" height="96.7661" filterUnits="userSpaceOnUse" color-interpolation-filters="sRGB">
<feFlood flood-opacity="0" result="BackgroundImageFix"/>
<feColorMatrix in="SourceAlpha" type="matrix" values="0 0 0 0 0 0 0 0 0 0 0 0 0 0 0 0 0 0 127 0" result="hardAlpha"/>
<feOffset dx="6" dy="4"/>
<feGaussianBlur stdDeviation="6"/>
<feComposite in2="hardAlpha" operator="out"/>
<feColorMatrix type="matrix" values="0 0 0 0 0 0 0 0 0 0 0 0 0 0 0 0 0 0 1 0"/>
<feBlend mode="normal" in2="BackgroundImageFix" result="effect1_dropShadow_460_8802"/>
<feBlend mode="normal" in="SourceGraphic" in2="effect1_dropShadow_460_8802" result="shape"/>
</filter>
</defs>
</svg>
