<svg width="427" height="174" viewBox="0 0 427 174" fill="none" xmlns="http://www.w3.org/2000/svg">
<path d="M426.799 80.2725L204.23 49.4839L223.872 81.0489L301.679 119.261H379.811L426.799 80.2725Z" fill="#D9D9D9"/>
<path d="M227.887 49.4839L198.696 44.0581L170.59 52.0884L183.395 0L227.887 49.4839Z" fill="#D9D9D9"/>
<path d="M22.5652 99.2826L25.2814 85.1194L204.23 49.4839L223.872 81.0489L162.017 119.261L22.5652 99.2826Z" fill="#D9D9D9"/>
<path d="M53.1745 106.49L20.2669 103.42L0 126.713L53.1745 106.49Z" fill="#D9D9D9"/>
<path d="M53.1745 74.8771L25.2814 80.2725L20.2669 34.4001L53.1745 74.8771Z" fill="#D9D9D9"/>
<path d="M223.872 81.0489L305.457 126.713L237.561 122.575L158.583 126.713L223.872 81.0489Z" fill="#B80000"/>
<path d="M229.54 110.238L247.128 130.454L215.215 133.151L229.54 110.238Z" fill="#282B2D"/>
<path d="M48.0986 174C44.9723 174 42.0522 173.553 39.3381 172.66C36.6585 171.767 34.288 170.496 32.2267 168.847C30.1998 167.199 28.6194 165.241 27.4857 162.974C26.352 160.672 25.7852 158.113 25.7852 155.296C25.7852 152.548 26.3692 150.041 27.5373 147.774C28.7053 145.507 30.2856 143.549 32.2782 141.9C34.3052 140.217 36.6585 138.929 39.3381 138.035C42.0522 137.142 44.938 136.696 47.9956 136.696C50.2973 136.696 52.496 136.953 54.5917 137.469C56.7217 137.984 58.6799 138.671 60.4664 139.53C62.2872 140.354 63.7988 141.264 65.0012 142.261L60.0541 149.216C59.0922 148.426 57.9928 147.688 56.756 147.001C55.5536 146.314 54.1794 145.764 52.6335 145.352C51.1218 144.94 49.3869 144.734 47.4287 144.734C45.8827 144.734 44.3711 144.974 42.8939 145.455C41.4166 145.902 40.0596 146.571 38.8228 147.465C37.586 148.358 36.6069 149.474 35.8855 150.814C35.164 152.153 34.8033 153.682 34.8033 155.399C34.8033 157.151 35.1812 158.697 35.937 160.037C36.7272 161.376 37.775 162.493 39.0805 163.386C40.386 164.279 41.8632 164.949 43.5122 165.395C45.1613 165.842 46.8618 166.065 48.6139 166.065C50.6065 166.065 52.3586 165.807 53.8702 165.292C55.3818 164.743 56.7217 164.09 57.8897 163.334C59.0578 162.579 60.0885 161.892 60.9817 161.273L65.1043 168.075C64.0736 168.899 62.6822 169.775 60.9301 170.702C59.2124 171.63 57.2542 172.42 55.0555 173.072C52.8911 173.691 50.5722 174 48.0986 174Z" fill="#D9D9D9"/>
<path d="M63.6147 173.485L81.5479 137.417H89.793L107.623 173.485H98.5535L87.8863 152.102C87.5084 151.346 87.1649 150.642 86.8557 149.989C86.5465 149.302 86.2545 148.65 85.9796 148.031C85.7048 147.379 85.4471 146.743 85.2067 146.125C85.0005 145.472 84.7772 144.802 84.5367 144.115L86.5465 144.064C86.306 144.785 86.0484 145.489 85.7735 146.176C85.533 146.829 85.2582 147.482 84.949 148.134C84.6742 148.787 84.3821 149.457 84.073 150.144C83.7638 150.797 83.4374 151.466 83.0938 152.153L72.4782 173.485H63.6147ZM71.9113 167.096L74.7971 160.5H96.3892L97.5744 167.096H71.9113Z" fill="#D9D9D9"/>
<path d="M110.371 173.485V165.756H120.059V145.146H110.371V137.417H138.559V145.146H128.82V165.756H138.559V173.485H110.371Z" fill="#D9D9D9"/>
<path d="M139.521 173.485V165.756H149.209V145.146H139.521V137.417H167.709V145.146H157.97V165.756H167.709V173.485H139.521Z" fill="#D9D9D9"/>
<path d="M175.886 173.485V137.417H184.646V173.485H175.886ZM179.338 160.191V152.875H204.795V160.191H179.338ZM180.06 145.146V137.417H206.908V145.146H180.06Z" fill="#D9D9D9"/>
<path d="M232.227 174C228.826 174 225.734 173.536 222.951 172.609C220.168 171.647 217.764 170.324 215.737 168.641C213.71 166.924 212.129 164.932 210.996 162.664C209.896 160.397 209.347 157.941 209.347 155.296C209.347 152.651 209.896 150.195 210.996 147.928C212.129 145.661 213.71 143.686 215.737 142.003C217.798 140.285 220.203 138.963 222.951 138.035C225.734 137.074 228.809 136.593 232.175 136.593C235.508 136.593 238.565 137.074 241.348 138.035C244.131 138.963 246.536 140.285 248.563 142.003C250.59 143.686 252.153 145.661 253.252 147.928C254.386 150.195 254.953 152.651 254.953 155.296C254.953 157.941 254.386 160.397 253.252 162.664C252.153 164.932 250.59 166.924 248.563 168.641C246.536 170.324 244.131 171.647 241.348 172.609C238.565 173.536 235.525 174 232.227 174ZM232.175 165.756C234.202 165.756 236.057 165.498 237.741 164.983C239.459 164.433 240.936 163.695 242.173 162.767C243.409 161.806 244.354 160.689 245.007 159.418C245.694 158.147 246.038 156.773 246.038 155.296C246.038 153.819 245.694 152.445 245.007 151.174C244.354 149.903 243.409 148.804 242.173 147.877C240.936 146.915 239.459 146.176 237.741 145.661C236.057 145.112 234.202 144.837 232.175 144.837C230.148 144.837 228.276 145.112 226.558 145.661C224.875 146.176 223.398 146.915 222.127 147.877C220.89 148.804 219.945 149.903 219.292 151.174C218.64 152.445 218.313 153.819 218.313 155.296C218.313 156.773 218.64 158.147 219.292 159.418C219.945 160.689 220.89 161.806 222.127 162.767C223.398 163.695 224.875 164.433 226.558 164.983C228.276 165.498 230.148 165.756 232.175 165.756Z" fill="#D9D9D9"/>
<path d="M259.634 173.485V137.417H280.556C283.442 137.417 285.898 137.898 287.925 138.86C289.952 139.787 291.498 141.127 292.563 142.879C293.628 144.596 294.16 146.623 294.16 148.959C294.16 151.26 293.559 153.338 292.357 155.193C291.154 157.014 289.522 158.457 287.461 159.521C285.4 160.552 283.098 161.067 280.556 161.067H267.982V173.485H259.634ZM286.121 173.485L273.857 157.203L283.029 155.915L296.325 173.485H286.121ZM267.982 154.369H279.525C280.556 154.369 281.5 154.163 282.359 153.751C283.253 153.338 283.957 152.772 284.472 152.05C285.022 151.295 285.297 150.419 285.297 149.423C285.297 148.426 285.022 147.585 284.472 146.898C283.957 146.211 283.253 145.678 282.359 145.3C281.466 144.923 280.487 144.734 279.422 144.734H267.982V154.369Z" fill="#D9D9D9"/>
<path d="M301.508 173.485V137.417H309.856L335.983 163.18L334.797 162.922C334.591 161.617 334.42 160.363 334.282 159.161C334.179 157.958 334.093 156.808 334.024 155.709C333.956 154.609 333.904 153.545 333.87 152.514C333.836 151.484 333.801 150.453 333.767 149.423C333.767 148.392 333.767 147.362 333.767 146.331V137.417H342.27V173.485H333.818L306.867 146.898L308.98 147.258C309.083 147.774 309.169 148.358 309.237 149.01C309.341 149.663 309.426 150.401 309.495 151.226C309.598 152.05 309.684 152.978 309.753 154.008C309.856 155.004 309.925 156.121 309.959 157.357C309.993 158.594 310.01 159.951 310.01 161.428V173.485H301.508Z" fill="#D9D9D9"/>
<path d="M350.451 173.485V165.756H360.139V145.146H350.451V137.417H378.639V145.146H368.9V165.756H378.639V173.485H350.451Z" fill="#D9D9D9"/>
<path d="M381.353 173.485L399.286 137.417H407.532L425.362 173.485H416.292L405.625 152.102C405.247 151.346 404.903 150.642 404.594 149.989C404.285 149.302 403.993 148.65 403.718 148.031C403.443 147.379 403.186 146.743 402.945 146.125C402.739 145.472 402.516 144.802 402.275 144.115L404.285 144.064C404.045 144.785 403.787 145.489 403.512 146.176C403.272 146.829 402.997 147.482 402.688 148.134C402.413 148.787 402.121 149.457 401.811 150.144C401.502 150.797 401.176 151.466 400.832 152.153L390.217 173.485H381.353ZM389.65 167.096L392.536 160.5H414.128L415.313 167.096H389.65Z" fill="#D9D9D9"/>
</svg>
