<svg width="441" height="153" viewBox="0 0 441 153" fill="none" xmlns="http://www.w3.org/2000/svg">
<path d="M6.4996 123V39.4337H25.6889C29.4717 39.4337 32.7387 39.8464 35.4899 40.6718C38.3098 41.4971 40.6483 42.7695 42.5053 44.489C44.3623 46.2085 45.7379 48.4094 46.632 51.0918C47.5262 53.7054 47.9732 56.8004 47.9732 60.3769C47.9732 63.8158 47.5262 66.8077 46.632 69.3525C45.8067 71.8286 44.4999 73.7888 42.7116 75.2331C40.9922 76.6775 38.7569 77.606 36.0057 78.0187C39.3759 78.7752 42.0926 80.082 44.156 81.9391C46.2194 83.7273 47.7325 86.0658 48.6954 88.9545C49.7271 91.7744 50.2429 95.179 50.2429 99.1681C50.2429 102.745 49.8302 106.012 49.0049 108.969C48.1796 111.927 46.8728 114.437 45.0845 116.5C43.365 118.564 41.1297 120.18 38.3786 121.349C35.6962 122.45 32.498 123 28.7839 123H6.4996ZM18.1576 114.643H25.9984C31.2256 114.643 34.6989 113.44 36.4184 111.032C38.2066 108.556 39.1008 104.602 39.1008 99.1681C39.1008 95.6604 38.6193 92.7373 37.6564 90.3988C36.7623 87.9916 35.2835 86.2033 33.2202 85.0341C31.2256 83.7961 28.5088 83.1771 25.0699 83.1771H18.1576V114.643ZM18.1576 74.3046H25.0699C28.3713 74.3046 30.9505 73.8575 32.8075 72.9634C34.6645 72.0005 35.9713 70.4874 36.7279 68.424C37.4844 66.3607 37.8627 63.6783 37.8627 60.3769C37.8627 56.5253 37.2781 53.7397 36.1089 52.0203C34.9396 50.3008 33.117 49.2347 30.641 48.8221C28.1649 48.3406 24.9323 48.0999 20.9431 48.0999H18.1576V74.3046ZM68.2369 123.825C65.8984 123.825 64.0758 123.206 62.769 121.968C61.4622 120.73 60.5337 119.183 59.9834 117.326C59.502 115.469 59.2613 113.577 59.2613 111.651V63.3688H70.3003V108.35C70.3003 110.482 70.6098 112.167 71.2288 113.405C71.8478 114.575 73.1202 115.159 75.046 115.159C76.284 115.159 77.5564 114.815 78.8632 114.128C80.2388 113.371 81.5456 112.477 82.7836 111.445V63.3688H93.8226V123H82.7836V117.119C80.8578 118.976 78.6569 120.558 76.1809 121.865C73.7736 123.172 71.1256 123.825 68.2369 123.825ZM118.937 123.825C113.916 123.825 110.168 122.003 107.691 118.357C105.215 114.643 103.977 108.385 103.977 99.5808V88.026C103.977 83.4866 104.356 79.2911 105.112 75.4395C105.869 71.5191 107.279 68.3896 109.342 66.0511C111.474 63.7127 114.569 62.5434 118.627 62.5434C120.622 62.5434 122.445 62.9905 124.095 63.8846C125.746 64.7787 127.225 65.8792 128.531 67.186V39.4337H139.57V123H128.531V119.183C127.225 120.558 125.78 121.693 124.198 122.587C122.685 123.413 120.931 123.825 118.937 123.825ZM121.722 115.159C122.754 115.159 123.855 114.987 125.024 114.643C126.193 114.231 127.362 113.646 128.531 112.89V73.7888C127.569 73.101 126.502 72.5164 125.333 72.0349C124.164 71.4847 122.892 71.2096 121.516 71.2096C118.971 71.2096 117.252 72.4476 116.358 74.9236C115.463 77.3309 115.016 80.254 115.016 83.6929V100.509C115.016 103.26 115.154 105.771 115.429 108.041C115.773 110.242 116.426 111.995 117.389 113.302C118.352 114.54 119.797 115.159 121.722 115.159ZM293.134 123V39.4337H304.792V78.844L323.981 39.4337H334.814L318.307 76.2648L337.496 123H326.148L310.157 83.7961L304.792 93.4939V123H293.134ZM343.595 123V63.3688H354.634V71.8286C356.835 68.1833 359.036 65.7416 361.237 64.5036C363.438 63.2656 365.639 62.6466 367.84 62.6466C368.115 62.6466 368.356 62.6466 368.562 62.6466C368.837 62.6466 369.181 62.681 369.594 62.7498V74.9236C368.768 74.5797 367.805 74.3046 366.705 74.0983C365.673 73.8232 364.607 73.6856 363.507 73.6856C361.787 73.6856 360.205 74.0983 358.761 74.9236C357.385 75.6802 356.01 77.1933 354.634 79.463V123H343.595ZM377.155 123V63.3688H388.194V123H377.155ZM377.155 54.4963V42.9415H388.194V54.4963H377.155ZM400.008 142.602V63.3688H411.047V68.1145C412.354 66.6014 413.936 65.2946 415.793 64.1941C417.65 63.0937 419.851 62.5434 422.396 62.5434C425.491 62.5434 427.932 63.3688 429.721 65.0195C431.578 66.6014 432.953 68.6304 433.847 71.1064C434.741 73.5136 435.326 75.9897 435.601 78.5345C435.876 81.0105 436.014 83.1427 436.014 84.9309V99.3745C436.014 103.57 435.601 107.559 434.776 111.342C433.95 115.056 432.437 118.082 430.236 120.421C428.104 122.69 425.078 123.825 421.158 123.825C419.025 123.825 417.134 123.31 415.483 122.278C413.833 121.177 412.354 119.939 411.047 118.564V142.602H400.008ZM418.991 115.159C420.917 115.159 422.292 114.471 423.118 113.096C423.943 111.651 424.459 109.726 424.665 107.318C424.872 104.911 424.975 102.263 424.975 99.3745V84.9309C424.975 82.4549 424.837 80.1852 424.562 78.1218C424.287 75.9897 423.702 74.3046 422.808 73.0666C421.914 71.8286 420.504 71.2096 418.578 71.2096C417.134 71.2096 415.758 71.5191 414.452 72.1381C413.145 72.7571 412.01 73.4793 411.047 74.3046V112.477C412.079 113.233 413.248 113.887 414.555 114.437C415.862 114.918 417.34 115.159 418.991 115.159Z" fill="white"/>
<path fill-rule="evenodd" clip-rule="evenodd" d="M189.902 14.9015C189.689 15.1139 189.683 19.7684 189.888 25.2448L190.261 35.2019H175.377H165.637C161.304 35.2019 157.791 38.7148 157.791 43.0481V114.914C157.791 119.247 161.304 122.76 165.637 122.76H169.559C177.385 122.774 177.663 122.725 176.975 121.441C175.566 118.809 176.131 115.864 178.463 113.687C183.389 109.088 190.411 106.535 219.033 98.9426C232.786 95.2942 237.123 93.9179 239.584 92.4215L241.798 91.0755V83.8256C241.798 79.8379 241.905 76.575 242.035 76.575C243.13 76.575 250.918 79.6945 253.286 81.0819C258.622 84.2076 258.985 86.9058 254.61 90.9369C251.222 94.0585 242.454 98.6551 229.381 104.165C217.537 109.157 197.709 117.628 195.405 118.682C193.594 119.508 193.507 119.773 193.512 124.437C193.518 132.38 194.121 133.585 202.818 143.011C207.147 147.703 211.641 151.935 212.804 152.417C215.681 153.608 220.156 152.905 222.267 150.931C226 147.439 237.044 133.797 238.012 131.481C238.577 130.13 239.039 127.619 239.039 125.9V122.775H255.097L265.217 122.562C269.485 122.472 272.898 118.986 272.898 114.717V42.9758C272.898 38.6486 269.395 35.1383 265.068 35.1297L259.13 35.1178L246.685 35.1454L241.654 37.494C238.888 38.7862 232.744 41.4803 228.001 43.4813C209.681 51.2098 195.154 57.4585 193.364 58.3798C191.608 59.2838 191.483 59.663 191.294 64.683L191.093 70.0242L188.507 69.8725C184.997 69.667 179.149 66.7971 176.343 63.9031C174.641 62.1482 173.944 60.7187 173.69 58.4598C173.389 55.7926 173.6 55.1196 175.32 53.2571C179.443 48.7923 191.361 44.3522 217.308 37.6133C230.827 34.1028 239.554 31.3783 240.924 30.2413C241.531 29.7379 241.798 27.2273 241.798 22.0163V14.5154H216.043C201.878 14.5154 190.114 14.6891 189.902 14.9015ZM231.81 72.0832C259.753 59.4927 263.592 54.6645 250.479 48.6088C247.779 47.3621 244.732 46.132 243.708 45.8748L241.846 45.408L241.65 52.8523L241.453 60.2967L239.384 61.4986C237.471 62.6102 230.094 64.7898 205.925 71.3847C184.448 77.2452 176.253 81.6101 176.266 87.1837C176.276 92.085 183.478 97.9793 190.403 98.7537L192.473 98.9854L192.677 93.9241L192.88 88.8634L199.448 85.7956C205.416 83.0085 216.548 78.2954 224.567 75.1607C226.283 74.4905 229.543 73.1051 231.81 72.0832Z" fill="#B80000"/>
</svg>
