<svg width="447" height="198" viewBox="0 0 447 198" fill="none" xmlns="http://www.w3.org/2000/svg">
<path d="M407.034 94.4595C403.919 88.0847 392.788 85.132 385.064 85.132C378.282 85.132 376.048 88.7272 375.354 94.2611C356.249 92.6892 330.318 88.5846 293.221 80.1097C327.632 91.1729 354.465 96.8872 375.067 99.2105C375.063 99.6122 375.061 100.02 375.061 100.432C375.061 102.791 375.72 105.197 376.857 107.459C361.34 106.99 342.888 105.106 322.431 100.51C346.799 109.38 366.552 113.255 382.137 114.171C385.418 117.012 389.47 118.871 393.467 118.871C397.338 118.871 400.53 116.698 402.917 113.516C415.934 111.707 423.831 107.412 427.269 103.648C427.269 103.648 419.702 105.51 406.412 106.672C407.152 104.46 407.621 102.161 407.795 99.9732C423.629 98.4371 431.586 93.7889 434.071 89.5252C432.219 89.9143 430.387 90.3291 428.528 90.75C422.261 92.1688 415.689 93.6565 407.034 94.4595Z" fill="white"/>
<path fill-rule="evenodd" clip-rule="evenodd" d="M163.169 192.543C160.821 195.051 158.113 196.677 155.102 197.223C141.098 199.766 125.847 177.991 121.039 148.589C116.816 122.767 122.051 99.6499 132.874 92.6802C124.303 102.144 120.523 122.798 124.276 145.487C129.137 174.879 144.802 196.554 159.263 193.899C160.626 193.648 161.93 193.191 163.169 192.543Z" fill="white"/>
<path d="M314.762 174.538C314.762 176.323 316.249 177.682 317.916 177.364C335.871 173.947 424.613 157.131 430.887 157.415C437.869 157.73 443.691 163.692 443.691 163.692C446.302 147.564 448.702 141.697 445.023 122.455C444.445 132.673 443.27 143.756 441.101 147.999C437.731 154.59 426.304 153.799 417.105 155.266L316.192 172.763C315.367 172.906 314.762 173.657 314.762 174.538Z" fill="white"/>
<path fill-rule="evenodd" clip-rule="evenodd" d="M236.912 97.5495C230.506 97.5495 225.313 92.788 225.313 86.9144C225.313 84.9576 225.889 83.1242 226.895 81.5492C226.173 82.9358 225.762 84.528 225.762 86.2212C225.762 91.5945 229.897 95.9504 234.997 95.9504C240.097 95.9504 244.231 91.5945 244.231 86.2212C244.231 80.8479 240.097 76.4919 234.997 76.4919C234.839 76.4919 234.683 76.4961 234.527 76.5043C235.297 76.3568 236.094 76.2793 236.912 76.2793C243.317 76.2793 248.511 81.0408 248.511 86.9144C248.511 92.788 243.317 97.5495 236.912 97.5495ZM234.527 76.5043C231.233 76.6781 228.393 78.671 226.895 81.5492C228.522 78.9998 231.275 77.1274 234.527 76.5043ZM229.721 86.2212C229.721 89.291 232.083 91.7796 234.997 91.7796C237.91 91.7796 240.272 89.291 240.272 86.2212C240.272 83.1513 237.91 80.6628 234.997 80.6628C232.083 80.6628 229.721 83.1513 229.721 86.2212Z" fill="white"/>
<path fill-rule="evenodd" clip-rule="evenodd" d="M207.314 90.9484C200.908 90.9484 195.715 86.1869 195.715 80.3133C195.715 74.4397 200.908 69.6782 207.314 69.6782C213.72 69.6782 218.913 74.4397 218.913 80.3133C218.913 86.1869 213.72 90.9484 207.314 90.9484ZM204.523 86.8123C200.105 86.8123 196.522 83.3016 196.522 78.9709C196.522 74.6402 200.105 71.1295 204.523 71.1295C208.942 71.1295 212.524 74.6402 212.524 78.9709C212.524 83.3016 208.942 86.8123 204.523 86.8123Z" fill="white"/>
<path d="M446.876 98.9407C445.275 112.672 440.073 131.503 440.073 131.503C436.205 135.295 422.067 142.88 396.458 142.88H270.665C255.072 142.88 239.316 144.059 224.599 149.485C205.307 156.598 195.9 165.729 242.003 170.342C288.132 174.957 298.119 176.282 304.977 176.768L184.783 173.088C187.02 164.506 196.548 149.331 218.052 140.769L218.114 140.744C226.088 137.577 235.705 135.319 247.205 134.641C289.78 132.13 418.066 147.98 360.445 137.78C302.825 127.58 306.826 100.51 261.21 80.1097C252.19 76.6902 239.472 73.7248 227.107 71.3551C225.363 71.0208 223.626 70.6984 221.908 70.3882C210.301 68.2935 193.111 65.902 193.111 65.902H169.718V80.1097C199.715 94.2611 210.956 103.834 280.302 111.485C226.917 112.019 191.456 94.4885 166.154 84.7713C165.853 84.6556 165.553 84.541 165.254 84.4275C172.503 92.6948 178.498 104.595 181.684 118.487C185.28 134.163 184.575 149.221 180.544 160.52C182.181 150.889 181.869 139.661 179.216 128.097C172.449 98.5927 153.013 78.0712 135.805 82.2605C127.74 84.2239 121.595 91.2667 118.04 101.234C119.152 94.6927 121.163 88.8883 123.951 84.2157C7.77879 69.5741 5.4132 58.6661 5.4132 58.6661C62.5702 76.2473 83.9864 55.202 108.719 60.4907C107.222 58.4951 106.269 58.8493 105.498 58.6661C104.727 58.483 87.7255 55.4828 82.526 53.909C78.897 52.8105 79.6372 45.3846 83.4503 44.0072C85.9022 43.1211 89.4665 42.1538 92.0203 41.1221C98.7963 38.3838 107.531 39.1788 110.794 40.0563C114.587 41.0763 116.024 44.9176 114.798 52.0485L119.72 60.5232C124.366 59.4209 130.737 56.7957 128.763 52.6478C125.962 46.7631 109.556 5.57018 94.3505 9.101C79.1451 12.6318 40.0142 18.9088 0 44.4092C28.4901 18.3596 95.951 1.51627 110.756 0.862411C128.763 -0.837613 183.022 -1.17762 256.008 11.0626C223.196 9.101 141.967 -1.09917 129.963 3.21628C117.959 7.53173 122.36 15.7703 155.172 44.4092C181.101 54.4524 260.143 54.0862 296.422 52.6478C271.407 55.0174 207.825 56.0428 157.514 50.2417C192.96 56.1642 252.571 68.0783 266.412 75.4019C286.579 86.0728 313.495 107.833 324.432 117.379C375.65 146.254 415.131 136.21 428.469 127.58C446.076 99.7254 440.073 88.3483 440.073 84.4251C427.589 70.3019 365.5 54.5571 339.758 50.2417C435.792 58.7156 448.476 85.2098 446.876 98.9407Z" fill="white"/>
</svg>
