<svg width="244" height="244" viewBox="0 0 244 244" fill="none" xmlns="http://www.w3.org/2000/svg">
<g clip-path="url(#clip0_421_3095)">
<circle cx="121.819" cy="121.819" r="121.819" fill="#B80000"/>
<circle cx="121.942" cy="121.941" r="94.0446" stroke="white" stroke-width="9.50192"/>
<path d="M23.8281 150.577H228.498V174.276H23.8281V150.577Z" fill="white"/>
<path d="M17.4194 78.5061L70.2891 60.1787L126.507 66.2878L191.987 87.4827L233.893 93.7165V150.569H127.277H12.9121L17.4194 78.5061Z" fill="#B80000"/>
<path d="M49.7754 122.125H43.2655L40.0105 134.273L36.7895 122.125H27.5332L34.6873 145.878H40.553L44.1809 134.408L47.6732 145.878H53.5389L60.7269 122.125H56.2514L52.9964 134.273L49.7754 122.125Z" fill="white"/>
<path d="M83.8231 135.935C85.9591 135.019 86.9763 132.915 86.9763 129.285C86.9763 124.263 85.0098 122.125 80.7377 122.125H63.1745V145.878H71.99V136.478H74.3295L78.9067 145.878H88.9428L83.8231 135.935ZM76.0926 126.434C77.6522 126.434 78.1608 126.977 78.1608 128.572V130.031C78.1608 131.626 77.6522 132.169 76.0926 132.169H71.99V126.434H76.0926Z" fill="white"/>
<path d="M106.282 146.183C113.944 146.183 115.436 143.503 115.436 134.001C115.436 124.5 113.944 121.819 106.282 121.819H99.2632C91.6344 121.819 90.1086 124.5 90.1086 134.001C90.1086 143.503 91.6344 146.183 99.2632 146.183H106.282ZM101.196 141.874C99.5344 141.874 98.9241 141.229 98.9241 139.431V128.572C98.9241 126.774 99.5344 126.129 101.196 126.129H104.383C106.01 126.129 106.621 126.774 106.621 128.572V139.431C106.621 141.229 106.01 141.874 104.383 141.874H101.196Z" fill="white"/>
<path d="M138.323 141.568H129.372C127.744 141.568 127.134 140.924 127.134 139.125V128.877C127.134 127.079 127.744 126.434 129.372 126.434H138.323V122.125H127.473C119.844 122.125 118.318 124.805 118.318 133.967C118.318 143.197 119.844 145.878 127.473 145.878H138.323V141.568Z" fill="white"/>
<path d="M141.416 122.125V145.878H161.149V141.568H150.231V122.125H141.416Z" fill="white"/>
<path d="M178.025 122.125H172.159L162.395 145.878H166.972L168.532 141.942H176.737L178.296 145.878H187.79L178.025 122.125ZM175.008 137.632H170.261L172.634 131.694L175.008 137.632Z" fill="white"/>
<path d="M207.351 122.125H200.841L197.586 134.273L194.365 122.125H185.109L192.263 145.878H198.129L201.756 134.408L205.249 145.878H211.114L218.302 122.125H213.827L210.572 134.273L207.351 122.125Z" fill="white"/>
<path d="M46.8984 155.807H43.7372L38.4746 168.598H40.9415L41.782 166.478H46.2041L47.0446 168.598H52.161L46.8984 155.807ZM45.2721 164.158H42.7139L43.993 160.96L45.2721 164.158Z" fill="#B80000"/>
<path d="M61.2882 168.762C64.9428 168.762 66.2219 167.483 66.2219 163.865V155.807H61.4709V165.126C61.4709 166.058 61.1603 166.442 60.3746 166.442H58.9127C58.127 166.442 57.8164 166.058 57.8164 165.126V155.807H53.0654V163.865C53.0654 167.483 54.3445 168.762 57.9991 168.762H61.2882Z" fill="#B80000"/>
<path d="M67.9188 158.127H71.7562V168.598H76.5071V158.127H80.3444V155.807H67.9188V158.127Z" fill="#B80000"/>
<path d="M90.3981 168.762C94.5278 168.762 95.3318 167.319 95.3318 162.202C95.3318 157.086 94.5278 155.642 90.3981 155.642H86.6156C82.5042 155.642 81.6819 157.086 81.6819 162.202C81.6819 167.319 82.5042 168.762 86.6156 168.762H90.3981ZM87.6572 166.442C86.7618 166.442 86.4329 166.094 86.4329 165.126V159.279C86.4329 158.31 86.7618 157.963 87.6572 157.963H89.3748C90.2519 157.963 90.5808 158.31 90.5808 159.279V165.126C90.5808 166.094 90.2519 166.442 89.3748 166.442H87.6572Z" fill="#B80000"/>
<path d="M97.6891 168.598H102.44V163.536H107.319C109.585 163.536 110.681 162.422 110.681 159.662C110.681 156.921 109.585 155.807 107.319 155.807H97.6891V168.598ZM105.93 160.064C105.93 160.923 105.656 161.216 104.816 161.216H102.44V158.127H104.816C105.656 158.127 105.93 158.42 105.93 159.279V160.064Z" fill="#B80000"/>
<path d="M120.93 168.762C125.059 168.762 125.863 167.319 125.863 162.202C125.863 157.086 125.059 155.642 120.93 155.642H117.147C113.036 155.642 112.213 157.086 112.213 162.202C112.213 167.319 113.036 168.762 117.147 168.762H120.93ZM118.189 166.442C117.293 166.442 116.964 166.094 116.964 165.126V159.279C116.964 158.31 117.293 157.963 118.189 157.963H119.906C120.783 157.963 121.112 158.31 121.112 159.279V165.126C121.112 166.094 120.783 166.442 119.906 166.442H118.189Z" fill="#B80000"/>
<path d="M128.221 155.807V168.598H136.443C140.555 168.598 141.377 167.154 141.377 162.184C141.377 157.25 140.555 155.807 136.443 155.807H128.221ZM136.626 164.962C136.626 165.93 136.297 166.277 135.402 166.277H132.972V158.127H135.402C136.297 158.127 136.626 158.475 136.626 159.443V164.962Z" fill="#B80000"/>
<path d="M148.817 155.807H143.7V168.598H146.076V162.038L148.963 168.598H152.124L155.011 162.038V168.598H159.762V155.807H154.92L151.868 163.427L148.817 155.807Z" fill="#B80000"/>
<path d="M170.831 168.762C174.961 168.762 175.765 167.319 175.765 162.202C175.765 157.086 174.961 155.642 170.831 155.642H167.049C162.937 155.642 162.115 157.086 162.115 162.202C162.115 167.319 162.937 168.762 167.049 168.762H170.831ZM168.09 166.442C167.195 166.442 166.866 166.094 166.866 165.126V159.279C166.866 158.31 167.195 157.963 168.09 157.963H169.808C170.685 157.963 171.014 158.31 171.014 159.279V165.126C171.014 166.094 170.685 166.442 169.808 166.442H168.09Z" fill="#B80000"/>
<path d="M183.641 166.277C182.745 166.277 182.416 165.93 182.416 164.962V159.443C182.416 158.475 182.745 158.127 183.641 158.127H189.707V155.807H182.599C178.488 155.807 177.665 157.25 177.665 162.184C177.665 167.154 178.488 168.598 182.599 168.598H190.767V161.599H186.016V166.277H183.641Z" fill="#B80000"/>
<path d="M200.395 155.807H197.233L191.971 168.598H194.438L195.278 166.478H199.7L200.541 168.598H205.657L200.395 155.807ZM198.768 164.158H196.21L197.489 160.96L198.768 164.158Z" fill="#B80000"/>
<path d="M122.185 229.751C182.179 229.751 230.726 180.89 230.726 120.723C230.726 60.5559 182.179 11.6944 122.185 11.6944C62.192 11.6944 13.6441 60.5559 13.6441 120.723C13.6441 180.89 62.192 229.751 122.185 229.751Z" stroke="#B80000" stroke-width="20.4657"/>
<rect x="32.4043" y="174.202" width="193.206" height="5.11642" fill="#B80000"/>
<path fill-rule="evenodd" clip-rule="evenodd" d="M25.1669 107.099C41.0611 94.0866 63.9845 102.229 71.2087 114.034C71.1157 113.833 70.9709 113.511 70.7974 113.126C70.2484 111.906 69.4122 110.048 69.0251 109.364C68.8993 109.141 68.7447 108.904 68.5869 108.665L68.5552 108.616C68.3599 108.32 68.0861 108.022 67.8291 107.743C67.2557 107.119 66.7656 106.586 67.4147 106.358C82.0557 112.528 112.899 113.622 138.416 107C163.179 100.574 197.634 99.6859 202.61 100.933C207.218 102.088 210.362 106.017 210.9 106.69L210.901 106.691C210.944 106.744 210.97 106.777 210.979 106.786C211.103 106.91 213.207 109.793 208.457 108.03C203.706 106.266 187.216 104.042 171.701 112.538C188.843 106.029 202.961 108.433 206.738 109.844C210.514 111.256 212.812 111.567 216.911 111.696C217.601 111.718 218.262 111.728 218.897 111.738C222.029 111.788 224.487 111.827 226.33 113.147C227.793 114.194 227.573 117.688 227.398 120.467C227.36 121.07 227.324 121.64 227.308 122.143C227.285 122.834 227.266 123.427 227.279 123.852C228.654 121.57 229.023 116.585 229.036 114.379C229.038 113.148 228.962 110.392 226.254 110.068C223.191 109.701 220.607 109.202 218.542 108.462L218.541 108.462L218.535 108.46L218.527 108.457L218.524 108.456C218.313 108.38 218.101 108.305 217.888 108.229C216.685 107.803 215.594 106.754 214.149 105.365L214.149 105.365C212.813 104.082 211.176 102.509 208.871 100.868C214.823 100.176 221.485 103.791 226.178 107.593C226.17 107.546 226.163 107.497 226.155 107.445C226.014 106.496 225.721 104.532 220.304 100.645C214.591 96.5429 189.516 96.7529 177.692 97.3706C157.205 98.2119 114.258 99.9551 106.365 100.197C102.008 94.1355 101.679 80.3909 101.613 77.6269L101.613 77.6232C101.61 77.4982 101.607 77.3959 101.605 77.3179C102.275 77.29 103.248 77.224 104.461 77.1417C110.222 76.751 121.386 75.994 131.037 77.2092C139.922 78.3279 154.833 84.6289 164.973 90.9771C164.217 90.8277 163.524 90.653 162.825 90.4766C160.944 90.0025 159.014 89.5159 155.678 89.4734C153.029 89.4397 155.253 95.0526 157.069 95.8914C158.231 96.1852 161.906 96.01 170.001 95.624C172.33 95.5129 175.025 95.3844 178.131 95.2446C173.403 90.2981 146.922 77.8249 129.937 73.7642C111.811 69.4308 67.9902 75.0423 45.6335 77.9052L45.2396 77.9557C45.2396 77.9557 46.5911 79.4219 47.2937 80.0792C30.1204 88.6584 25.0919 95.4887 24.8894 98.0621C25.686 96.5525 28.8479 93.026 33.7318 92.0614C35.1316 91.8911 35.6764 92.6383 34.7334 93.3037C29.3582 97.0962 26.4924 100.613 25.4914 102.247C25.2981 102.563 25.1519 102.802 25.0395 102.949C24.4838 103.679 24.4434 104.453 24.4926 104.748L25.1669 107.099ZM109.257 104.182C112.325 104.724 120.012 105.379 126.222 103.661C121.931 103.261 120.037 102.91 118.916 102.703C118.428 102.613 118.086 102.549 117.757 102.521C116.67 102.427 109.199 102.274 109.257 104.182ZM97.9401 100.456C87.789 100.206 57.3041 95.1781 46.0885 90.3376C59.67 79.0172 83.0891 77.8631 94.1766 77.3167C95.3358 77.2595 96.3602 77.2091 97.2245 77.1543C96.1664 81.5602 97.2607 94.5247 97.9401 100.456Z" fill="white"/>
</g>
<defs>
<clipPath id="clip0_421_3095">
<rect width="243.639" height="243.639" fill="white"/>
</clipPath>
</defs>
</svg>
