<svg width="419" height="200" viewBox="0 0 419 200" fill="none" xmlns="http://www.w3.org/2000/svg">
<path d="M8.82587 199.96C7.41373 199.96 6.08396 199.657 4.83657 199.051C3.58919 198.445 2.53008 197.602 1.65926 196.522C0.81198 195.442 0.258892 194.218 0 192.848L2.61246 191.623C2.98903 193.283 3.77747 194.586 4.97779 195.535C6.17811 196.483 7.4608 196.957 8.82587 196.957C10.2851 196.957 11.5207 196.456 12.5327 195.456C13.5448 194.428 14.0508 193.098 14.0508 191.465C14.0508 190.333 13.7566 189.397 13.1682 188.66C12.5798 187.922 11.5442 187.159 10.0615 186.368C8.17864 185.341 6.74296 184.511 5.75447 183.879C4.7895 183.221 3.97752 182.417 3.31853 181.469C2.68306 180.495 2.36533 179.336 2.36533 177.992C2.36533 176.702 2.6713 175.556 3.28322 174.555C3.91868 173.528 4.7542 172.738 5.78977 172.185C6.84887 171.605 7.97858 171.315 9.1789 171.315C10.1909 171.315 11.1324 171.552 12.0032 172.026C12.8975 172.474 13.6036 173.08 14.1214 173.844C14.6627 174.608 14.9334 175.424 14.9334 176.293C14.9334 176.425 14.9098 176.649 14.8628 176.965L12.1091 176.768C12.2032 176.346 12.0973 175.951 11.7914 175.582C11.5089 175.187 11.1088 174.884 10.591 174.674C10.0733 174.437 9.57901 174.318 9.10829 174.318C8.07273 174.318 7.1666 174.674 6.38993 175.385C5.63679 176.07 5.26022 176.899 5.26022 177.874C5.26022 178.664 5.50734 179.375 6.00159 180.007C6.51937 180.64 7.11953 181.193 7.80207 181.667C8.4846 182.115 9.36719 182.641 10.4498 183.247L11.7208 183.958C13.5801 185.091 14.9098 186.224 15.71 187.356C16.5338 188.489 16.9457 189.872 16.9457 191.505C16.9457 193.138 16.5691 194.6 15.816 195.89C15.0863 197.181 14.0979 198.182 12.8505 198.893C11.6031 199.604 10.2615 199.96 8.82587 199.96Z" fill="white"/>
<path d="M57.2142 172.026H60.1091V183.524H71.9358V172.026H74.8307V199.169H71.9358V186.605H60.1091V199.169H57.2142V172.026Z" fill="white"/>
<path d="M127.728 199.999C125.398 199.973 123.303 199.367 121.444 198.182C119.608 196.97 118.161 195.337 117.102 193.283C116.066 191.202 115.548 188.858 115.548 186.25V185.104C115.548 182.602 116.078 180.31 117.137 178.229C118.22 176.122 119.679 174.463 121.515 173.251C123.374 172.013 125.398 171.394 127.587 171.394C129.799 171.394 131.823 172.013 133.659 173.251C135.495 174.463 136.954 176.122 138.037 178.229C139.119 180.31 139.661 182.602 139.661 185.104V186.25C139.661 188.858 139.131 191.215 138.072 193.322C137.036 195.429 135.612 197.075 133.8 198.261C131.988 199.446 129.964 200.026 127.728 199.999ZM127.622 196.996C129.34 196.996 130.893 196.536 132.282 195.614C133.671 194.665 134.765 193.375 135.565 191.742C136.366 190.109 136.766 188.278 136.766 186.25V185.104C136.766 183.181 136.354 181.403 135.53 179.77C134.706 178.111 133.588 176.807 132.176 175.859C130.788 174.884 129.246 174.397 127.551 174.397C125.88 174.397 124.351 174.884 122.962 175.859C121.573 176.807 120.467 178.111 119.643 179.77C118.843 181.403 118.443 183.181 118.443 185.104V186.25C118.443 188.278 118.843 190.109 119.643 191.742C120.444 193.375 121.538 194.665 122.927 195.614C124.339 196.536 125.904 196.996 127.622 196.996Z" fill="white"/>
<path d="M187.718 172.026C189.107 172.026 190.331 172.395 191.39 173.133C192.472 173.87 193.308 174.897 193.896 176.214C194.485 177.531 194.779 179.02 194.779 180.679C194.779 183.392 193.979 185.526 192.378 187.08C190.778 188.634 188.436 189.411 185.353 189.411L182.74 189.332V199.169H179.846V172.026H187.718ZM185.776 186.408C187.777 186.408 189.295 185.907 190.331 184.907C191.366 183.879 191.884 182.431 191.884 180.561C191.884 178.822 191.46 177.466 190.613 176.491C189.766 175.516 188.648 175.029 187.259 175.029H182.74V186.289L183.976 186.329C184.87 186.382 185.471 186.408 185.776 186.408Z" fill="white"/>
<path d="M291.102 199.802C288.843 199.802 286.795 199.183 284.96 197.945C283.147 196.68 281.723 194.981 280.688 192.848C279.652 190.714 279.135 188.37 279.135 185.815C279.135 183.208 279.676 180.784 280.759 178.546C281.865 176.307 283.336 174.529 285.171 173.212C287.031 171.868 289.055 171.197 291.244 171.197C293.385 171.197 295.339 171.737 297.104 172.817C298.869 173.87 299.728 175.793 299.681 178.585H296.892C296.963 176.926 296.374 175.78 295.127 175.148C293.903 174.516 292.55 174.199 291.067 174.199C289.42 174.199 287.902 174.753 286.513 175.859C285.124 176.939 284.018 178.387 283.194 180.205C282.371 181.996 281.959 183.906 281.959 185.934C281.959 187.883 282.347 189.687 283.124 191.347C283.924 193.006 285.018 194.336 286.407 195.337C287.796 196.312 289.373 196.799 291.138 196.799C292.785 196.799 294.303 196.377 295.692 195.535C297.104 194.692 298.222 193.493 299.046 191.939L301.411 193.757C300.305 195.758 298.822 197.273 296.963 198.3C295.127 199.301 293.174 199.802 291.102 199.802Z" fill="white"/>
<path d="M348.896 171.276H350.061L360.476 199.169H357.404L354.086 190.438H344.872L341.624 199.169H338.552L348.896 171.276ZM349.955 179.059L349.673 178.032L349.461 177.123L349.214 177.992L348.931 179.059L345.966 187.514H352.956L349.955 179.059Z" fill="white"/>
<path d="M418.256 198.735C417.832 199.262 417.149 199.525 416.208 199.525C414.984 199.525 413.996 198.972 413.242 197.866L409.147 191.584C408.7 190.925 408.3 190.398 407.947 190.003C407.617 189.608 407.159 189.279 406.57 189.016C406.005 188.726 405.299 188.568 404.452 188.541V185.499H407.841C409.23 185.499 410.324 185.051 411.124 184.156C411.924 183.234 412.325 181.983 412.325 180.402C412.325 178.822 411.936 177.531 411.16 176.531C410.406 175.53 409.43 175.029 408.229 175.029H403.146V199.169H400.251V172.026H408.371C409.642 172.026 410.795 172.395 411.83 173.133C412.889 173.87 413.713 174.858 414.302 176.096C414.914 177.308 415.219 178.611 415.219 180.007C415.219 181.693 414.819 183.208 414.019 184.551C413.219 185.894 412.242 186.75 411.089 187.119C410.524 187.303 409.583 187.396 408.265 187.396C408.947 187.606 409.441 187.83 409.747 188.067C410.077 188.278 410.43 188.647 410.807 189.174L412.113 191.149C413.949 193.915 414.984 195.469 415.219 195.811C415.431 196.101 415.608 196.312 415.749 196.443C415.914 196.549 416.079 196.601 416.243 196.601C416.526 196.601 416.773 196.483 416.985 196.246L418.256 198.735Z" fill="white"/>
<path d="M147.676 34.0794L262.086 36.5868C265.198 36.5868 272.594 35.8346 277.283 32.8257C281.972 29.8168 292.986 12.468 297.907 4.16966C272 3.13247 215.975 2.57592 199.128 8.64721C182.281 14.7185 157.807 28.1317 147.676 34.0794Z" fill="#C4C4C4"/>
<path d="M147.676 34.0794L262.086 36.5868C265.198 36.5868 272.594 35.8346 277.283 32.8257C281.972 29.8168 292.986 12.468 297.907 4.16966C272 3.13247 215.975 2.57592 199.128 8.64721C182.281 14.7185 157.807 28.1317 147.676 34.0794Z" fill="url(#paint0_linear_460_8842)"/>
<path d="M147.676 34.0794L262.086 36.5868C265.198 36.5868 272.594 35.8346 277.283 32.8257C281.972 29.8168 292.986 12.468 297.907 4.16966C272 3.13247 215.975 2.57592 199.128 8.64721C182.281 14.7185 157.807 28.1317 147.676 34.0794Z" fill="url(#paint1_linear_460_8842)"/>
<path d="M291.177 32.8257H297.256C297.111 29.4825 299.34 22.9752 309.413 23.6916C319.487 24.408 325.189 24.8259 326.781 24.9453C327.505 27.9303 328.518 34.2943 326.781 35.8704C327.867 35.3928 330.95 34.4376 334.597 34.4376C337.028 30.2825 328.808 13.7217 324.393 5.96068L312.236 6.67708C304.941 7.10692 295.157 24.2886 291.177 32.8257Z" fill="#C4C4C4"/>
<path d="M291.177 32.8257H297.256C297.111 29.4825 299.34 22.9752 309.413 23.6916C319.487 24.408 325.189 24.8259 326.781 24.9453C327.505 27.9303 328.518 34.2943 326.781 35.8704C327.867 35.3928 330.95 34.4376 334.597 34.4376C337.028 30.2825 328.808 13.7217 324.393 5.96068L312.236 6.67708C304.941 7.10692 295.157 24.2886 291.177 32.8257Z" fill="url(#paint2_linear_460_8842)"/>
<path d="M291.177 32.8257H297.256C297.111 29.4825 299.34 22.9752 309.413 23.6916C319.487 24.408 325.189 24.8259 326.781 24.9453C327.505 27.9303 328.518 34.2943 326.781 35.8704C327.867 35.3928 330.95 34.4376 334.597 34.4376C337.028 30.2825 328.808 13.7217 324.393 5.96068L312.236 6.67708C304.941 7.10692 295.157 24.2886 291.177 32.8257Z" fill="url(#paint3_linear_460_8842)"/>
<path d="M330.906 6.67708C339.445 7.69198 358.26 14.3426 365.208 32.8257C355.482 32.8257 344.945 33.5421 340.893 33.9003C339.735 28.6467 336.116 15.847 330.906 6.67708Z" fill="#C4C4C4"/>
<path d="M330.906 6.67708C339.445 7.69198 358.26 14.3426 365.208 32.8257C355.482 32.8257 344.945 33.5421 340.893 33.9003C339.735 28.6467 336.116 15.847 330.906 6.67708Z" fill="url(#paint4_linear_460_8842)"/>
<path d="M330.906 6.67708C339.445 7.69198 358.26 14.3426 365.208 32.8257C355.482 32.8257 344.945 33.5421 340.893 33.9003C339.735 28.6467 336.116 15.847 330.906 6.67708Z" fill="url(#paint5_linear_460_8842)"/>
<path fill-rule="evenodd" clip-rule="evenodd" d="M55.4095 110.734C62.3566 115.092 88.1478 124.095 135.736 125.241C141.814 125.241 129.006 95.6301 121.841 80.8245C120.322 77.8395 116.197 71.7262 111.855 71.153C107.513 70.5799 71.2576 67.6904 53.6727 66.3173C53.0214 66.377 51.5886 67.9292 51.0676 73.6604C51.0353 74.0152 50.9972 74.4204 50.9549 74.8706C50.1424 83.5109 47.7747 108.691 55.4095 110.734ZM85.8031 83.3318C83.719 83.3318 82.3296 75.6902 81.8954 71.8694C87.3952 72.4664 100.435 73.9112 108.598 74.9141C116.761 75.9171 120.104 83.2125 120.756 86.7348C109.973 85.6005 87.8872 83.3318 85.8031 83.3318ZM73.2115 81.72C74.7746 82.4364 77.1916 75.4514 78.2047 71.8694C71.2576 71.3321 56.9726 70.2575 55.4095 70.2575C53.5948 70.2575 53.6528 76.5921 53.6703 78.4987V78.5002C53.6716 78.6457 53.6727 78.7654 53.6727 78.8544C53.6727 79.5695 59.3946 80.1098 64.6732 80.6083C68.6484 80.9836 72.3722 81.3353 73.2115 81.72ZM128.788 106.436C99.9579 105.719 66.6986 98.6151 53.6727 95.1525C52.8043 96.9435 51.936 101.922 55.4095 107.51C77.3364 118.256 132.479 122.734 133.782 121.122C134.638 120.062 133.243 116.913 131.508 112.997C130.603 110.956 129.607 108.706 128.788 106.436Z" fill="#C4C4C4"/>
<path fill-rule="evenodd" clip-rule="evenodd" d="M55.4095 110.734C62.3566 115.092 88.1478 124.095 135.736 125.241C141.814 125.241 129.006 95.6301 121.841 80.8245C120.322 77.8395 116.197 71.7262 111.855 71.153C107.513 70.5799 71.2576 67.6904 53.6727 66.3173C53.0214 66.377 51.5886 67.9292 51.0676 73.6604C51.0353 74.0152 50.9972 74.4204 50.9549 74.8706C50.1424 83.5109 47.7747 108.691 55.4095 110.734ZM85.8031 83.3318C83.719 83.3318 82.3296 75.6902 81.8954 71.8694C87.3952 72.4664 100.435 73.9112 108.598 74.9141C116.761 75.9171 120.104 83.2125 120.756 86.7348C109.973 85.6005 87.8872 83.3318 85.8031 83.3318ZM73.2115 81.72C74.7746 82.4364 77.1916 75.4514 78.2047 71.8694C71.2576 71.3321 56.9726 70.2575 55.4095 70.2575C53.5948 70.2575 53.6528 76.5921 53.6703 78.4987V78.5002C53.6716 78.6457 53.6727 78.7654 53.6727 78.8544C53.6727 79.5695 59.3946 80.1098 64.6732 80.6083C68.6484 80.9836 72.3722 81.3353 73.2115 81.72ZM128.788 106.436C99.9579 105.719 66.6986 98.6151 53.6727 95.1525C52.8043 96.9435 51.936 101.922 55.4095 107.51C77.3364 118.256 132.479 122.734 133.782 121.122C134.638 120.062 133.243 116.913 131.508 112.997C130.603 110.956 129.607 108.706 128.788 106.436Z" fill="url(#paint6_linear_460_8842)"/>
<path fill-rule="evenodd" clip-rule="evenodd" d="M55.4095 110.734C62.3566 115.092 88.1478 124.095 135.736 125.241C141.814 125.241 129.006 95.6301 121.841 80.8245C120.322 77.8395 116.197 71.7262 111.855 71.153C107.513 70.5799 71.2576 67.6904 53.6727 66.3173C53.0214 66.377 51.5886 67.9292 51.0676 73.6604C51.0353 74.0152 50.9972 74.4204 50.9549 74.8706C50.1424 83.5109 47.7747 108.691 55.4095 110.734ZM85.8031 83.3318C83.719 83.3318 82.3296 75.6902 81.8954 71.8694C87.3952 72.4664 100.435 73.9112 108.598 74.9141C116.761 75.9171 120.104 83.2125 120.756 86.7348C109.973 85.6005 87.8872 83.3318 85.8031 83.3318ZM73.2115 81.72C74.7746 82.4364 77.1916 75.4514 78.2047 71.8694C71.2576 71.3321 56.9726 70.2575 55.4095 70.2575C53.5948 70.2575 53.6528 76.5921 53.6703 78.4987V78.5002C53.6716 78.6457 53.6727 78.7654 53.6727 78.8544C53.6727 79.5695 59.3946 80.1098 64.6732 80.6083C68.6484 80.9836 72.3722 81.3353 73.2115 81.72ZM128.788 106.436C99.9579 105.719 66.6986 98.6151 53.6727 95.1525C52.8043 96.9435 51.936 101.922 55.4095 107.51C77.3364 118.256 132.479 122.734 133.782 121.122C134.638 120.062 133.243 116.913 131.508 112.997C130.603 110.956 129.607 108.706 128.788 106.436Z" fill="url(#paint7_linear_460_8842)"/>
<path fill-rule="evenodd" clip-rule="evenodd" d="M149.847 109.301C165.333 107.391 198.129 107.904 205.424 125.241C185.277 129.97 163.452 125.779 155.057 123.092C153.32 120.465 149.847 114.03 149.847 109.301ZM174.404 124.296C178.36 124.296 181.568 121.649 181.568 118.385C181.568 115.121 178.36 112.475 174.404 112.475C170.447 112.475 167.24 115.121 167.24 118.385C167.24 121.649 170.447 124.296 174.404 124.296Z" fill="#C4C4C4"/>
<path fill-rule="evenodd" clip-rule="evenodd" d="M149.847 109.301C165.333 107.391 198.129 107.904 205.424 125.241C185.277 129.97 163.452 125.779 155.057 123.092C153.32 120.465 149.847 114.03 149.847 109.301ZM174.404 124.296C178.36 124.296 181.568 121.649 181.568 118.385C181.568 115.121 178.36 112.475 174.404 112.475C170.447 112.475 167.24 115.121 167.24 118.385C167.24 121.649 170.447 124.296 174.404 124.296Z" fill="url(#paint8_linear_460_8842)"/>
<path fill-rule="evenodd" clip-rule="evenodd" d="M149.847 109.301C165.333 107.391 198.129 107.904 205.424 125.241C185.277 129.97 163.452 125.779 155.057 123.092C153.32 120.465 149.847 114.03 149.847 109.301ZM174.404 124.296C178.36 124.296 181.568 121.649 181.568 118.385C181.568 115.121 178.36 112.475 174.404 112.475C170.447 112.475 167.24 115.121 167.24 118.385C167.24 121.649 170.447 124.296 174.404 124.296Z" fill="url(#paint9_linear_460_8842)"/>
<path fill-rule="evenodd" clip-rule="evenodd" d="M218.45 82.2572C220.91 77.8991 225.31 67.965 223.226 63.0935C208.362 63.3685 194.301 64.514 181.95 66.0035C186.409 66.5844 189.818 69.7689 189.818 73.6102C189.818 77.8635 185.638 81.3115 180.483 81.3115C175.327 81.3115 171.147 77.8635 171.147 73.6102C171.147 70.5977 173.244 67.9893 176.299 66.7237C159.199 69.02 145.989 71.8669 139.426 73.6604C139.643 75.5709 140.989 80.108 144.637 82.9736C166.063 82.2572 176.55 83.1528 181.326 84.9438C185.147 86.3766 207.667 83.7497 218.45 82.2572ZM201.541 81.3115C207.056 81.3115 211.527 77.623 211.527 73.0729C211.527 68.5229 207.056 64.8343 201.541 64.8343C196.026 64.8343 191.554 68.5229 191.554 73.0729C191.554 77.623 196.026 81.3115 201.541 81.3115Z" fill="#C4C4C4"/>
<path fill-rule="evenodd" clip-rule="evenodd" d="M218.45 82.2572C220.91 77.8991 225.31 67.965 223.226 63.0935C208.362 63.3685 194.301 64.514 181.95 66.0035C186.409 66.5844 189.818 69.7689 189.818 73.6102C189.818 77.8635 185.638 81.3115 180.483 81.3115C175.327 81.3115 171.147 77.8635 171.147 73.6102C171.147 70.5977 173.244 67.9893 176.299 66.7237C159.199 69.02 145.989 71.8669 139.426 73.6604C139.643 75.5709 140.989 80.108 144.637 82.9736C166.063 82.2572 176.55 83.1528 181.326 84.9438C185.147 86.3766 207.667 83.7497 218.45 82.2572ZM201.541 81.3115C207.056 81.3115 211.527 77.623 211.527 73.0729C211.527 68.5229 207.056 64.8343 201.541 64.8343C196.026 64.8343 191.554 68.5229 191.554 73.0729C191.554 77.623 196.026 81.3115 201.541 81.3115Z" fill="url(#paint10_linear_460_8842)"/>
<path fill-rule="evenodd" clip-rule="evenodd" d="M218.45 82.2572C220.91 77.8991 225.31 67.965 223.226 63.0935C208.362 63.3685 194.301 64.514 181.95 66.0035C186.409 66.5844 189.818 69.7689 189.818 73.6102C189.818 77.8635 185.638 81.3115 180.483 81.3115C175.327 81.3115 171.147 77.8635 171.147 73.6102C171.147 70.5977 173.244 67.9893 176.299 66.7237C159.199 69.02 145.989 71.8669 139.426 73.6604C139.643 75.5709 140.989 80.108 144.637 82.9736C166.063 82.2572 176.55 83.1528 181.326 84.9438C185.147 86.3766 207.667 83.7497 218.45 82.2572ZM201.541 81.3115C207.056 81.3115 211.527 77.623 211.527 73.0729C211.527 68.5229 207.056 64.8343 201.541 64.8343C196.026 64.8343 191.554 68.5229 191.554 73.0729C191.554 77.623 196.026 81.3115 201.541 81.3115Z" fill="url(#paint11_linear_460_8842)"/>
<path d="M195.299 73.0729C195.299 75.9166 198.094 78.222 201.541 78.222C204.988 78.222 207.782 75.9166 207.782 73.0729C207.782 70.2292 204.988 67.9239 201.541 67.9239C198.094 67.9239 195.299 70.2292 195.299 73.0729Z" fill="#C4C4C4"/>
<path d="M195.299 73.0729C195.299 75.9166 198.094 78.222 201.541 78.222C204.988 78.222 207.782 75.9166 207.782 73.0729C207.782 70.2292 204.988 67.9239 201.541 67.9239C198.094 67.9239 195.299 70.2292 195.299 73.0729Z" fill="url(#paint12_linear_460_8842)"/>
<path d="M195.299 73.0729C195.299 75.9166 198.094 78.222 201.541 78.222C204.988 78.222 207.782 75.9166 207.782 73.0729C207.782 70.2292 204.988 67.9239 201.541 67.9239C198.094 67.9239 195.299 70.2292 195.299 73.0729Z" fill="url(#paint13_linear_460_8842)"/>
<path fill-rule="evenodd" clip-rule="evenodd" d="M49.3308 103.749C46.8703 105.839 42.9481 110.878 46.9427 114.316C51.6509 118.369 123.724 143.76 215.841 135.835C221.417 135.355 227.066 134.753 232.778 134.017L232.785 133.974C233.14 131.738 233.488 129.561 233.834 127.442C238.968 130.968 245.251 133.043 252.036 133.043C269.371 133.043 283.424 119.505 283.424 102.806C283.424 86.8384 270.577 73.7618 254.296 72.6459C257.884 70.4035 262.053 68.9045 266.887 68.4163C285.123 66.8402 289.538 98.9828 288.597 115.878L362.479 92.1464C364.571 96.7565 367.845 99.7486 371.737 99.9679C377.012 100.265 382.009 95.3877 384.855 88.0264C385.262 86.974 385.625 85.8709 385.939 84.7248C385.951 84.6787 385.964 84.6325 385.976 84.5863C386.55 82.4549 386.954 80.177 387.152 77.8029C387.929 68.4721 385.539 60.4537 380.9 56.4137C379.324 55.0414 377.519 54.2259 375.557 54.1152C372.037 53.9168 368.641 56.0224 365.925 59.6326C362.886 63.6717 360.699 69.5943 360.142 76.2803C360.142 64.1653 367.883 51.1266 375.186 51.1266C382.122 51.1266 387.811 59.9848 388.365 71.2535C388.395 71.8501 388.41 72.4534 388.41 73.0626C388.41 74.6958 388.302 76.2873 388.098 77.8186C387.831 79.8267 384.786 92.0818 385.976 92.1464C400.609 96.146 403.246 100.406 379.939 107.51C342.008 119.331 327.511 129.614 263.209 141.988C193.29 155.443 121.841 153.181 48.4079 133.923C41.9767 132.237 36.5521 130.814 32.3453 129.817C6.48304 123.689 32.893 109.885 49.3308 103.749Z" fill="#C4C4C4"/>
<path fill-rule="evenodd" clip-rule="evenodd" d="M49.3308 103.749C46.8703 105.839 42.9481 110.878 46.9427 114.316C51.6509 118.369 123.724 143.76 215.841 135.835C221.417 135.355 227.066 134.753 232.778 134.017L232.785 133.974C233.14 131.738 233.488 129.561 233.834 127.442C238.968 130.968 245.251 133.043 252.036 133.043C269.371 133.043 283.424 119.505 283.424 102.806C283.424 86.8384 270.577 73.7618 254.296 72.6459C257.884 70.4035 262.053 68.9045 266.887 68.4163C285.123 66.8402 289.538 98.9828 288.597 115.878L362.479 92.1464C364.571 96.7565 367.845 99.7486 371.737 99.9679C377.012 100.265 382.009 95.3877 384.855 88.0264C385.262 86.974 385.625 85.8709 385.939 84.7248C385.951 84.6787 385.964 84.6325 385.976 84.5863C386.55 82.4549 386.954 80.177 387.152 77.8029C387.929 68.4721 385.539 60.4537 380.9 56.4137C379.324 55.0414 377.519 54.2259 375.557 54.1152C372.037 53.9168 368.641 56.0224 365.925 59.6326C362.886 63.6717 360.699 69.5943 360.142 76.2803C360.142 64.1653 367.883 51.1266 375.186 51.1266C382.122 51.1266 387.811 59.9848 388.365 71.2535C388.395 71.8501 388.41 72.4534 388.41 73.0626C388.41 74.6958 388.302 76.2873 388.098 77.8186C387.831 79.8267 384.786 92.0818 385.976 92.1464C400.609 96.146 403.246 100.406 379.939 107.51C342.008 119.331 327.511 129.614 263.209 141.988C193.29 155.443 121.841 153.181 48.4079 133.923C41.9767 132.237 36.5521 130.814 32.3453 129.817C6.48304 123.689 32.893 109.885 49.3308 103.749Z" fill="url(#paint14_linear_460_8842)"/>
<path fill-rule="evenodd" clip-rule="evenodd" d="M49.3308 103.749C46.8703 105.839 42.9481 110.878 46.9427 114.316C51.6509 118.369 123.724 143.76 215.841 135.835C221.417 135.355 227.066 134.753 232.778 134.017L232.785 133.974C233.14 131.738 233.488 129.561 233.834 127.442C238.968 130.968 245.251 133.043 252.036 133.043C269.371 133.043 283.424 119.505 283.424 102.806C283.424 86.8384 270.577 73.7618 254.296 72.6459C257.884 70.4035 262.053 68.9045 266.887 68.4163C285.123 66.8402 289.538 98.9828 288.597 115.878L362.479 92.1464C364.571 96.7565 367.845 99.7486 371.737 99.9679C377.012 100.265 382.009 95.3877 384.855 88.0264C385.262 86.974 385.625 85.8709 385.939 84.7248C385.951 84.6787 385.964 84.6325 385.976 84.5863C386.55 82.4549 386.954 80.177 387.152 77.8029C387.929 68.4721 385.539 60.4537 380.9 56.4137C379.324 55.0414 377.519 54.2259 375.557 54.1152C372.037 53.9168 368.641 56.0224 365.925 59.6326C362.886 63.6717 360.699 69.5943 360.142 76.2803C360.142 64.1653 367.883 51.1266 375.186 51.1266C382.122 51.1266 387.811 59.9848 388.365 71.2535C388.395 71.8501 388.41 72.4534 388.41 73.0626C388.41 74.6958 388.302 76.2873 388.098 77.8186C387.831 79.8267 384.786 92.0818 385.976 92.1464C400.609 96.146 403.246 100.406 379.939 107.51C342.008 119.331 327.511 129.614 263.209 141.988C193.29 155.443 121.841 153.181 48.4079 133.923C41.9767 132.237 36.5521 130.814 32.3453 129.817C6.48304 123.689 32.893 109.885 49.3308 103.749Z" fill="url(#paint15_linear_460_8842)"/>
<path fill-rule="evenodd" clip-rule="evenodd" d="M275.483 102.944C275.483 115.727 264.957 126.089 251.974 126.089C244.745 126.089 238.278 122.877 233.965 117.823C234.745 105.858 237.896 90.9523 245.726 80.625C247.716 80.0865 249.811 79.7989 251.974 79.7989C264.957 79.7989 275.483 90.1613 275.483 102.944ZM252.821 113.588C258.558 113.588 263.209 108.914 263.209 103.148C263.209 97.3823 258.558 92.7081 252.821 92.7081C247.084 92.7081 242.433 97.3823 242.433 103.148C242.433 108.914 247.084 113.588 252.821 113.588Z" fill="#C4C4C4"/>
<path fill-rule="evenodd" clip-rule="evenodd" d="M275.483 102.944C275.483 115.727 264.957 126.089 251.974 126.089C244.745 126.089 238.278 122.877 233.965 117.823C234.745 105.858 237.896 90.9523 245.726 80.625C247.716 80.0865 249.811 79.7989 251.974 79.7989C264.957 79.7989 275.483 90.1613 275.483 102.944ZM252.821 113.588C258.558 113.588 263.209 108.914 263.209 103.148C263.209 97.3823 258.558 92.7081 252.821 92.7081C247.084 92.7081 242.433 97.3823 242.433 103.148C242.433 108.914 247.084 113.588 252.821 113.588Z" fill="url(#paint16_linear_460_8842)"/>
<path fill-rule="evenodd" clip-rule="evenodd" d="M275.483 102.944C275.483 115.727 264.957 126.089 251.974 126.089C244.745 126.089 238.278 122.877 233.965 117.823C234.745 105.858 237.896 90.9523 245.726 80.625C247.716 80.0865 249.811 79.7989 251.974 79.7989C264.957 79.7989 275.483 90.1613 275.483 102.944ZM252.821 113.588C258.558 113.588 263.209 108.914 263.209 103.148C263.209 97.3823 258.558 92.7081 252.821 92.7081C247.084 92.7081 242.433 97.3823 242.433 103.148C242.433 108.914 247.084 113.588 252.821 113.588Z" fill="url(#paint17_linear_460_8842)"/>
<path fill-rule="evenodd" clip-rule="evenodd" d="M365.925 59.6326C367.845 58.0335 370.011 57.1734 372.239 57.299C375.165 57.464 377.702 59.3007 379.533 62.2094C381.786 65.7884 382.97 70.9903 382.495 76.6977C382.196 80.2857 381.28 83.6023 379.939 86.3888C378 90.4194 375.17 93.3409 372.031 94.3704C371.083 94.6814 370.106 94.8197 369.117 94.764C366.939 94.6412 364.977 93.5919 363.36 91.8634C362.589 91.0388 361.897 90.0596 361.297 88.9526C360.206 85.269 359.756 80.9123 360.142 76.2803C360.699 69.5943 362.886 63.6717 365.925 59.6326ZM371.14 83.9384C374.219 83.9384 376.714 80.1991 376.714 75.5864C376.714 70.9736 374.219 67.2343 371.14 67.2343C368.062 67.2343 365.566 70.9736 365.566 75.5864C365.566 80.1991 368.062 83.9384 371.14 83.9384Z" fill="#C4C4C4"/>
<path fill-rule="evenodd" clip-rule="evenodd" d="M365.925 59.6326C367.845 58.0335 370.011 57.1734 372.239 57.299C375.165 57.464 377.702 59.3007 379.533 62.2094C381.786 65.7884 382.97 70.9903 382.495 76.6977C382.196 80.2857 381.28 83.6023 379.939 86.3888C378 90.4194 375.17 93.3409 372.031 94.3704C371.083 94.6814 370.106 94.8197 369.117 94.764C366.939 94.6412 364.977 93.5919 363.36 91.8634C362.589 91.0388 361.897 90.0596 361.297 88.9526C360.206 85.269 359.756 80.9123 360.142 76.2803C360.699 69.5943 362.886 63.6717 365.925 59.6326ZM371.14 83.9384C374.219 83.9384 376.714 80.1991 376.714 75.5864C376.714 70.9736 374.219 67.2343 371.14 67.2343C368.062 67.2343 365.566 70.9736 365.566 75.5864C365.566 80.1991 368.062 83.9384 371.14 83.9384Z" fill="url(#paint18_linear_460_8842)"/>
<path fill-rule="evenodd" clip-rule="evenodd" d="M365.925 59.6326C367.845 58.0335 370.011 57.1734 372.239 57.299C375.165 57.464 377.702 59.3007 379.533 62.2094C381.786 65.7884 382.97 70.9903 382.495 76.6977C382.196 80.2857 381.28 83.6023 379.939 86.3888C378 90.4194 375.17 93.3409 372.031 94.3704C371.083 94.6814 370.106 94.8197 369.117 94.764C366.939 94.6412 364.977 93.5919 363.36 91.8634C362.589 91.0388 361.897 90.0596 361.297 88.9526C360.206 85.269 359.756 80.9123 360.142 76.2803C360.699 69.5943 362.886 63.6717 365.925 59.6326ZM371.14 83.9384C374.219 83.9384 376.714 80.1991 376.714 75.5864C376.714 70.9736 374.219 67.2343 371.14 67.2343C368.062 67.2343 365.566 70.9736 365.566 75.5864C365.566 80.1991 368.062 83.9384 371.14 83.9384Z" fill="url(#paint19_linear_460_8842)"/>
<defs>
<linearGradient id="paint0_linear_460_8842" x1="18.1633" y1="83.5402" x2="432.119" y2="83.5402" gradientUnits="userSpaceOnUse">
<stop stop-color="#41295A"/>
<stop offset="1" stop-color="#2F0743"/>
</linearGradient>
<linearGradient id="paint1_linear_460_8842" x1="375.581" y1="43.3597" x2="27.8857" y2="139.817" gradientUnits="userSpaceOnUse">
<stop stop-color="white"/>
<stop offset="1" stop-color="#BEBEBE"/>
</linearGradient>
<linearGradient id="paint2_linear_460_8842" x1="18.1633" y1="83.5402" x2="432.119" y2="83.5402" gradientUnits="userSpaceOnUse">
<stop stop-color="#41295A"/>
<stop offset="1" stop-color="#2F0743"/>
</linearGradient>
<linearGradient id="paint3_linear_460_8842" x1="375.581" y1="43.3597" x2="27.8857" y2="139.817" gradientUnits="userSpaceOnUse">
<stop stop-color="white"/>
<stop offset="1" stop-color="#BEBEBE"/>
</linearGradient>
<linearGradient id="paint4_linear_460_8842" x1="18.1633" y1="83.5402" x2="432.119" y2="83.5402" gradientUnits="userSpaceOnUse">
<stop stop-color="#41295A"/>
<stop offset="1" stop-color="#2F0743"/>
</linearGradient>
<linearGradient id="paint5_linear_460_8842" x1="375.581" y1="43.3597" x2="27.8857" y2="139.817" gradientUnits="userSpaceOnUse">
<stop stop-color="white"/>
<stop offset="1" stop-color="#BEBEBE"/>
</linearGradient>
<linearGradient id="paint6_linear_460_8842" x1="18.1633" y1="83.5402" x2="432.119" y2="83.5402" gradientUnits="userSpaceOnUse">
<stop stop-color="#41295A"/>
<stop offset="1" stop-color="#2F0743"/>
</linearGradient>
<linearGradient id="paint7_linear_460_8842" x1="375.581" y1="43.3597" x2="27.8857" y2="139.817" gradientUnits="userSpaceOnUse">
<stop stop-color="white"/>
<stop offset="1" stop-color="#BEBEBE"/>
</linearGradient>
<linearGradient id="paint8_linear_460_8842" x1="18.1633" y1="83.5402" x2="432.119" y2="83.5402" gradientUnits="userSpaceOnUse">
<stop stop-color="#41295A"/>
<stop offset="1" stop-color="#2F0743"/>
</linearGradient>
<linearGradient id="paint9_linear_460_8842" x1="375.581" y1="43.3597" x2="27.8857" y2="139.817" gradientUnits="userSpaceOnUse">
<stop stop-color="white"/>
<stop offset="1" stop-color="#BEBEBE"/>
</linearGradient>
<linearGradient id="paint10_linear_460_8842" x1="18.1633" y1="83.5402" x2="432.119" y2="83.5402" gradientUnits="userSpaceOnUse">
<stop stop-color="#41295A"/>
<stop offset="1" stop-color="#2F0743"/>
</linearGradient>
<linearGradient id="paint11_linear_460_8842" x1="375.581" y1="43.3597" x2="27.8857" y2="139.817" gradientUnits="userSpaceOnUse">
<stop stop-color="white"/>
<stop offset="1" stop-color="#BEBEBE"/>
</linearGradient>
<linearGradient id="paint12_linear_460_8842" x1="18.1633" y1="83.5402" x2="432.119" y2="83.5402" gradientUnits="userSpaceOnUse">
<stop stop-color="#41295A"/>
<stop offset="1" stop-color="#2F0743"/>
</linearGradient>
<linearGradient id="paint13_linear_460_8842" x1="375.581" y1="43.3597" x2="27.8857" y2="139.817" gradientUnits="userSpaceOnUse">
<stop stop-color="white"/>
<stop offset="1" stop-color="#BEBEBE"/>
</linearGradient>
<linearGradient id="paint14_linear_460_8842" x1="18.1633" y1="83.5402" x2="432.119" y2="83.5402" gradientUnits="userSpaceOnUse">
<stop stop-color="#41295A"/>
<stop offset="1" stop-color="#2F0743"/>
</linearGradient>
<linearGradient id="paint15_linear_460_8842" x1="375.581" y1="43.3597" x2="27.8857" y2="139.817" gradientUnits="userSpaceOnUse">
<stop stop-color="white"/>
<stop offset="1" stop-color="#BEBEBE"/>
</linearGradient>
<linearGradient id="paint16_linear_460_8842" x1="18.1633" y1="83.5402" x2="432.119" y2="83.5402" gradientUnits="userSpaceOnUse">
<stop stop-color="#41295A"/>
<stop offset="1" stop-color="#2F0743"/>
</linearGradient>
<linearGradient id="paint17_linear_460_8842" x1="375.581" y1="43.3597" x2="27.8857" y2="139.817" gradientUnits="userSpaceOnUse">
<stop stop-color="white"/>
<stop offset="1" stop-color="#BEBEBE"/>
</linearGradient>
<linearGradient id="paint18_linear_460_8842" x1="18.1633" y1="83.5402" x2="432.119" y2="83.5402" gradientUnits="userSpaceOnUse">
<stop stop-color="#41295A"/>
<stop offset="1" stop-color="#2F0743"/>
</linearGradient>
<linearGradient id="paint19_linear_460_8842" x1="375.581" y1="43.3597" x2="27.8857" y2="139.817" gradientUnits="userSpaceOnUse">
<stop stop-color="white"/>
<stop offset="1" stop-color="#BEBEBE"/>
</linearGradient>
</defs>
</svg>
