<svg aria-hidden="true" xmlns="http://www.w3.org/2000/svg" xmlns:xlink="http://www.w3.org/1999/xlink"><symbol viewBox="0 0 33 16" id="arrow" xmlns="http://www.w3.org/2000/svg">
<path fill-rule="evenodd" clip-rule="evenodd" d="M26.3431 0.89763L32.7071 7.26159C33.0976 7.65211 33.0976 8.28528 32.7071 8.6758L26.3431 15.0398C25.9526 15.4303 25.3195 15.4303 24.9289 15.0398C24.5384 14.6492 24.5384 14.0161 24.9289 13.6256L29.5858 8.9687H0V6.9687H29.5858L24.9289 2.31184C24.5384 1.92132 24.5384 1.28815 24.9289 0.89763C25.3195 0.507105 25.9526 0.507105 26.3431 0.89763Z"/>
</symbol><symbol viewBox="0 0 33 33" id="arrow-btn" xmlns="http://www.w3.org/2000/svg">
<g clip-path="url(#aclip0_32_302)">
<path d="M14.8369 16.5762L21.4369 23.1762L19.5516 25.0615L11.0662 16.5762L19.5516 8.09086L21.4369 9.97619L14.8369 16.5762Z"/>
</g>
<defs>
<clipPath id="aclip0_32_302">
<rect width="32" height="32" transform="translate(32.3994 32.5762) rotate(180)"/>
</clipPath>
</defs>
</symbol><symbol viewBox="0 0 21 21" id="cart" xmlns="http://www.w3.org/2000/svg">
<path fill-rule="evenodd" clip-rule="evenodd" d="M5.60354 18.5794C5.60317 18.5802 5.60263 18.5817 5.60263 18.5851C5.60263 18.5884 5.60316 18.5897 5.60343 18.5903C5.60391 18.5915 5.60492 18.5932 5.60671 18.595C5.6085 18.5968 5.61023 18.5978 5.61135 18.5983C5.61198 18.5985 5.61327 18.5991 5.61663 18.5991C5.62001 18.5991 5.62145 18.5985 5.62232 18.5982C5.62368 18.5976 5.6256 18.5964 5.62753 18.5945C5.62946 18.5926 5.63048 18.5908 5.63093 18.5897L5.63093 18.5897C5.63117 18.5892 5.63163 18.5881 5.63163 18.5851C5.63163 18.582 5.63115 18.5808 5.63082 18.58C5.63027 18.5787 5.62911 18.5767 5.62705 18.5746C5.62499 18.5726 5.62301 18.5714 5.62172 18.5709C5.62093 18.5705 5.61969 18.5701 5.61663 18.5701C5.61361 18.5701 5.61252 18.5705 5.61197 18.5708L5.61195 18.5708C5.6109 18.5712 5.60911 18.5722 5.60719 18.5742C5.60526 18.5761 5.60411 18.578 5.60354 18.5794ZM4.10263 18.5851C4.10263 17.7501 4.77914 17.0701 5.61663 17.0701C6.45284 17.0701 7.13163 17.7489 7.13163 18.5851C7.13163 19.4226 6.45156 20.0991 5.61663 20.0991C4.78042 20.0991 4.10263 19.4213 4.10263 18.5851Z"/>
<path fill-rule="evenodd" clip-rule="evenodd" d="M16.8548 18.58C16.8545 18.5808 16.854 18.582 16.854 18.5851C16.854 18.5881 16.8545 18.5892 16.8547 18.5897L16.8547 18.5897C16.8552 18.5908 16.8562 18.5926 16.8581 18.5945C16.8601 18.5964 16.862 18.5976 16.8633 18.5982C16.8642 18.5985 16.8657 18.5991 16.869 18.5991C16.8724 18.5991 16.8739 18.5985 16.8747 18.5982C16.8761 18.5976 16.878 18.5964 16.8799 18.5945C16.8819 18.5926 16.8829 18.5908 16.8833 18.5897L16.8833 18.5897C16.8836 18.5892 16.884 18.5881 16.884 18.5851C16.884 18.582 16.8836 18.5808 16.8832 18.58C16.8827 18.5787 16.8815 18.5767 16.8795 18.5746C16.8774 18.5726 16.8754 18.5714 16.8741 18.5709C16.8733 18.5705 16.8721 18.5701 16.869 18.5701C16.866 18.5701 16.8647 18.5705 16.8639 18.5709C16.8627 18.5714 16.8607 18.5726 16.8586 18.5746C16.8566 18.5767 16.8554 18.5787 16.8548 18.58ZM15.354 18.5851C15.354 17.7489 16.0328 17.0701 16.869 17.0701C17.7052 17.0701 18.384 17.7489 18.384 18.5851C18.384 19.4226 17.704 20.0991 16.869 20.0991C16.0341 20.0991 15.354 19.4226 15.354 18.5851Z"/>
<path fill-rule="evenodd" clip-rule="evenodd" d="M0.205232 1.12197C0.275873 0.713827 0.664006 0.440225 1.07215 0.510866L3.15215 0.870866C3.48847 0.929074 3.74307 1.20703 3.77162 1.54715L4.00678 4.34888H18.1032C19.3772 4.34888 20.3549 5.47802 20.1725 6.73923L19.2235 13.2973C19.041 14.5534 17.9654 15.4859 16.6962 15.4859H5.78424C4.45659 15.4859 3.3505 14.4694 3.23987 13.1456L2.32534 2.25007L0.816339 1.98889C0.408193 1.91825 0.134591 1.53012 0.205232 1.12197ZM4.13269 5.84888L4.73462 13.0201C4.78017 13.5662 5.23603 13.9859 5.78424 13.9859H16.6962C17.2191 13.9859 17.6635 13.602 17.739 13.0822L18.688 6.52453C18.7395 6.16776 18.4633 5.84888 18.1032 5.84888H4.13269Z"/>
<path fill-rule="evenodd" clip-rule="evenodd" d="M11.5697 8.79688C11.5697 8.38266 11.9055 8.04688 12.3197 8.04688H15.0927C15.5069 8.04688 15.8427 8.38266 15.8427 8.79688C15.8427 9.21109 15.5069 9.54688 15.0927 9.54688H12.3197C11.9055 9.54688 11.5697 9.21109 11.5697 8.79688Z"/>
</symbol><symbol viewBox="0 0 25 25" id="fb" xmlns="http://www.w3.org/2000/svg">
<g clip-path="url(#dclip0_32_97)">
<path d="M13.6006 9.03955V6.03955C13.6006 5.21155 14.2726 4.53955 15.1006 4.53955H16.6006V0.789551H13.6006C11.1151 0.789551 9.10059 2.80405 9.10059 5.28955V9.03955H6.10059V12.7896H9.10059V24.7896H13.6006V12.7896H16.6006L18.1006 9.03955H13.6006Z"/>
</g>
<defs>
<clipPath id="dclip0_32_97">
<rect width="24" height="24" transform="translate(0.100586 0.789551)"/>
</clipPath>
</defs>
</symbol><symbol viewBox="0 0 25 25" id="insta" xmlns="http://www.w3.org/2000/svg">
<g clip-path="url(#eclip0_32_105)">
<path d="M24.0772 7.84562C24.021 6.5704 23.8148 5.69371 23.5194 4.93404C23.2146 4.12767 22.7458 3.40572 22.1315 2.80557C21.5314 2.19608 20.8047 1.72247 20.0076 1.42249C19.2436 1.12708 18.3714 0.920863 17.0962 0.864639C15.8115 0.803653 15.4036 0.789551 12.1452 0.789551C8.88675 0.789551 8.47889 0.803653 7.19892 0.859877C5.9237 0.916101 5.04701 1.1225 4.28752 1.41773C3.48097 1.72247 2.75902 2.19131 2.15887 2.80557C1.54938 3.40572 1.07596 4.13243 0.775789 4.92946C0.480382 5.69371 0.274165 6.56564 0.217941 7.84085C0.156955 9.12559 0.142853 9.53345 0.142853 12.7919C0.142853 16.0503 0.156955 16.4582 0.213179 17.7382C0.269403 19.0134 0.475803 19.8901 0.77121 20.6498C1.07596 21.4561 1.54938 22.1781 2.15887 22.7782C2.75902 23.3877 3.48573 23.8613 4.28276 24.1613C5.04701 24.4567 5.91894 24.6629 7.19434 24.7192C8.47413 24.7756 8.88217 24.7895 12.1406 24.7895C15.3991 24.7895 15.8069 24.7756 17.0869 24.7192C18.3621 24.6629 19.2388 24.4567 19.9983 24.1613C21.6112 23.5377 22.8864 22.2625 23.51 20.6498C23.8052 19.8855 24.0116 19.0134 24.0679 17.7382C24.1241 16.4582 24.1382 16.0503 24.1382 12.7919C24.1382 9.53345 24.1334 9.12559 24.0772 7.84562ZM21.916 17.6444C21.8643 18.8165 21.6674 19.4494 21.5033 19.8714C21.1001 20.917 20.2703 21.7468 19.2247 22.15C18.8027 22.3141 18.1652 22.511 16.9977 22.5625C15.7318 22.6189 15.3522 22.6328 12.15 22.6328C8.94773 22.6328 8.56332 22.6189 7.30202 22.5625C6.12992 22.511 5.49698 22.3141 5.07503 22.15C4.55472 21.9577 4.08112 21.653 3.69671 21.2545C3.29819 20.8653 2.99345 20.3965 2.80115 19.8762C2.63705 19.4542 2.44018 18.8165 2.38871 17.6492C2.33231 16.3833 2.31839 16.0035 2.31839 12.8012C2.31839 9.59901 2.33231 9.2146 2.38871 7.95349C2.44018 6.78138 2.63705 6.14845 2.80115 5.72649C2.99345 5.206 3.29819 4.73258 3.70147 4.34799C4.09046 3.94947 4.5593 3.64472 5.07979 3.45261C5.50175 3.28851 6.13944 3.09164 7.30679 3.03999C8.57266 2.98377 8.95249 2.96966 12.1545 2.96966C15.3615 2.96966 15.7412 2.98377 17.0025 3.03999C18.1746 3.09164 18.8075 3.28851 19.2295 3.45261C19.7498 3.64472 20.2234 3.94947 20.6078 4.34799C21.0063 4.73716 21.311 5.206 21.5033 5.72649C21.6674 6.14845 21.8643 6.78596 21.916 7.95349C21.9722 9.21936 21.9863 9.59901 21.9863 12.8012C21.9863 16.0035 21.9722 16.3785 21.916 17.6444Z"/>
<path d="M12.1453 6.62646C8.7416 6.62646 5.98001 9.38787 5.98001 12.7917C5.98001 16.1956 8.7416 18.957 12.1453 18.957C15.5491 18.957 18.3105 16.1956 18.3105 12.7917C18.3105 9.38787 15.5491 6.62646 12.1453 6.62646ZM12.1453 16.791C9.93714 16.791 8.14602 15 8.14602 12.7917C8.14602 10.5834 9.93714 8.79248 12.1453 8.79248C14.3536 8.79248 16.1445 10.5834 16.1445 12.7917C16.1445 15 14.3536 16.791 12.1453 16.791Z"/>
<path d="M19.9938 6.38291C19.9938 7.17775 19.3493 7.82222 18.5543 7.82222C17.7595 7.82222 17.115 7.17775 17.115 6.38291C17.115 5.58789 17.7595 4.9436 18.5543 4.9436C19.3493 4.9436 19.9938 5.58789 19.9938 6.38291Z"/>
</g>
<defs>
<clipPath id="eclip0_32_105">
<rect width="24" height="24" transform="translate(0.100708 0.789551)"/>
</clipPath>
</defs>
</symbol><symbol viewBox="0 0 30 30" id="items" xmlns="http://www.w3.org/2000/svg">
<path d="M21.4722 9H22.9217C24.1292 9 25.1392 8.1395 25.3712 7H23.9217C22.7147 7 21.7047 7.8605 21.4722 9Z"/>
<path d="M10 4.5C10.0495 4.5 10.0975 4.506 10.147 4.5075L10.498 0.9975C10.5 0.703 10.297 0.5 10.0475 0.5H9.953C9.703 0.5 9.5 0.703 9.5 0.9525L9.8535 4.5075C9.9025 4.506 9.9505 4.5 10 4.5Z"/>
<path d="M6 15C6 14.8295 6.0175 14.663 6.045 14.5H5V14.8425C5.3745 15.021 5.713 15.262 6 15.555V15Z"/>
<path d="M5.59513 2.77806L7.30563 5.29606C7.43963 5.20956 7.57813 5.12956 7.72063 5.05606L6.69213 2.22756C6.68463 2.20756 6.67713 2.18906 6.66763 2.17106C6.59713 2.03006 6.48513 1.93256 6.34563 1.88656C6.20613 1.84006 6.05763 1.85106 5.92713 1.91656L5.80213 1.97906C5.53163 2.11406 5.42163 2.44406 5.55713 2.71456C5.56813 2.73456 5.58113 2.75706 5.59513 2.77806Z"/>
<path d="M7.691 13.5H13.26L13.916 10.352C13.9715 10.084 14 9.8095 14 9.536C14 7.2945 12.2055 5.5 10 5.5C7.7945 5.5 6 7.2945 6 9.5C6 9.8095 6.0285 10.084 6.084 10.352L6.662 13.125C7.212 12.44 8.055 12 9 12V13C8.4975 13 8.043 13.1925 7.691 13.5ZM11.5 7.5H12.5V8.5H11.5V7.5ZM11.5 9.5H12.5V10.5H11.5V9.5ZM11.5 11.5H12.5V12.5H11.5V11.5Z"/>
<path d="M4.50022 17.5H5.94972C5.71722 16.3605 4.70772 15.5 3.50022 15.5H2.05072C2.28272 16.6395 3.29272 17.5 4.50022 17.5Z"/>
<path d="M14.4055 2.77655C14.4185 2.75655 14.432 2.73455 14.443 2.71205C14.5775 2.44355 14.4675 2.11355 14.197 1.97855L14.072 1.91605C13.941 1.85105 13.7935 1.83955 13.6535 1.88605C13.5145 1.93255 13.402 2.03005 13.3365 2.16105C13.3225 2.18905 13.3145 2.20755 13.3075 2.22655L12.279 5.05505C12.4215 5.12855 12.56 5.20855 12.6945 5.29505L14.4055 2.77655Z"/>
<path d="M13.4921 23.5H27.5001V20.5H12.8261C13.2676 21.4285 13.4916 22.449 13.4921 23.5ZM25.5001 21.5H26.5001V22.5H25.5001V21.5Z"/>
<path d="M12.2316 27.5H26.0001C26.8271 27.5 27.5001 26.827 27.5001 26V24.5H13.4281C13.2686 25.6015 12.8476 26.623 12.2316 27.5ZM25.5001 25.5H26.5001V26.5H25.5001V25.5Z"/>
<path d="M7.071 14.5C7.029 14.661 7 14.8265 7 15V15.5H27.5H28H29.5V14.5H7.071Z"/>
<path d="M7 17.9335C7.1005 17.909 7.201 17.8835 7.2925 17.844C8.8175 17.1915 10.5925 17.5835 11.7055 18.821C11.8995 19.0365 12.0735 19.2655 12.237 19.4995H27.5V16.4995H7V17.9335ZM25.5 17.5H26.5V18.5H25.5V17.5Z"/>
<path d="M10.9625 19.4899C10.1485 18.5849 8.801 18.2854 7.686 18.7634C7.4715 18.8549 7.2395 18.9179 7 18.9564V19.8979C7.4965 19.7129 7.968 19.3234 8.147 19.1454L8.8535 19.8534C8.7365 19.9709 7.6735 20.9999 6.5 20.9999C5.3265 20.9999 4.2635 19.9709 4.1465 19.8534L4.853 19.1454C5.032 19.3229 5.5035 19.7124 6 19.8979V18.4999H4.5C4.3305 18.4999 4.1655 18.4839 4.0025 18.4604C3.3015 18.5104 2.5605 18.9024 2.0145 19.5154C1.038 20.6139 0.5 22.0284 0.5 23.4999C0.5 25.1464 1.154 26.6819 2.3405 27.8239C3.527 28.9654 5.08 29.5549 6.739 29.4954C9.8295 29.3759 12.3575 26.8619 12.4945 23.7724C12.564 22.1869 12.02 20.6659 10.9625 19.4899ZM6.5 28.4999C3.743 28.4999 1.5 26.2569 1.5 23.4999H2.5C2.5 25.7054 4.2945 27.4999 6.5 27.4999V28.4999Z"/>
<path d="M25.3854 13.5C25.1464 12.571 24.6899 11.7115 24.0409 10.99C23.2264 10.085 21.8789 9.7865 20.7639 10.2635C20.6789 10.3 20.5899 10.3305 20.4999 10.359V6C20.4999 5.173 21.1729 4.5 21.9999 4.5H22.4999V3.5H21.9999C20.6214 3.5 19.4999 4.6215 19.4999 6V10.359C19.4099 10.3305 19.3209 10.3 19.2359 10.2635C18.1214 9.7865 16.7734 10.085 15.9589 10.99C15.3099 11.7115 14.8534 12.5705 14.6144 13.5H19.9999H25.3854ZM17.7534 11.069C17.7609 11.073 18.5179 11.5 19.9999 11.5C21.4819 11.5 22.2389 11.073 22.2464 11.069L22.7569 11.9285C22.7184 11.952 21.7844 12.5 19.9999 12.5C18.2154 12.5 17.2814 11.952 17.2424 11.9285L17.7534 11.069Z"/>
</symbol><symbol viewBox="0 0 41 39" id="moto" xmlns="http://www.w3.org/2000/svg">
<path d="M38.3468 12.2352H31.5636C30.3931 12.2352 29.4407 13.188 29.4407 14.3592V22.1666H26.9036C27.0446 21.654 27.0968 21.0494 27.0625 20.3458V20.3457C27.0075 17.3723 26.4679 14.8664 25.4588 12.8975C24.6752 11.3688 23.7607 10.4523 22.9761 9.90445C23.8971 8.9575 24.4296 7.61039 24.4296 6.05671C24.4296 3.26132 22.1996 0.987183 19.4588 0.987183C16.7179 0.987183 14.488 3.26132 14.488 6.05671C14.488 6.38039 14.7504 6.64265 15.0739 6.64265H15.4721C15.4354 6.86375 15.4159 7.08906 15.4159 7.31789C15.4159 9.28789 16.8236 10.9344 18.6847 11.3034C18.4896 12.0277 18.3926 12.8819 18.393 13.8522L16.9316 15.1091L13.3757 15.3967L9.27395 14.0408C8.89801 13.9158 8.47191 13.7745 8.10223 14.0411C7.73793 14.304 7.73793 14.7642 7.73793 14.9154V17.965C7.73793 18.2887 8.00027 18.5509 8.32387 18.5509H9.02145L7.95152 22.2481C7.8616 22.5589 8.04066 22.8839 8.35152 22.9738C8.66254 23.0642 8.98731 22.8847 9.07731 22.5739L10.2415 18.5509H11.9073C9.83543 24.8691 11.0176 29.0864 12.8347 33.3544H11.7814L7.39449 28.4493L8.32215 25.2446C8.41215 24.9337 8.23309 24.6088 7.92223 24.5189C7.61137 24.429 7.28645 24.608 7.19645 24.9188L6.30918 27.9842C3.56496 27.9384 1.11027 29.8305 0.484727 32.5526C0.412306 32.8679 0.609102 33.1823 0.924337 33.2548L1.75613 33.4462C1.54363 35.6534 2.99715 37.7358 5.21387 38.246C5.55051 38.3236 5.89004 38.3619 6.22723 38.3619C7.05879 38.3619 7.87574 38.1287 8.59832 37.6759C9.44637 37.1444 10.0782 36.3632 10.4202 35.4399L11.0765 35.5909C11.2721 35.6362 11.4575 35.6591 11.6429 35.5593C11.8153 35.4665 11.9299 35.2989 11.9729 35.1098C12.0141 34.918 12.0455 34.723 12.0673 34.5263H24.3218C24.7137 36.9628 26.7868 38.7994 29.2626 38.7994C31.7385 38.7994 33.8116 36.9628 34.2035 34.5263H34.6507C34.6507 34.5263 34.7394 34.5273 34.7597 34.5273C34.9272 34.5273 35.1693 34.5087 35.368 34.3066C35.4675 34.2054 35.5842 34.0244 35.5752 33.7368C35.5587 33.1866 35.4761 32.6549 35.3352 32.1496C35.8019 29.3162 35.3529 27.5905 34.6871 26.2399C35.108 25.9641 35.3871 25.4887 35.3871 24.9487V23.3384H38.3467C39.5172 23.3384 40.4696 22.3855 40.4696 21.2143V14.3591C40.4697 13.188 39.5175 12.2352 38.3468 12.2352ZM7.97606 36.683C7.22598 37.1531 6.33848 37.3026 5.47691 37.1042H5.47684C3.89106 36.7392 2.83309 35.2851 2.9102 33.7127L9.2659 35.1755C9.00293 35.7947 8.55801 36.3184 7.97606 36.683ZM10.9079 34.3498L1.79348 32.2524C2.49684 30.3263 4.38965 29.0513 6.45863 29.161L10.9236 34.1533C10.9197 34.2191 10.9145 34.2846 10.9079 34.3498ZM19.7583 24.1392C19.5882 24.5878 19.5882 25.1409 19.5882 25.9064V28.1175H17.4427V25.0841C17.4427 21.6545 19.3144 21.0434 20.1544 20.9425H25.8989C25.8757 21.7209 25.7001 22.2741 25.3667 22.6253C24.9781 23.0345 24.3132 23.2339 23.3338 23.2348L21.2306 23.237C20.4806 23.2371 19.9853 23.5405 19.7583 24.1392ZM19.5882 29.2893V30.6884C19.5829 30.6884 19.5775 30.6884 19.5718 30.6884H15.4099C15.4567 30.2544 15.5918 29.9187 15.8138 29.6863C16.1439 29.3409 16.6089 29.2893 16.8568 29.2893H19.5882ZM25.873 19.7707H20.5443C20.3304 19.0973 20.1396 18.36 19.9827 17.6022L21.6028 16.5506C22.4871 15.9763 22.9472 15.1648 22.865 14.3241C22.7922 13.5789 22.2856 12.9132 21.5743 12.6283C20.9248 12.3681 20.2257 12.4498 19.6078 12.8449C19.6587 12.2844 19.7536 11.7841 19.8907 11.3594C20.1405 11.3337 20.3886 11.2848 20.6321 11.2132C21.128 11.098 21.5862 10.9145 21.9999 10.6712C23.1284 11.3454 25.6104 13.5323 25.873 19.7707ZM15.7028 5.47085C15.9791 3.59867 17.5582 2.15914 19.4588 2.15914C21.5535 2.15914 23.2577 3.90765 23.2577 6.05679C23.2577 7.80476 22.4195 9.21359 21.0679 9.83359V6.75054C21.0679 6.21671 20.8636 5.56187 19.8907 5.47328C19.873 5.47164 19.8553 5.47085 19.8375 5.47085H15.7028ZM16.5879 7.31796C16.5879 7.08671 16.6142 6.86085 16.666 6.64273H19.8088C19.845 6.64664 19.8714 6.65085 19.8903 6.65468C19.8933 6.6764 19.896 6.70765 19.896 6.75054V10.1784C19.7564 10.1989 19.6159 10.2093 19.4755 10.2094C19.4742 10.2094 19.4729 10.2094 19.4716 10.2094C17.8813 10.2079 16.5879 8.9114 16.5879 7.31796ZM15.8282 16.3742L17.2161 16.2619C17.3397 16.252 17.457 16.203 17.5511 16.1222L20.0558 13.9679L20.0562 13.9675C20.2984 13.7588 20.5569 13.6518 20.8086 13.6518C20.9207 13.6518 21.0314 13.673 21.1386 13.716C21.4482 13.84 21.6681 14.1234 21.6989 14.438C21.7375 14.8338 21.4768 15.2351 20.9648 15.5676L18.1738 17.3791H15.8284V16.3742H15.8282ZM13.352 16.5745L14.6564 16.4691V17.3793H13.1407C12.9442 17.3793 12.8963 17.216 12.8907 17.0791C12.8875 17.0014 12.8948 16.612 13.352 16.5745ZM11.9652 16.17C11.7887 16.4594 11.7063 16.7979 11.7198 17.127C11.7233 17.2123 11.7342 17.2944 11.7493 17.3744C11.7493 17.376 11.7484 17.3777 11.7487 17.3792H8.90996V15.1548L11.9675 16.1655C11.9665 16.167 11.9661 16.1685 11.9652 16.17ZM13.1439 18.5511H18.3471C18.4604 18.5511 18.5712 18.5183 18.6661 18.4566L18.9314 18.2844C19.0589 18.8484 19.2043 19.3971 19.3625 19.9154C18.1675 20.2681 16.2707 21.408 16.2707 25.084V28.1762C15.8596 28.2592 15.3733 28.4509 14.9665 28.8766C14.5377 29.3254 14.2928 29.9334 14.234 30.6883H13.052C11.8609 27.2556 11.4079 23.6028 13.1439 18.5511ZM14.1097 33.3525C13.8932 32.8544 13.6844 32.3583 13.4879 31.8602H19.5718C20.3603 31.8602 20.76 31.5012 20.76 30.7934V28.7034V26.4923H25.385C25.7086 26.4923 25.9709 26.23 25.9709 25.9063C25.9709 25.5827 25.7086 25.3204 25.385 25.3204H20.7643C20.7718 24.9876 20.7931 24.7154 20.8541 24.5546C20.8837 24.4764 20.9093 24.4089 21.2311 24.4089L23.3349 24.4067C24.6525 24.4055 25.595 24.0867 26.2165 23.4322C26.2453 23.4019 26.2725 23.3701 26.2997 23.3384H30.0268H34.2154V24.9488C34.2154 25.1502 34.0457 25.3204 33.8447 25.3204H28.0115C27.6879 25.3204 27.4256 25.5827 27.4256 25.9063C27.4256 26.23 27.6879 26.4923 28.0115 26.4923H33.5004C33.9636 27.3519 34.3801 28.4215 34.3554 30.1114C33.1961 28.5012 31.3195 27.4658 29.1896 27.4658C27.4792 27.4658 25.8742 28.1367 24.6702 29.3551C23.6018 30.4361 22.9602 31.8391 22.8282 33.3544L14.1097 33.3525ZM29.2627 37.6277C27.431 37.6277 25.8861 36.308 25.5124 34.5265H33.013C32.6392 36.3078 31.0943 37.6277 29.2627 37.6277ZM33.6786 33.3546H24.8469H24.0051C24.2928 30.7052 26.5081 28.6377 29.1896 28.6377C31.5439 28.6377 33.5211 30.1901 34.1758 32.3633C34.1779 32.3702 34.18 32.377 34.1824 32.3838C34.275 32.6956 34.3404 33.0202 34.3757 33.3546H33.6786ZM39.2979 21.2144C39.2979 21.7394 38.8712 22.1666 38.3468 22.1666H30.6126V19.1407H39.2979V21.2144ZM39.2979 17.9688H30.6126V16.7227H39.2979V17.9688ZM39.2979 15.5508H30.6126V14.3592C30.6126 13.8341 31.0393 13.407 31.5636 13.407H38.3468C38.8712 13.407 39.2979 13.8342 39.2979 14.3592V15.5508Z"/>
</symbol><symbol viewBox="0 0 29 41" id="order" xmlns="http://www.w3.org/2000/svg">
<path d="M9.15568 28.7151H19.5469C19.8705 28.7151 20.1328 28.4527 20.1328 28.1291C20.1328 27.8055 19.8705 27.5432 19.5469 27.5432H9.15568C8.83209 27.5432 8.56974 27.8055 8.56974 28.1291C8.56974 28.4527 8.83209 28.7151 9.15568 28.7151ZM10.9917 15.2727H17.9481C18.4787 15.2727 18.9386 14.9316 19.0926 14.424L20.5526 9.61351C20.6638 9.24734 20.5968 8.86101 20.3688 8.55367C20.1409 8.24632 19.7908 8.07007 19.4081 8.07007H18.8884L17.8264 5.41523C17.5823 4.80398 16.9993 4.40906 16.341 4.40906H12.5988C11.9406 4.40906 11.3576 4.80398 11.1134 5.41492L10.0514 8.06999H9.5317C9.14904 8.06999 8.79888 8.24625 8.57091 8.55367C8.34295 8.86109 8.27599 9.24734 8.38709 9.61351L9.84716 14.424C10.0012 14.9316 10.4611 15.2727 10.9917 15.2727ZM9.51224 9.25164C9.5299 9.22773 12.6993 9.2496 12.7219 9.24187C13.0455 9.24187 13.3079 8.97953 13.3079 8.65593C13.3079 8.33234 13.0455 8.06999 12.7219 8.06999H11.3135L12.2015 5.85C12.2668 5.68656 12.4227 5.58093 12.5988 5.58093H16.341C16.5171 5.58093 16.673 5.68656 16.7383 5.85015L17.6263 8.06999H15.4562C15.1326 8.06999 14.8703 8.33234 14.8703 8.65593C14.8703 8.97953 15.1326 9.24187 15.4562 9.24187C15.4759 9.24187 19.4126 9.2314 19.4276 9.25164C19.445 9.27515 17.9712 14.059 17.9712 14.0837C17.9712 14.1357 10.9716 14.0939 10.9685 14.0837C10.9611 14.0591 9.49482 9.27507 9.51224 9.25164ZM9.15568 34.5604C8.83209 34.5604 8.56974 34.8227 8.56974 35.1463C8.56974 35.4699 8.83209 35.7323 9.15568 35.7323H19.5469C19.8705 35.7323 20.1328 35.4699 20.1328 35.1463C20.1328 34.8227 19.8705 34.5604 19.5469 34.5604H9.15568ZM24.8203 32.8026C24.8203 32.479 24.558 32.2166 24.2344 32.2166H9.15568C8.83209 32.2166 8.56974 32.479 8.56974 32.8026C8.56974 33.1262 8.83209 33.3885 9.15568 33.3885H24.2344C24.558 33.3885 24.8203 33.1262 24.8203 32.8026ZM27.75 26.5423C28.0737 26.5423 28.3359 26.28 28.3359 25.9564V3.82312C28.3359 2.20765 27.0217 0.893433 25.4062 0.893433H3.53357C1.9181 0.893433 0.603882 2.20765 0.603882 3.82312V37.9637C0.603882 39.5792 1.9181 40.8934 3.53357 40.8934H25.4063C27.0218 40.8934 28.336 39.5792 28.336 37.9637V28.6908C28.336 28.3672 28.0737 28.1048 27.7501 28.1048C27.4264 28.1048 27.1641 28.3672 27.1641 28.6908V37.9637C27.1641 38.933 26.3755 39.7216 25.4063 39.7216H3.53357C2.56427 39.7216 1.77576 38.933 1.77576 37.9637V3.82312C1.77576 2.85382 2.56427 2.06531 3.53357 2.06531H25.4063C26.3755 2.06531 27.1641 2.85382 27.1641 3.82312V25.9564C27.164 26.28 27.4264 26.5423 27.75 26.5423ZM6.83927 29.1644C6.55076 29.168 6.24818 29.1709 5.97084 29.1723C6.16787 28.9048 6.41709 28.5597 6.72779 28.1157C7.00029 27.7264 7.1931 27.374 7.24334 27.0078C7.25154 26.9478 7.26732 26.8401 7.26732 26.7828C7.26732 25.9098 6.55709 25.1995 5.68404 25.1995C4.9292 25.1995 4.27584 25.7366 4.13045 26.4766C4.0681 26.7941 4.2749 27.1021 4.59248 27.1644C4.91005 27.2268 5.21802 27.02 5.28037 26.7024C5.31802 26.5105 5.48779 26.3714 5.68404 26.3714C5.90107 26.3714 6.07943 26.5403 6.09443 26.7536C6.10927 26.9641 6.00185 27.1092 5.76771 27.4437C5.15209 28.3234 4.78482 28.8042 4.58755 29.0625C4.2431 29.5135 4.07849 30.1013 4.67513 30.3002C4.75209 30.3258 6.29881 30.3433 6.85396 30.3362C7.17756 30.3322 7.43654 30.0666 7.43248 29.743C7.42841 29.4194 7.16006 29.1582 6.83927 29.1644ZM24.2344 25.1994H9.15568C8.83209 25.1994 8.56974 25.4618 8.56974 25.7854C8.56974 26.109 8.83209 26.3713 9.15568 26.3713H24.2344C24.558 26.3713 24.8203 26.109 24.8203 25.7854C24.8203 25.4618 24.558 25.1994 24.2344 25.1994ZM5.77599 32.2166C5.02115 32.2166 4.36779 32.7537 4.2224 33.4937C4.16005 33.8112 4.36685 34.1192 4.68443 34.1816C5.00177 34.2438 5.3099 34.0371 5.37232 33.7195C5.40998 33.5277 5.57974 33.3885 5.77599 33.3885C6.00287 33.3885 6.1874 33.573 6.1874 33.7999C6.1874 34.0268 6.00287 34.2113 5.77599 34.2113C5.4524 34.2113 5.19006 34.4737 5.19006 34.7973C5.19006 35.1209 5.4524 35.3832 5.77599 35.3832C6.00287 35.3832 6.1874 35.5677 6.1874 35.7946C6.1874 36.0215 6.00287 36.206 5.77599 36.206C5.57185 36.206 5.3967 36.0541 5.36857 35.8524C5.36591 35.8335 5.36459 35.8141 5.36459 35.7946C5.36459 35.471 5.10224 35.2087 4.77865 35.2087C4.45505 35.2087 4.19271 35.471 4.19271 35.7946C4.19271 36.6552 4.90685 37.3779 5.77599 37.3779C6.64904 37.3779 7.35927 36.6677 7.35927 35.7946C7.35927 35.4168 7.22584 35.0698 7.00412 34.7973C7.22584 34.5248 7.35927 34.1777 7.35927 33.7999C7.35927 32.9269 6.64904 32.2166 5.77599 32.2166ZM5.77599 23.2823C6.09959 23.2823 6.36193 23.02 6.36193 22.6964V18.7987C6.36193 18.4752 6.09959 18.2128 5.77599 18.2128H4.94287C4.61927 18.2128 4.35693 18.4752 4.35693 18.7987C4.35693 19.1223 4.61927 19.3847 4.94287 19.3847H5.19006V22.6964C5.19006 23.02 5.4524 23.2823 5.77599 23.2823ZM9.15568 21.7284H19.5469C19.8705 21.7284 20.1328 21.4661 20.1328 21.1425C20.1328 20.8189 19.8705 20.5566 19.5469 20.5566H9.15568C8.83209 20.5566 8.56974 20.8189 8.56974 21.1425C8.56974 21.4661 8.83209 21.7284 9.15568 21.7284ZM24.2344 18.2128H9.15568C8.83209 18.2128 8.56974 18.4752 8.56974 18.7987C8.56974 19.1223 8.83209 19.3847 9.15568 19.3847H24.2344C24.558 19.3847 24.8203 19.1223 24.8203 18.7987C24.8203 18.4752 24.558 18.2128 24.2344 18.2128Z"/>
</symbol><symbol viewBox="0 0 32 32" id="reviews" xmlns="http://www.w3.org/2000/svg">
<path d="M31.9542 12.3286C31.8439 11.9891 31.5506 11.7418 31.1974 11.6905L21.2773 10.2489L16.8408 1.25974C16.6829 0.939682 16.357 0.737183 16.0001 0.737183C15.6433 0.737183 15.3174 0.939682 15.1595 1.25974L10.7227 10.2489L0.802801 11.6905C0.449739 11.7418 0.15624 11.9891 0.0460526 12.3285C-0.0642597 12.668 0.0277402 13.0405 0.28324 13.2895L7.46123 20.2867L5.76698 30.1668C5.70667 30.5186 5.85129 30.874 6.13998 31.0838C6.42866 31.2935 6.81129 31.3213 7.12729 31.1551L16.0001 26.4903L24.8726 31.1551C25.0098 31.2272 25.1596 31.2628 25.3088 31.2628C25.5032 31.2628 25.6967 31.2024 25.8599 31.0838C26.1486 30.874 26.2932 30.5185 26.2329 30.1668L24.5382 20.2867L31.7169 13.2895C31.9725 13.0405 32.0645 12.6679 31.9542 12.3286Z"/>
<path d="M31.9542 12.3286C31.8439 11.9891 31.5506 11.7418 31.1974 11.6905L21.2773 10.2489L16.8408 1.25974C16.6829 0.939682 16.357 0.737183 16.0002 0.737183V26.4903L24.8727 31.1551C25.0099 31.2273 25.1596 31.2628 25.3089 31.2628C25.5033 31.2628 25.6968 31.2025 25.86 31.0839C26.1487 30.8741 26.2933 30.5186 26.233 30.1669L24.5382 20.2867L31.7169 13.2895C31.9725 13.0405 32.0645 12.6679 31.9542 12.3286Z"/>
</symbol><symbol viewBox="0 0 21 21" id="search" xmlns="http://www.w3.org/2000/svg">
<path fill-rule="evenodd" clip-rule="evenodd" d="M9.96094 1.52808C5.41091 1.52808 1.72238 5.2166 1.72238 9.76663C1.72238 14.3167 5.41091 18.0052 9.96094 18.0052C14.511 18.0052 18.1995 14.3167 18.1995 9.76663C18.1995 5.2166 14.511 1.52808 9.96094 1.52808ZM0.222382 9.76663C0.222382 4.38818 4.58248 0.0280762 9.96094 0.0280762C15.3394 0.0280762 19.6995 4.38818 19.6995 9.76663C19.6995 15.1451 15.3394 19.5052 9.96094 19.5052C4.58248 19.5052 0.222382 15.1451 0.222382 9.76663Z"/>
<path fill-rule="evenodd" clip-rule="evenodd" d="M15.6816 15.9555C15.9741 15.6622 16.449 15.6616 16.7423 15.9541L20.2663 19.469C20.5596 19.7615 20.5602 20.2363 20.2677 20.5296C19.9752 20.8229 19.5003 20.8235 19.207 20.531L15.683 17.0161C15.3897 16.7236 15.3891 16.2487 15.6816 15.9555Z"/>
</symbol><symbol viewBox="0 0 41 31" id="time" xmlns="http://www.w3.org/2000/svg">
<path d="M3.50671 7.55048H9.68625C10.0098 7.55048 10.2722 7.28821 10.2722 6.96454C10.2722 6.64087 10.0098 6.3786 9.68625 6.3786H3.50671C3.18312 6.3786 2.92078 6.64087 2.92078 6.96454C2.92078 7.28821 3.18304 7.55048 3.50671 7.55048Z"/>
<path d="M9.47454 10.3713H7.03345C6.70985 10.3713 6.44751 10.6336 6.44751 10.9573C6.44751 11.2809 6.70985 11.5432 7.03345 11.5432H9.47454C9.79814 11.5432 10.0605 11.2809 10.0605 10.9573C10.0605 10.6336 9.79814 10.3713 9.47454 10.3713Z"/>
<path d="M1.05566 14.4346H7.03316C7.35676 14.4346 7.6191 14.1723 7.6191 13.8486C7.6191 13.525 7.35676 13.2627 7.03316 13.2627H1.05566C0.73207 13.2627 0.469727 13.525 0.469727 13.8486C0.469727 14.1723 0.73207 14.4346 1.05566 14.4346Z"/>
<path d="M10.2722 24.8223C10.2722 24.4986 10.0098 24.2363 9.68625 24.2363H3.50671C3.18312 24.2363 2.92078 24.4986 2.92078 24.8223C2.92078 25.1459 3.18312 25.4082 3.50671 25.4082H9.68625C10.0098 25.4082 10.2722 25.1459 10.2722 24.8223Z"/>
<path d="M9.47454 20.2437H7.03345C6.70985 20.2437 6.44751 20.5059 6.44751 20.8296C6.44751 21.1533 6.70985 21.4155 7.03345 21.4155H9.47454C9.79814 21.4155 10.0605 21.1533 10.0605 20.8296C10.0605 20.5059 9.79814 20.2437 9.47454 20.2437Z"/>
<path d="M7.6191 17.9382C7.6191 17.6145 7.35676 17.3522 7.03316 17.3522H1.05566C0.73207 17.3522 0.469727 17.6145 0.469727 17.9382C0.469727 18.2618 0.73207 18.5241 1.05566 18.5241H7.03316C7.35676 18.5241 7.6191 18.2618 7.6191 17.9382Z"/>
<path d="M25.4329 8.8489C25.7565 8.8489 26.0188 8.58664 26.0188 8.26297V7.36859C26.0188 7.04492 25.7565 6.78265 25.4329 6.78265C25.1092 6.78265 24.8469 7.04492 24.8469 7.36859V8.26297C24.8469 8.58664 25.1092 8.8489 25.4329 8.8489Z"/>
<path d="M31.8755 9.4511C31.6466 9.22235 31.2757 9.22235 31.0468 9.4511L30.4144 10.0835C30.1856 10.3124 30.1856 10.6834 30.4144 10.9122C30.6434 11.141 31.0143 11.1409 31.2431 10.9122L31.8755 10.2798C32.1043 10.0509 32.1043 9.68001 31.8755 9.4511Z"/>
<path d="M33.0627 15.3075C32.7391 15.3075 32.4768 15.5698 32.4768 15.8934C32.4768 16.2171 32.7391 16.4794 33.0627 16.4794H33.957C34.2807 16.4794 34.543 16.2171 34.543 15.8934C34.543 15.5698 34.2807 15.3075 33.957 15.3075H33.0627Z"/>
<path d="M31.2431 20.8746C31.0142 20.6458 30.6432 20.6458 30.4144 20.8746C30.1856 21.1035 30.1856 21.4744 30.4144 21.7032L31.0468 22.3357C31.2758 22.5645 31.6467 22.5644 31.8755 22.3357C32.1043 22.1068 32.1043 21.7358 31.8755 21.507L31.2431 20.8746Z"/>
<path d="M24.8469 23.5239V24.4182C24.8469 24.7418 25.1092 25.0041 25.4329 25.0041C25.7565 25.0041 26.0188 24.7418 26.0188 24.4182V23.5239C26.0188 23.2002 25.7565 22.9379 25.4329 22.9379C25.1092 22.9379 24.8469 23.2003 24.8469 23.5239Z"/>
<path d="M19.6231 20.8746L18.9907 21.507C18.7619 21.7359 18.7619 22.1068 18.9907 22.3357C19.2196 22.5645 19.5906 22.5644 19.8193 22.3357L20.4517 21.7032C20.6805 21.4743 20.6805 21.1034 20.4517 20.8746C20.223 20.6458 19.852 20.6458 19.6231 20.8746Z"/>
<path d="M16.9078 15.3075C16.5842 15.3075 16.3219 15.5698 16.3219 15.8934C16.3219 16.2171 16.5842 16.4794 16.9078 16.4794H17.8022C18.1258 16.4794 18.3881 16.2171 18.3881 15.8934C18.3881 15.5698 18.1258 15.3075 17.8022 15.3075H16.9078Z"/>
<path d="M20.4518 10.0835L19.8194 9.4511C19.5906 9.22235 19.2196 9.22235 18.9908 9.4511C18.762 9.68001 18.762 10.0509 18.9908 10.2798L19.6233 10.9122C19.8522 11.141 20.2231 11.1409 20.4518 10.9122C20.6807 10.6834 20.6807 10.3124 20.4518 10.0835Z"/>
<path d="M28.5836 15.8935C28.5836 15.5698 28.3214 15.3075 27.9977 15.3075H26.0188V10.9572C26.0188 10.6335 25.7565 10.3713 25.4329 10.3713C25.1092 10.3713 24.8469 10.6335 24.8469 10.9572V15.8935C24.8469 16.2171 25.1092 16.4794 25.4329 16.4794H27.9977C28.3213 16.4794 28.5836 16.2171 28.5836 15.8935Z"/>
<path d="M36.5432 15.7967C36.8662 15.7771 37.1122 15.4994 37.0926 15.1764C36.7198 9.02773 31.5983 4.21124 25.4328 4.21124C18.9912 4.21124 13.7506 9.45187 13.7506 15.8935C13.7506 22.3351 18.9912 27.5757 25.4328 27.5757C31.2038 27.5757 36.1281 23.3474 36.9848 17.6416C37.0328 17.3216 36.8123 17.0232 36.4923 16.9751C36.173 16.9273 35.8739 17.1475 35.8258 17.4676C35.0563 22.5937 30.6301 26.4039 25.4328 26.4039C19.6374 26.4039 14.9225 21.689 14.9225 15.8936C14.9225 10.0982 19.6374 5.3832 25.4328 5.3832C30.9798 5.3832 35.5875 9.71609 35.9228 15.2475C35.9423 15.5703 36.2198 15.8155 36.5432 15.7967Z"/>
<path d="M25.4332 0.856628C23.3722 0.856628 21.3529 1.28421 19.4943 2.08382H9.15613C8.83253 2.08382 8.57019 2.34608 8.57019 2.66975C8.57019 2.99343 8.83253 3.25569 9.15613 3.25569H17.29C16.1902 3.9635 15.1778 4.81725 14.2851 5.80288C14.0679 6.04264 14.0862 6.41319 14.326 6.63046C14.566 6.84772 14.9364 6.82936 15.1537 6.58952C17.7789 3.69093 21.5257 2.0285 25.4332 2.0285C33.0784 2.0285 39.2982 8.24827 39.2982 15.8934C39.2982 23.5385 33.0785 29.7583 25.4332 29.7583C17.7881 29.7583 11.5683 23.5386 11.5683 15.8934C11.5683 13.2162 12.3331 10.6178 13.7798 8.37889C13.9554 8.1071 13.8775 7.74444 13.6057 7.56882C13.3339 7.39327 12.9712 7.47108 12.7955 7.74296C11.226 10.1717 10.3964 12.9901 10.3964 15.8934C10.3964 21.1876 13.1469 25.8511 17.2937 28.5312H9.15621C8.83261 28.5312 8.57027 28.7934 8.57027 29.1171C8.57027 29.4408 8.83261 29.703 9.15621 29.703H19.4863C21.3113 30.492 23.322 30.9302 25.4333 30.9302C33.7246 30.9302 40.4701 24.1848 40.4701 15.8934C40.4701 7.6021 33.7246 0.856628 25.4332 0.856628Z"/>
</symbol><symbol viewBox="0 0 25 25" id="tw" xmlns="http://www.w3.org/2000/svg">
<g clip-path="url(#lclip0_32_101)">
<path d="M24.1007 5.34805C23.2082 5.73955 22.2572 5.99905 21.2657 6.12505C22.2857 5.51605 23.0642 4.55905 23.4302 3.40555C22.4792 3.97255 21.4292 4.37305 20.3102 4.59655C19.4072 3.63505 18.1202 3.03955 16.7162 3.03955C13.9922 3.03955 11.7992 5.25055 11.7992 7.96105C11.7992 8.35105 11.8322 8.72605 11.9132 9.08305C7.82271 8.88355 4.20321 6.92305 1.77171 3.93655C1.34721 4.67305 1.09821 5.51605 1.09821 6.42355C1.09821 8.12755 1.97571 9.63805 3.28371 10.5126C2.49321 10.4976 1.71771 10.2681 1.06071 9.90655C1.06071 9.92155 1.06071 9.94105 1.06071 9.96055C1.06071 12.3516 2.76621 14.3376 5.00271 14.7951C4.60221 14.9046 4.16571 14.9571 3.71271 14.9571C3.39771 14.9571 3.07971 14.9391 2.78121 14.8731C3.41871 16.8216 5.22771 18.2541 7.37871 18.3006C5.70471 19.6101 3.57921 20.3991 1.27821 20.3991C0.874708 20.3991 0.487708 20.3811 0.100708 20.3316C2.28021 21.7371 4.86321 22.5396 7.64871 22.5396C16.7027 22.5396 21.6527 15.0396 21.6527 8.53855C21.6527 8.32105 21.6452 8.11105 21.6347 7.90255C22.6112 7.20955 23.4317 6.34405 24.1007 5.34805Z"/>
</g>
<defs>
<clipPath id="lclip0_32_101">
<rect width="24" height="24" transform="translate(0.100708 0.789551)"/>
</clipPath>
</defs>
</symbol><symbol viewBox="0 0 30 32" id="user" xmlns="http://www.w3.org/2000/svg">
<path d="M15.0023 0C10.4308 0 6.69388 3.73694 6.69388 8.3084C6.69388 12.8799 10.4308 16.6168 15.0023 16.6168C19.5737 16.6168 23.3107 12.8799 23.3107 8.3084C23.3107 3.73694 19.5737 0 15.0023 0Z"/>
<path d="M29.2607 23.2563C29.043 22.7121 28.7528 22.2041 28.4263 21.7325C26.7573 19.2653 24.1814 17.6327 21.2789 17.2336C20.9161 17.1973 20.517 17.2698 20.2268 17.4875C18.703 18.6123 16.8889 19.1927 15.0023 19.1927C13.1156 19.1927 11.3016 18.6123 9.77774 17.4875C9.48747 17.2698 9.08837 17.161 8.72559 17.2336C5.82309 17.6327 3.21087 19.2653 1.57823 21.7325C1.2517 22.2041 0.961423 22.7484 0.743784 23.2563C0.634964 23.474 0.671214 23.728 0.780034 23.9457C1.07031 24.4536 1.43309 24.9616 1.75962 25.3969C2.26753 26.0863 2.81177 26.703 3.42858 27.2835C3.93649 27.7914 4.51698 28.2631 5.09753 28.7348C7.96372 30.8754 11.4105 32 14.966 32C18.5216 32 21.9683 30.8753 24.8345 28.7348C25.415 28.2994 25.9955 27.7914 26.5034 27.2835C27.0839 26.703 27.6644 26.0862 28.1724 25.3969C28.5352 24.9252 28.8618 24.4536 29.152 23.9457C29.3333 23.728 29.3696 23.4739 29.2607 23.2563Z"/>
</symbol></svg>