<svg width="517" height="321" viewBox="0 0 517 321" fill="none" xmlns="http://www.w3.org/2000/svg">
<path d="M177.533 212.406C176.098 212.406 174.749 212.505 173.483 212.702C172.246 212.926 170.896 213.039 169.434 213.039C168 213.039 167.283 212.575 167.283 211.647C167.283 210.691 167.944 210.213 169.265 210.213C170.643 210.213 171.627 209.96 172.218 209.454C173.174 208.582 174.116 207.162 175.044 205.194C175.972 203.225 176.83 201.383 177.617 199.668C178.432 197.953 179.36 195.956 180.401 193.678C181.441 191.373 182.58 188.814 183.817 186.002C185.083 183.162 186.404 180.153 187.782 176.975C191.382 168.624 193.758 163.014 194.911 160.146C196.063 157.249 196.696 155.646 196.809 155.337C196.949 155.028 197.09 154.747 197.23 154.494C197.596 153.903 197.905 153.608 198.158 153.608C198.411 153.608 198.622 153.65 198.791 153.734C198.96 153.791 199.143 153.917 199.339 154.114C199.761 154.648 200.183 155.45 200.605 156.518C201.027 157.559 201.589 158.979 202.292 160.778C203.023 162.578 203.853 164.617 204.781 166.894C205.709 169.172 206.693 171.619 207.733 174.234C208.774 176.849 209.814 179.464 210.854 182.079C211.923 184.666 212.949 187.183 213.934 189.629C214.946 192.076 215.846 194.283 216.633 196.251C219.051 202.128 220.598 205.643 221.273 206.796C221.948 207.949 222.51 208.751 222.96 209.201C223.663 209.875 224.703 210.213 226.081 210.213C227.459 210.213 228.148 210.691 228.148 211.647C228.148 212.575 227.262 213.039 225.491 213.039C224.732 213.039 224.071 212.997 223.508 212.912C222.974 212.856 222.426 212.8 221.863 212.744C220.232 212.519 218.784 212.406 217.519 212.406L209.378 213.039C207.55 213.039 206.636 212.519 206.636 211.478C206.636 210.635 207.143 210.213 208.155 210.213L210.686 210.508C211.754 210.508 212.457 210.283 212.795 209.833C213.132 209.355 213.301 208.765 213.301 208.062C213.301 206.74 212.738 204.687 211.614 201.904L208.113 193.13H184.703C184.028 194.817 183.395 196.364 182.805 197.77C182.243 199.176 181.722 200.54 181.244 201.861C180.485 203.998 180.105 205.686 180.105 206.923C180.105 208.132 180.316 209.032 180.738 209.622C181.188 210.185 182.018 210.466 183.227 210.466L185.758 210.255C186.77 210.255 187.276 210.663 187.276 211.478C187.276 212.519 186.362 213.039 184.534 213.039L177.533 212.406ZM206.679 189.545L196.64 164.406C194.7 169.327 191.227 177.706 186.222 189.545H206.679ZM236.096 213.039C234.269 213.039 233.355 212.519 233.355 211.478C233.355 210.663 233.861 210.255 234.873 210.255L236.94 210.466C238.627 210.466 239.752 209.524 240.314 207.64C240.821 206.037 241.074 203.169 241.074 199.035V169.341C241.074 165.179 240.877 162.48 240.483 161.242C240.089 159.977 239.611 159.119 239.049 158.669C238.515 158.191 237.812 157.952 236.94 157.952L234.873 158.163C233.861 158.163 233.355 157.741 233.355 156.898C233.355 155.801 234.269 155.253 236.096 155.253L241.622 155.886C242.803 155.886 243.858 155.801 244.785 155.632L283.633 200.807V169.256C283.633 165.151 283.408 162.451 282.958 161.158C282.536 159.864 282.044 158.993 281.482 158.543C280.919 158.065 280.188 157.826 279.288 157.826L277.222 157.994C276.209 157.994 275.703 157.587 275.703 156.771C275.703 155.731 276.617 155.211 278.445 155.211C279.148 155.211 280.09 155.309 281.271 155.506C282.761 155.759 284.111 155.886 285.32 155.886C286.529 155.886 287.71 155.773 288.863 155.548C290.016 155.323 291.366 155.211 292.912 155.211C294.459 155.211 295.232 155.731 295.232 156.771C295.232 157.587 294.726 157.994 293.714 157.994L291.647 157.826C289.932 157.826 288.793 158.768 288.23 160.652C287.752 162.142 287.513 165.01 287.513 169.256V211.858C287.513 212.814 287.429 213.447 287.26 213.756C287.092 214.065 286.825 214.22 286.459 214.22C285.953 214.22 285.151 213.629 284.055 212.448L245.165 167.401V199.035C245.165 203.281 245.348 206.023 245.713 207.26C246.107 208.469 246.571 209.313 247.105 209.791C247.668 210.241 248.399 210.466 249.299 210.466L251.323 210.255C252.336 210.255 252.842 210.663 252.842 211.478C252.842 212.519 252.026 213.039 250.395 213.039C248.793 213.039 247.358 212.926 246.093 212.702C244.856 212.505 243.647 212.406 242.466 212.406C241.285 212.406 240.118 212.505 238.965 212.702C237.84 212.926 236.884 213.039 236.096 213.039ZM315.877 213.039C314.049 213.039 313.135 212.519 313.135 211.478C313.135 210.663 313.641 210.255 314.654 210.255L316.72 210.466C318.408 210.466 319.532 209.524 320.095 207.64C320.601 206.037 320.854 203.169 320.854 199.035V159.597H319.715C314.794 159.597 310.871 160.103 307.947 161.116C305.922 161.847 304.544 163.098 303.813 164.87C303.279 166.163 302.717 166.81 302.126 166.81C301.311 166.81 300.903 166.332 300.903 165.376C300.903 165.095 300.959 164.771 301.072 164.406C301.212 164.04 301.367 163.604 301.536 163.098C301.986 161.748 302.253 160.343 302.337 158.88C302.421 157.418 302.576 156.448 302.801 155.97C303.054 155.464 303.392 155.211 303.813 155.211C304.235 155.211 304.615 155.253 304.952 155.337C305.29 155.393 305.782 155.464 306.428 155.548C308.116 155.773 310.239 155.886 312.798 155.886H339.54C341.62 155.886 343.125 155.773 344.053 155.548C345.009 155.323 345.698 155.211 346.12 155.211C347.047 155.211 347.511 155.646 347.511 156.518C347.511 156.968 347.427 157.502 347.258 158.121C346.837 159.499 346.555 160.694 346.415 161.706C346.302 162.691 346.19 163.506 346.077 164.153C345.965 164.771 345.838 165.263 345.698 165.629C345.473 166.248 345.135 166.557 344.685 166.557C344.236 166.557 343.94 166.402 343.8 166.093C343.687 165.756 343.561 165.123 343.42 164.195C343.279 163.267 343.04 162.508 342.703 161.917C342.366 161.327 341.916 160.863 341.353 160.525C340.369 159.907 338.766 159.597 336.545 159.597H327.476V199.035C327.476 203.281 327.659 206.023 328.024 207.26C328.418 208.469 328.882 209.313 329.416 209.791C329.979 210.241 330.71 210.466 331.61 210.466L333.634 210.255C334.647 210.255 335.153 210.663 335.153 211.478C335.153 212.519 334.253 213.039 332.453 213.039C331.525 213.039 330.541 212.955 329.501 212.786C326.126 212.252 323.23 212.153 320.812 212.491C318.422 212.856 316.777 213.039 315.877 213.039ZM10.7829 308.406C9.34875 308.406 7.99901 308.505 6.73362 308.702C5.49635 308.926 4.1466 309.039 2.68437 309.039C1.25026 309.039 0.533208 308.575 0.533208 307.647C0.533208 306.691 1.19402 306.213 2.51565 306.213C3.89352 306.213 4.87771 305.96 5.46823 305.454C6.4243 304.582 7.36631 303.162 8.29426 301.194C9.22222 299.225 10.0799 297.383 10.8672 295.668C11.6827 293.953 12.6106 291.956 13.6511 289.678C14.6915 287.373 15.8304 284.814 17.0676 282.002C18.333 279.162 19.6546 276.153 21.0325 272.975C24.6318 264.624 27.008 259.014 28.1609 256.146C29.3138 253.249 29.9465 251.646 30.059 251.337C30.1996 251.028 30.3402 250.747 30.4808 250.494C30.8463 249.903 31.1556 249.608 31.4087 249.608C31.6618 249.608 31.8727 249.65 32.0414 249.734C32.2101 249.791 32.3929 249.917 32.5897 250.114C33.0115 250.648 33.4333 251.45 33.8551 252.518C34.2769 253.559 34.8393 254.979 35.5423 256.778C36.2734 258.578 37.103 260.617 38.0309 262.894C38.9589 265.172 39.9431 267.619 40.9835 270.234C42.0239 272.849 43.0644 275.464 44.1048 278.079C45.1733 280.666 46.1997 283.183 47.1839 285.629C48.1962 288.076 49.096 290.283 49.8834 292.251C52.3017 298.128 53.8483 301.643 54.5232 302.796C55.198 303.949 55.7604 304.751 56.2103 305.201C56.9133 305.875 57.9538 306.213 59.3316 306.213C60.7095 306.213 61.3984 306.691 61.3984 307.647C61.3984 308.575 60.5127 309.039 58.7411 309.039C57.9819 309.039 57.3211 308.997 56.7587 308.912C56.2244 308.856 55.6761 308.8 55.1137 308.744C53.4827 308.519 52.0346 308.406 50.7692 308.406L42.6285 309.039C40.8007 309.039 39.8868 308.519 39.8868 307.478C39.8868 306.635 40.393 306.213 41.4053 306.213L43.9361 306.508C45.0046 306.508 45.7076 306.283 46.0451 305.833C46.3825 305.355 46.5512 304.765 46.5512 304.062C46.5512 302.74 45.9888 300.687 44.864 297.904L41.3631 289.13H17.9534C17.2785 290.817 16.6458 292.364 16.0553 293.77C15.4929 295.176 14.9727 296.54 14.4947 297.861C13.7354 299.998 13.3558 301.686 13.3558 302.923C13.3558 304.132 13.5667 305.032 13.9885 305.622C14.4384 306.185 15.268 306.466 16.4771 306.466L19.0079 306.255C20.0202 306.255 20.5264 306.663 20.5264 307.478C20.5264 308.519 19.6125 309.039 17.7847 309.039L10.7829 308.406ZM39.929 285.545L29.8902 260.406C27.95 265.327 24.4772 273.706 19.4719 285.545H39.929ZM80.904 309.039C79.0762 309.039 78.1623 308.519 78.1623 307.478C78.1623 306.663 78.6685 306.255 79.6808 306.255L81.7476 306.466C83.4348 306.466 84.5596 305.524 85.122 303.64C85.6281 302.037 85.8812 299.169 85.8812 295.035V255.597H84.7424C79.8214 255.597 75.8987 256.103 72.9742 257.116C70.9496 257.847 69.5717 259.098 68.8406 260.87C68.3063 262.163 67.744 262.81 67.1534 262.81C66.338 262.81 65.9302 262.332 65.9302 261.376C65.9302 261.095 65.9865 260.771 66.0989 260.406C66.2395 260.04 66.3942 259.604 66.5629 259.098C67.0128 257.748 67.28 256.343 67.3643 254.88C67.4487 253.418 67.6034 252.448 67.8283 251.97C68.0814 251.464 68.4188 251.211 68.8406 251.211C69.2624 251.211 69.642 251.253 69.9795 251.337C70.3169 251.393 70.809 251.464 71.4558 251.548C73.1429 251.773 75.266 251.886 77.8249 251.886H104.567C106.648 251.886 108.152 251.773 109.08 251.548C110.036 251.323 110.725 251.211 111.147 251.211C112.075 251.211 112.539 251.646 112.539 252.518C112.539 252.968 112.454 253.502 112.286 254.121C111.864 255.499 111.583 256.694 111.442 257.706C111.33 258.691 111.217 259.506 111.105 260.153C110.992 260.771 110.866 261.263 110.725 261.629C110.5 262.248 110.163 262.557 109.713 262.557C109.263 262.557 108.968 262.402 108.827 262.093C108.714 261.756 108.588 261.123 108.447 260.195C108.307 259.267 108.068 258.508 107.73 257.917C107.393 257.327 106.943 256.863 106.381 256.525C105.396 255.907 103.793 255.597 101.572 255.597H92.5034V295.035C92.5034 299.281 92.6862 302.023 93.0517 303.26C93.4454 304.469 93.9094 305.313 94.4437 305.791C95.0061 306.241 95.7372 306.466 96.637 306.466L98.6616 306.255C99.6739 306.255 100.18 306.663 100.18 307.478C100.18 308.519 99.2803 309.039 97.4806 309.039C96.5527 309.039 95.5685 308.955 94.528 308.786C91.1537 308.252 88.2573 308.153 85.839 308.491C83.4488 308.856 81.8038 309.039 80.904 309.039ZM134.786 309.039C132.958 309.039 132.044 308.519 132.044 307.478C132.044 306.663 132.55 306.255 133.563 306.255L135.63 306.466C137.317 306.466 138.442 305.524 139.004 303.64C139.51 302.037 139.763 299.169 139.763 295.035V255.597H138.624C133.703 255.597 129.781 256.103 126.856 257.116C124.832 257.847 123.454 259.098 122.723 260.87C122.188 262.163 121.626 262.81 121.035 262.81C120.22 262.81 119.812 262.332 119.812 261.376C119.812 261.095 119.868 260.771 119.981 260.406C120.122 260.04 120.276 259.604 120.445 259.098C120.895 257.748 121.162 256.343 121.246 254.88C121.331 253.418 121.485 252.448 121.71 251.97C121.963 251.464 122.301 251.211 122.723 251.211C123.144 251.211 123.524 251.253 123.861 251.337C124.199 251.393 124.691 251.464 125.338 251.548C127.025 251.773 129.148 251.886 131.707 251.886H158.449C160.53 251.886 162.034 251.773 162.962 251.548C163.918 251.323 164.607 251.211 165.029 251.211C165.957 251.211 166.421 251.646 166.421 252.518C166.421 252.968 166.336 253.502 166.168 254.121C165.746 255.499 165.465 256.694 165.324 257.706C165.212 258.691 165.099 259.506 164.987 260.153C164.874 260.771 164.748 261.263 164.607 261.629C164.382 262.248 164.045 262.557 163.595 262.557C163.145 262.557 162.85 262.402 162.709 262.093C162.596 261.756 162.47 261.123 162.329 260.195C162.189 259.267 161.95 258.508 161.612 257.917C161.275 257.327 160.825 256.863 160.262 256.525C159.278 255.907 157.675 255.597 155.454 255.597H146.385V295.035C146.385 299.281 146.568 302.023 146.934 303.26C147.327 304.469 147.791 305.313 148.326 305.791C148.888 306.241 149.619 306.466 150.519 306.466L152.544 306.255C153.556 306.255 154.062 306.663 154.062 307.478C154.062 308.519 153.162 309.039 151.363 309.039C150.435 309.039 149.45 308.955 148.41 308.786C145.036 308.252 142.139 308.153 139.721 308.491C137.331 308.856 135.686 309.039 134.786 309.039ZM175.592 279.851C175.592 275.605 176.38 271.71 177.954 268.167C179.557 264.596 181.708 261.531 184.408 258.972C187.135 256.385 190.285 254.388 193.856 252.982C197.427 251.548 201.28 250.831 205.413 250.831C209.547 250.831 213.385 251.59 216.928 253.109C220.471 254.599 223.508 256.666 226.039 259.309C231.354 264.905 234.011 272.005 234.011 280.61C234.011 288.765 231.269 295.584 225.786 301.067C220.19 306.663 213.076 309.461 204.443 309.461C196.007 309.461 189.062 306.635 183.606 300.983C178.264 295.415 175.592 288.371 175.592 279.851ZM182.805 277.446C182.805 281.102 183.395 284.701 184.577 288.244C185.786 291.759 187.487 294.824 189.68 297.44C194.376 303.12 200.31 305.96 207.48 305.96C213.02 305.96 217.561 303.879 221.104 299.717C224.76 295.443 226.587 289.819 226.587 282.845C226.587 274.606 224.38 267.773 219.965 262.346C215.579 257.003 210.025 254.332 203.304 254.332C197.765 254.332 192.998 256.441 189.005 260.659C184.872 265.046 182.805 270.641 182.805 277.446ZM246.473 309.039C244.645 309.039 243.731 308.519 243.731 307.478C243.731 306.663 244.237 306.255 245.249 306.255L247.316 306.466C249.003 306.466 250.142 305.524 250.733 303.64C251.211 302.037 251.45 299.169 251.45 295.035V265.256C251.45 261.123 251.253 258.423 250.859 257.158C250.466 255.864 249.988 254.993 249.425 254.543C248.891 254.065 248.188 253.826 247.316 253.826L245.249 253.994C244.237 253.994 243.731 253.587 243.731 252.771C243.731 251.731 244.504 251.211 246.051 251.211C247.597 251.211 249.06 251.323 250.438 251.548C251.844 251.773 253.306 251.886 254.824 251.886C256.343 251.886 257.791 251.773 259.169 251.548C260.575 251.323 262.36 251.211 264.526 251.211C266.719 251.211 269.067 251.562 271.57 252.265C274.072 252.968 276.181 253.966 277.896 255.26C281.468 257.931 283.253 261.474 283.253 265.889C283.253 270.782 281.243 275 277.222 278.543C275.928 279.668 274.494 280.624 272.919 281.411L286.628 301.32C288.174 303.598 289.875 304.976 291.731 305.454C292.266 305.594 292.941 305.707 293.756 305.791C295.19 305.932 295.907 306.41 295.907 307.225C295.907 308.013 295.134 308.406 293.587 308.406H285.489C283.549 308.406 281.791 307.141 280.216 304.61L269.587 287.612C268.631 286.121 267.717 285.067 266.845 284.448C265.974 283.801 264.624 283.478 262.796 283.478C260.996 283.478 259.422 283.52 258.072 283.605V295.035C258.072 299.281 258.255 302.023 258.62 303.26C259.014 304.469 259.478 305.313 260.012 305.791C260.575 306.241 261.306 306.466 262.206 306.466L264.23 306.255C265.243 306.255 265.749 306.663 265.749 307.478C265.749 308.519 264.849 309.039 263.049 309.039C262.121 309.039 261.137 308.955 260.097 308.786C256.722 308.252 253.826 308.153 251.408 308.491C249.017 308.856 247.372 309.039 246.473 309.039ZM258.072 279.893C259.9 280.09 261.657 280.188 263.344 280.188H266.002C268.729 280.188 271.035 279.26 272.919 277.404C275.113 275.239 276.209 272.286 276.209 268.546C276.209 264.047 274.845 260.49 272.118 257.875C269.559 255.4 266.269 254.163 262.248 254.163C260.814 254.163 259.759 254.36 259.084 254.754C258.409 255.147 258.072 255.822 258.072 256.778V279.893ZM304.109 309.039C302.281 309.039 301.367 308.519 301.367 307.478C301.367 306.663 301.873 306.255 302.885 306.255L304.952 306.466C306.639 306.466 307.764 305.524 308.327 303.64C308.833 302.037 309.086 299.169 309.086 295.035V265.341C309.086 261.179 308.889 258.48 308.495 257.242C308.102 255.977 307.624 255.119 307.061 254.669C306.527 254.191 305.824 253.952 304.952 253.952L302.885 254.163C301.873 254.163 301.367 253.741 301.367 252.898C301.367 251.801 302.281 251.253 304.109 251.253L309.634 251.886C310.815 251.886 311.87 251.801 312.798 251.632L351.645 296.807V265.256C351.645 261.151 351.42 258.451 350.97 257.158C350.548 255.864 350.056 254.993 349.494 254.543C348.932 254.065 348.2 253.826 347.301 253.826L345.234 253.994C344.221 253.994 343.715 253.587 343.715 252.771C343.715 251.731 344.629 251.211 346.457 251.211C347.16 251.211 348.102 251.309 349.283 251.506C350.773 251.759 352.123 251.886 353.332 251.886C354.541 251.886 355.722 251.773 356.875 251.548C358.028 251.323 359.378 251.211 360.925 251.211C362.471 251.211 363.244 251.731 363.244 252.771C363.244 253.587 362.738 253.994 361.726 253.994L359.659 253.826C357.944 253.826 356.805 254.768 356.243 256.652C355.765 258.142 355.526 261.01 355.526 265.256V307.858C355.526 308.814 355.441 309.447 355.273 309.756C355.104 310.065 354.837 310.22 354.471 310.22C353.965 310.22 353.164 309.629 352.067 308.448L313.177 263.401V295.035C313.177 299.281 313.36 302.023 313.726 303.26C314.119 304.469 314.583 305.313 315.117 305.791C315.68 306.241 316.411 306.466 317.311 306.466L319.335 306.255C320.348 306.255 320.854 306.663 320.854 307.478C320.854 308.519 320.038 309.039 318.407 309.039C316.805 309.039 315.371 308.926 314.105 308.702C312.868 308.505 311.659 308.406 310.478 308.406C309.297 308.406 308.13 308.505 306.977 308.702C305.852 308.926 304.896 309.039 304.109 309.039ZM371.657 309.039C370.11 309.039 369.337 308.519 369.337 307.478C369.337 306.663 369.843 306.255 370.855 306.255L372.922 306.466C374.497 306.466 375.565 305.791 376.128 304.441C376.746 302.895 377.056 299.802 377.056 295.162V265.256C377.056 260.645 376.831 257.748 376.381 256.567C375.959 255.358 375.481 254.599 374.947 254.29C374.413 253.98 373.738 253.826 372.922 253.826L370.855 253.994C369.843 253.994 369.337 253.587 369.337 252.771C369.337 251.731 370.082 251.211 371.572 251.211C373.091 251.211 374.328 251.253 375.284 251.337C376.268 251.393 377.253 251.464 378.237 251.548C380.852 251.773 382.905 251.886 384.395 251.886C385.913 251.886 387.516 251.857 389.204 251.801C390.891 251.717 392.775 251.632 394.856 251.548C400.339 251.323 404.135 251.211 406.244 251.211C408.381 251.211 409.562 251.337 409.787 251.59C410.04 251.843 410.167 252.195 410.167 252.645C410.167 253.067 410.153 253.474 410.125 253.868C410.125 254.262 410.111 254.697 410.082 255.176C410.054 255.822 409.97 256.792 409.829 258.086C409.689 259.351 409.52 260.209 409.323 260.659C409.126 261.081 408.845 261.292 408.48 261.292C408.114 261.292 407.861 261.207 407.72 261.039C407.58 260.842 407.383 260.42 407.13 259.773C406.905 259.098 406.483 258.466 405.864 257.875C405.274 257.256 404.332 256.75 403.038 256.357C400.508 255.597 395.826 255.218 388.993 255.218H385.239C384.564 255.218 384.128 255.316 383.931 255.513C383.762 255.71 383.678 256.16 383.678 256.863V274.62C387.024 275.014 389.794 275.211 391.987 275.211C394.209 275.211 395.784 275.197 396.711 275.169C397.668 275.141 398.455 275.056 399.074 274.916C400.17 274.719 400.958 274.227 401.436 273.439C402.392 271.949 403.165 271.204 403.755 271.204C404.515 271.204 404.894 271.597 404.894 272.385L403.418 278.374L403.587 281.58C403.587 283.605 403.109 284.617 402.153 284.617C401.337 284.617 400.929 284.083 400.929 283.014C400.929 281.917 400.859 281.102 400.719 280.568C400.606 280.033 400.255 279.612 399.664 279.302C398.764 278.852 396.571 278.627 393.084 278.627C389.597 278.627 386.462 278.782 383.678 279.091V289.088C383.678 295.302 383.819 300.434 384.1 304.484C386.377 304.99 388.852 305.243 391.523 305.243C394.195 305.243 396.472 305.172 398.356 305.032C400.269 304.891 401.914 304.61 403.292 304.188C406.019 303.373 408.03 301.812 409.323 299.506C409.886 298.494 410.448 297.988 411.01 297.988C411.573 297.988 411.854 298.396 411.854 299.211C411.854 299.549 411.756 299.984 411.559 300.519C411.334 301.25 411.01 302.346 410.589 303.809C410.167 305.243 409.843 306.283 409.618 306.93C409.394 307.577 409.14 308.069 408.859 308.406C408.437 308.969 407.608 309.25 406.371 309.25C405.133 309.25 403.938 309.236 402.785 309.208C401.632 309.208 400.423 309.194 399.158 309.165C397.696 309.109 395.432 308.997 392.367 308.828C384.718 308.462 380.233 308.336 378.912 308.448C377.59 308.561 376.592 308.645 375.917 308.702C375.242 308.786 374.581 308.856 373.934 308.912C373.288 308.997 372.528 309.039 371.657 309.039ZM436.337 309.039C434.509 309.039 433.595 308.519 433.595 307.478C433.595 306.663 434.101 306.255 435.114 306.255L437.18 306.466C438.868 306.466 439.992 305.524 440.555 303.64C441.061 302.037 441.314 299.169 441.314 295.035V280.272L428.027 260.659C426.228 258.044 424.962 256.399 424.231 255.724C423.05 254.712 421.827 254.205 420.562 254.205C419.324 254.205 418.706 253.699 418.706 252.687C418.706 252.293 418.931 251.956 419.381 251.675C419.83 251.365 420.547 251.211 421.532 251.211C422.516 251.211 423.542 251.323 424.611 251.548C425.679 251.773 426.832 251.886 428.07 251.886L434.945 251.211C436.773 251.211 437.686 251.675 437.686 252.603C437.686 253.531 436.899 253.994 435.324 253.994C433.778 253.994 433.005 254.501 433.005 255.513C433.005 256.075 433.511 257.144 434.523 258.719L446.165 276.35L455.107 262.177C456.934 259.309 457.919 257.58 458.059 256.989C458.2 256.399 458.27 255.991 458.27 255.766C458.27 254.585 457.384 253.994 455.613 253.994C453.869 253.994 452.998 253.531 452.998 252.603C452.998 251.675 453.912 251.211 455.739 251.211C456.724 251.211 457.694 251.323 458.65 251.548C459.606 251.773 460.59 251.886 461.602 251.886C462.615 251.886 463.557 251.773 464.428 251.548C465.3 251.323 466.228 251.211 467.212 251.211C469.181 251.211 470.165 251.703 470.165 252.687C470.165 253.699 469.504 254.205 468.182 254.205C466.833 254.205 465.75 254.557 464.935 255.26C463.641 256.357 461.996 258.451 460 261.545L447.936 279.682V295.035C447.936 299.281 448.119 302.023 448.484 303.26C448.878 304.469 449.342 305.313 449.876 305.791C450.439 306.241 451.17 306.466 452.07 306.466L454.094 306.255C455.107 306.255 455.613 306.663 455.613 307.478C455.613 308.519 454.713 309.039 452.913 309.039C451.985 309.039 451.001 308.955 449.961 308.786C446.586 308.252 443.69 308.153 441.272 308.491C438.882 308.856 437.237 309.039 436.337 309.039ZM506.374 252.518L508.145 252.265C508.932 252.265 509.368 252.912 509.453 254.205C509.537 255.471 509.649 256.511 509.79 257.327C509.931 258.142 510.071 258.873 510.212 259.52C510.352 260.167 510.465 260.715 510.549 261.165C510.662 261.615 510.718 261.995 510.718 262.304C510.718 262.585 510.549 262.866 510.212 263.147C509.903 263.401 509.565 263.527 509.2 263.527C508.553 263.527 507.92 262.838 507.301 261.46C506.12 258.845 505.136 257.158 504.349 256.399C502.521 254.768 499.836 253.952 496.293 253.952C491.344 253.952 488.025 255.429 486.338 258.381C485.804 259.337 485.537 260.504 485.537 261.882C485.537 263.26 485.86 264.553 486.507 265.763C487.182 266.972 488.194 268.195 489.544 269.432C490.922 270.641 492.665 271.949 494.774 273.355C496.883 274.761 499.147 276.293 501.565 277.953C503.983 279.612 505.867 281.116 507.217 282.466C508.567 283.787 509.664 285.109 510.507 286.431C512.11 288.933 512.911 291.366 512.911 293.728C512.911 296.09 512.574 298.199 511.899 300.055C511.224 301.882 510.128 303.485 508.609 304.863C505.319 307.928 500.454 309.461 494.015 309.461C490.753 309.461 487.154 308.744 483.217 307.31C482.317 307 481.755 306.649 481.53 306.255C481.277 305.777 481.052 304.877 480.855 303.556C480.658 302.234 480.419 301.039 480.138 299.97C479.885 298.902 479.646 297.946 479.421 297.102L478.83 294.909C478.662 294.262 478.577 293.728 478.577 293.306C478.577 292.294 478.957 291.787 479.716 291.787C480.728 291.787 481.459 292.561 481.909 294.107C482.697 296.863 483.4 298.649 484.018 299.464C486.408 302.614 489.178 304.666 492.328 305.622C493.256 305.904 494.493 306.044 496.04 306.044C497.614 306.044 499.147 305.819 500.637 305.369C502.156 304.891 503.407 304.259 504.391 303.471C506.247 301.953 507.175 300.111 507.175 297.946C507.175 295.752 506.472 293.784 505.066 292.041C503.688 290.269 502.015 288.736 500.047 287.443C498.106 286.121 496.644 285.151 495.66 284.533C494.704 283.914 493.804 283.323 492.96 282.761C485.846 278.009 481.642 273.285 480.349 268.589C480.011 267.351 479.843 265.931 479.843 264.329C479.843 262.726 480.236 261.081 481.024 259.393C481.811 257.706 482.936 256.23 484.398 254.965C487.632 252.209 491.807 250.831 496.925 250.831C499.259 250.831 501.129 251.07 502.535 251.548C504.504 252.195 505.783 252.518 506.374 252.518Z" fill="white"/>
<path d="M259.035 44.7461L224.447 120.764H236.022L245.213 99.945H272.652L281.98 120.764H293.554L259.035 44.7461Z" fill="#FBFDFF"/>
<path d="M259.035 44.7461L224.447 120.764H236.022L245.213 99.945H272.652L281.98 120.764H293.554L259.035 44.7461Z" fill="white"/>
<path d="M259.035 44.7461L224.447 120.764H236.022L245.213 99.945H272.652L281.98 120.764H293.554L259.035 44.7461Z" stroke="white" stroke-width="1.15179"/>
<path d="M248.635 94.8233H268.165L258.503 70.085L248.635 94.8233Z" fill="#1F1B18"/>
<path d="M258.809 28.1148L217.35 120.353L108.117 37.5716V0.978027L258.809 28.1148Z" fill="white"/>
<path d="M258.877 28.1148L300.267 120.353L409.568 37.5716V0.978027L258.877 28.1148Z" fill="white"/>
</svg>
