<svg width="302" height="122" viewBox="0 0 302 122" fill="none" xmlns="http://www.w3.org/2000/svg">
<path d="M151.035 44.7461L116.447 120.764H128.022L137.213 99.945H164.652L173.98 120.764H185.554L151.035 44.7461Z" fill="#FBFDFF"/>
<path d="M151.035 44.7461L116.447 120.764H128.022L137.213 99.945H164.652L173.98 120.764H185.554L151.035 44.7461Z" fill="white"/>
<path d="M151.035 44.7461L116.447 120.764H128.022L137.213 99.945H164.652L173.98 120.764H185.554L151.035 44.7461Z" stroke="white" stroke-width="1.15179"/>
<path d="M140.635 94.8233H160.165L150.503 70.085L140.635 94.8233Z" fill="#1F1B18"/>
<path d="M150.809 28.1148L109.35 120.353L0.117188 37.5716V0.978027L150.809 28.1148Z" fill="white"/>
<path d="M150.877 28.1148L192.267 120.353L301.568 37.5716V0.978027L150.877 28.1148Z" fill="white"/>
</svg>
