<svg width="212" height="52" viewBox="0 0 212 52" fill="none" xmlns="http://www.w3.org/2000/svg">
<path d="M3.87898 9.00018V6.94318H0.151978V5.97618L4.07198 0.410177H4.93298V5.97618H6.09298V6.94318H4.93398V9.00018H3.87898ZM3.87898 5.97718V2.10018L1.18898 5.97718H3.87898ZM7.32998 7.01418L8.34398 6.92018C8.38756 7.31109 8.56077 7.67616 8.83598 7.95718C9.09503 8.17801 9.42785 8.293 9.76798 8.27918C10.0675 8.28577 10.363 8.20853 10.621 8.05618C10.8649 7.90766 11.0704 7.70384 11.221 7.46118C11.4027 7.15006 11.5352 6.81275 11.614 6.46118C11.7193 6.03961 11.7723 5.6067 11.772 5.17218C11.772 5.12551 11.77 5.05518 11.766 4.96118C11.5505 5.30124 11.2535 5.58208 10.902 5.77818C10.541 5.98588 10.1314 6.0939 9.71498 6.09118C9.37746 6.09616 9.04268 6.02989 8.73252 5.89669C8.42235 5.76349 8.14378 5.56636 7.91498 5.31818C7.66396 5.04351 7.46957 4.72204 7.34294 4.37217C7.2163 4.02229 7.15991 3.65087 7.17698 3.27918C7.16005 2.89553 7.21948 2.51234 7.35184 2.15184C7.48419 1.79135 7.68682 1.46073 7.94798 1.17918C8.196 0.918199 8.496 0.712154 8.82862 0.574353C9.16124 0.436553 9.51906 0.370062 9.87898 0.379177C10.423 0.374897 10.9561 0.53183 11.411 0.830177C11.8811 1.14282 12.2466 1.58943 12.46 2.11218C12.7357 2.88684 12.858 3.70778 12.82 4.52918C12.8507 5.41711 12.73 6.30379 12.463 7.15118C12.2676 7.74288 11.8969 8.26116 11.4 8.63718C10.9175 8.98078 10.3371 9.15964 9.74498 9.14718C9.14604 9.17186 8.55945 8.97217 8.09998 8.58718C7.6549 8.17814 7.38002 7.6166 7.32998 7.01418ZM11.648 3.22318C11.676 2.69891 11.5033 2.18365 11.165 1.78218C11.0216 1.61344 10.843 1.47819 10.6417 1.38593C10.4404 1.29367 10.2214 1.24665 9.99998 1.24818C9.76633 1.24898 9.53567 1.30076 9.32409 1.3999C9.11251 1.49904 8.92512 1.64315 8.77498 1.82218C8.4172 2.23318 8.23073 2.76577 8.25398 3.31018C8.24454 3.55445 8.2839 3.79815 8.36975 4.02703C8.4556 4.2559 8.58622 4.46537 8.75398 4.64318C8.91042 4.80945 9.10002 4.94102 9.31052 5.02939C9.52102 5.11776 9.74773 5.16095 9.97598 5.15618C10.2011 5.16212 10.4249 5.11936 10.632 5.03082C10.8392 4.94228 11.0247 4.81005 11.176 4.64318C11.5094 4.24777 11.6783 3.73949 11.648 3.22318ZM13.916 1.53618V0.521177H19.477V1.34118C18.8431 2.0459 18.2972 2.82493 17.851 3.66118C17.3237 4.60272 16.906 5.60156 16.606 6.63818C16.3855 7.40849 16.2494 8.20046 16.2 9.00018H15.117C15.1533 8.17093 15.2876 7.34888 15.517 6.55118C15.7729 5.58898 16.1397 4.65976 16.61 3.78218C17.0275 2.97779 17.5358 2.22387 18.125 1.53518L13.916 1.53618ZM24.3 9.00018V0.410177H30.511V1.42418H25.441V4.05518H30.193V5.06318H25.441V7.98718H30.714V9.00018H24.3ZM33.874 9.00018L31.512 2.77718H32.625L33.961 6.50018C34.1056 6.90018 34.239 7.31818 34.361 7.75418C34.455 7.42618 34.586 7.03151 34.754 6.57018L36.137 2.77018H37.221L34.863 9.00018H33.874ZM42.41 7.00018L43.5 7.13518C43.3594 7.72341 43.0226 8.24616 42.545 8.61718C42.0261 8.98533 41.3996 9.1707 40.764 9.14418C40.3642 9.16357 39.9648 9.09842 39.592 8.95299C39.2191 8.80756 38.8811 8.58511 38.6 8.30018C38.0342 7.64961 37.7469 6.8027 37.8 5.94218C37.7429 5.05443 38.0322 4.17912 38.607 3.50018C38.8745 3.21372 39.2005 2.98807 39.5628 2.83849C39.9251 2.68891 40.3153 2.61889 40.707 2.63318C41.0879 2.62051 41.4671 2.68985 41.8189 2.8365C42.1707 2.98315 42.4868 3.20369 42.746 3.48318C43.3082 4.14832 43.5916 5.00498 43.537 5.87418C43.537 5.93684 43.535 6.03051 43.531 6.15518H38.889C38.8868 6.7313 39.0928 7.28881 39.469 7.72518C39.6352 7.90233 39.8368 8.04244 40.0608 8.13635C40.2848 8.23026 40.5261 8.27586 40.769 8.27018C41.123 8.2815 41.4708 8.17609 41.759 7.97018C42.0666 7.7179 42.2931 7.38049 42.41 7.00018ZM38.947 5.29118H42.422C42.4102 4.86721 42.2708 4.45666 42.022 4.11318C41.8668 3.91695 41.6681 3.75945 41.4416 3.65307C41.2152 3.5467 40.9671 3.49436 40.717 3.50018C40.4916 3.49575 40.2676 3.53687 40.0585 3.62107C39.8494 3.70527 39.6594 3.83081 39.5 3.99018C39.1573 4.33802 38.9596 4.80307 38.947 5.29118ZM44.813 9.00018V2.77718H45.762V3.72018C45.9201 3.38418 46.149 3.08637 46.433 2.84718C46.6314 2.70856 46.8679 2.63485 47.11 2.63618C47.4961 2.6455 47.8717 2.76333 48.194 2.97618L47.831 3.95518C47.5988 3.81015 47.3316 3.73099 47.058 3.72618C46.8335 3.72384 46.6148 3.7971 46.437 3.93418C46.2482 4.08007 46.1106 4.2821 46.044 4.51118C45.9233 4.90988 45.8639 5.32463 45.868 5.74118V9.00018H44.813ZM48.627 9.51618L49.652 9.66818C49.661 9.80166 49.6973 9.93187 49.7588 10.0507C49.8202 10.1696 49.9053 10.2746 50.009 10.3592C50.3252 10.5703 50.7013 10.6731 51.081 10.6522C51.4795 10.6769 51.8756 10.5743 52.212 10.3592C52.482 10.1573 52.6727 9.86712 52.751 9.53918C52.8218 9.09155 52.8473 8.63792 52.827 8.18518C52.6209 8.44312 52.3587 8.65062 52.0602 8.79186C51.7618 8.9331 51.4351 9.00435 51.105 9.00018C50.7236 9.01886 50.3434 8.9443 49.9974 8.78294C49.6513 8.62159 49.3498 8.37831 49.119 8.07418C48.6436 7.43307 48.3971 6.651 48.419 5.85318C48.413 5.28894 48.5225 4.72945 48.741 4.20918C48.9312 3.73781 49.2565 3.33319 49.676 3.04618C50.1029 2.7674 50.6042 2.62446 51.114 2.63618C51.4655 2.63112 51.8132 2.7092 52.1288 2.86404C52.4443 3.01887 52.7189 3.2461 52.93 3.52718V2.77718H53.9V8.15618C53.9427 8.85617 53.8405 9.55744 53.6 10.2162C53.3969 10.6266 53.0688 10.962 52.663 11.1742C52.1747 11.4228 51.6316 11.5439 51.084 11.5262C50.4459 11.5569 49.8148 11.3816 49.284 11.0262C49.0551 10.8511 48.8746 10.6206 48.7596 10.3564C48.6447 10.0922 48.599 9.80297 48.627 9.51618ZM49.5 5.77718C49.4462 6.41151 49.6184 7.04443 49.986 7.56418C50.1337 7.74374 50.32 7.88764 50.5311 7.98513C50.7421 8.08261 50.9725 8.13117 51.205 8.12718C51.437 8.13045 51.6669 8.08188 51.8778 7.985C52.0887 7.88811 52.2753 7.74537 52.424 7.56718C52.7934 7.06023 52.968 6.43728 52.916 5.81218C52.9613 5.19538 52.7812 4.5831 52.409 4.08918C52.2615 3.90737 52.0752 3.7609 51.8638 3.66053C51.6523 3.56016 51.4211 3.50845 51.187 3.50918C50.9568 3.50741 50.7292 3.55789 50.5214 3.65679C50.3135 3.75569 50.1308 3.90045 49.987 4.08018C49.6267 4.5693 49.4539 5.17145 49.5 5.77718ZM55.482 9.00018V2.77718H56.431V3.72018C56.5891 3.38418 56.818 3.08637 57.102 2.84718C57.3004 2.70856 57.5369 2.63485 57.779 2.63618C58.1651 2.6455 58.5407 2.76333 58.863 2.97618L58.5 3.95518C58.2678 3.81015 58.0006 3.73099 57.727 3.72618C57.5025 3.72384 57.2838 3.7971 57.106 3.93418C56.9172 4.08007 56.7796 4.2821 56.713 4.51118C56.5923 4.90988 56.5329 5.32463 56.537 5.74118V9.00018H55.482ZM63.75 7.00018L64.84 7.13518C64.6994 7.72341 64.3626 8.24616 63.885 8.61718C63.3646 8.98512 62.7366 9.16947 62.1 9.14118C61.7008 9.16067 61.3019 9.09586 60.9294 8.95096C60.5569 8.80606 60.2191 8.58432 59.938 8.30018C59.3722 7.64961 59.0849 6.8027 59.138 5.94218C59.0815 5.05416 59.3715 4.17881 59.947 3.50018C60.2145 3.21372 60.5405 2.98807 60.9028 2.83849C61.2651 2.68891 61.6553 2.61889 62.047 2.63318C62.4279 2.62051 62.8071 2.68985 63.1589 2.8365C63.5107 2.98315 63.8268 3.20369 64.086 3.48318C64.6482 4.14832 64.9316 5.00498 64.877 5.87418C64.877 5.93684 64.875 6.03051 64.871 6.15518H60.229C60.2268 6.7313 60.4328 7.28881 60.809 7.72518C60.9752 7.90233 61.1768 8.04244 61.4008 8.13635C61.6248 8.23026 61.8661 8.27586 62.109 8.27018C62.463 8.2815 62.8108 8.17609 63.099 7.97018C63.4066 7.7179 63.6331 7.38049 63.75 7.00018ZM60.287 5.29118H63.762C63.7502 4.86721 63.6108 4.45666 63.362 4.11318C63.2068 3.91695 63.0081 3.75945 62.7816 3.65307C62.5552 3.5467 62.3071 3.49436 62.057 3.50018C61.831 3.49455 61.6063 3.53471 61.3963 3.61823C61.1863 3.70176 60.9953 3.82692 60.835 3.98618C60.4932 4.3358 60.2973 4.80237 60.287 5.29118ZM70.424 7.00018L71.514 7.13518C71.3734 7.72341 71.0366 8.24616 70.559 8.61718C70.0401 8.98533 69.4136 9.1707 68.778 9.14418C68.3779 9.16386 67.9781 9.09885 67.6049 8.95341C67.2316 8.80797 66.8933 8.58537 66.612 8.30018C66.0462 7.64961 65.7589 6.8027 65.812 5.94218C65.7555 5.05416 66.0455 4.17881 66.621 3.50018C66.8885 3.21372 67.2145 2.98807 67.5768 2.83849C67.9391 2.68891 68.3293 2.61889 68.721 2.63318C69.1019 2.62051 69.4811 2.68985 69.8329 2.8365C70.1847 2.98315 70.5008 3.20369 70.76 3.48318C71.3222 4.14832 71.6056 5.00498 71.551 5.87418C71.551 5.93684 71.549 6.03051 71.545 6.15518H66.9C66.8978 6.7313 67.1038 7.28881 67.48 7.72518C67.6462 7.90233 67.8478 8.04244 68.0718 8.13635C68.2958 8.23026 68.5371 8.27586 68.78 8.27018C69.134 8.2815 69.4818 8.17609 69.77 7.97018C70.0787 7.71831 70.3063 7.38086 70.424 7.00018ZM66.961 5.29118H70.436C70.4242 4.86721 70.2848 4.45666 70.036 4.11318C69.8807 3.91681 69.6818 3.75923 69.4552 3.65285C69.2285 3.54646 68.9803 3.4942 68.73 3.50018C68.504 3.49455 68.2793 3.53471 68.0693 3.61823C67.8593 3.70176 67.6683 3.82692 67.508 3.98618C67.1666 4.33596 66.971 4.80251 66.961 5.29118ZM72.838 9.00018V2.77718H73.787V3.66218C73.9986 3.33311 74.2928 3.06528 74.6402 2.88542C74.9876 2.70557 75.3761 2.61997 75.767 2.63718C76.1217 2.63261 76.4736 2.70067 76.801 2.83718C77.0807 2.9454 77.325 3.12882 77.507 3.36718C77.6696 3.60103 77.7814 3.86642 77.835 4.14618C77.8837 4.48555 77.9034 4.82846 77.894 5.17118V9.00018H76.84V5.21518C76.8546 4.88916 76.813 4.56306 76.717 4.25118C76.6335 4.03647 76.4793 3.8566 76.28 3.74118C76.0574 3.61082 75.8029 3.54503 75.545 3.55118C75.1174 3.54331 74.7024 3.69603 74.382 3.97918C74.193 4.20096 74.0519 4.45949 73.9678 4.73848C73.8836 5.01747 73.8581 5.31086 73.893 5.60018V9.00018H72.838ZM83 9.00018V0.410177H86.809C87.4 0.384705 87.9909 0.462885 88.555 0.641177C88.9564 0.797914 89.293 1.08586 89.51 1.45818C89.7478 1.84792 89.8715 2.2966 89.867 2.75318C89.8815 3.32496 89.6686 3.87915 89.275 4.29418C88.7748 4.76161 88.1297 5.0439 87.447 5.09418C87.6942 5.20466 87.9251 5.34868 88.133 5.52218C88.4941 5.86208 88.8109 6.2461 89.076 6.66518L90.568 9.00018H89.138L88 7.21318C87.6666 6.69784 87.3933 6.30318 87.18 6.02918C87.0192 5.80851 86.8245 5.61477 86.603 5.45518C86.444 5.35041 86.2685 5.27301 86.084 5.22618C85.8747 5.1929 85.6628 5.17918 85.451 5.18518H84.135V9.00018H83ZM84.137 4.20018H86.58C86.9928 4.216 87.4052 4.1619 87.8 4.04018C88.0738 3.94727 88.3089 3.76569 88.468 3.52418C88.6181 3.29511 88.6977 3.02704 88.697 2.75318C88.7017 2.5642 88.6645 2.37651 88.5881 2.20361C88.5117 2.03071 88.3979 1.87688 88.255 1.75318C87.8512 1.45718 87.3538 1.31756 86.855 1.36018H84.135L84.137 4.20018ZM95.549 9.00018V8.21518C95.3685 8.51127 95.1118 8.75343 94.8057 8.91633C94.4996 9.07923 94.1554 9.15689 93.809 9.14118C93.3218 9.14391 92.8451 9.00076 92.44 8.73018C92.0159 8.44714 91.6806 8.04982 91.473 7.58418C91.2359 7.05289 91.1187 6.47587 91.13 5.89418C91.1222 5.31593 91.2279 4.74177 91.441 4.20418C91.6233 3.7291 91.949 3.3226 92.373 3.04118C92.7863 2.77349 93.2696 2.6343 93.762 2.64118C94.1099 2.63508 94.4538 2.71657 94.762 2.87818C95.0442 3.02718 95.2887 3.23853 95.477 3.49618V0.410177H96.526V9.00018H95.549ZM92.215 5.89518C92.1653 6.53121 92.3424 7.16429 92.715 7.68218C92.8554 7.86446 93.0354 8.01247 93.2413 8.11502C93.4473 8.21758 93.6739 8.272 93.904 8.27418C94.1298 8.27507 94.3529 8.22469 94.5565 8.12681C94.76 8.02894 94.9387 7.88614 95.079 7.70918C95.4389 7.20901 95.61 6.59751 95.562 5.98318C95.6158 5.32043 95.4423 4.65912 95.07 4.10818C94.9282 3.92093 94.7448 3.76924 94.5342 3.66511C94.3237 3.56097 94.0919 3.50724 93.857 3.50818C93.63 3.506 93.4056 3.55674 93.2017 3.65637C92.9977 3.75601 92.8198 3.9018 92.682 4.08218C92.3254 4.61616 92.1608 5.25539 92.215 5.89518ZM98.484 9.00018V7.80018H99.684V9.00018H98.484ZM105.005 9.00018V0.410177H108.814C109.405 0.384705 109.996 0.462885 110.56 0.641177C110.961 0.797914 111.298 1.08586 111.515 1.45818C111.753 1.84792 111.877 2.2966 111.872 2.75318C111.886 3.32496 111.674 3.87915 111.28 4.29418C110.78 4.76161 110.135 5.0439 109.452 5.09418C109.699 5.20466 109.93 5.34868 110.138 5.52218C110.499 5.86208 110.816 6.2461 111.081 6.66518L112.576 9.00018H111.146L110.01 7.21318C109.677 6.69784 109.403 6.30318 109.19 6.02918C109.029 5.80851 108.834 5.61477 108.613 5.45518C108.454 5.35041 108.279 5.27301 108.094 5.22618C107.885 5.1929 107.673 5.17918 107.461 5.18518H106.143V9.00018H105.005ZM106.142 4.20018H108.585C108.996 4.21543 109.407 4.16134 109.8 4.04018C110.074 3.94727 110.309 3.76569 110.468 3.52418C110.618 3.29511 110.698 3.02704 110.697 2.75318C110.702 2.5642 110.665 2.37651 110.588 2.20361C110.512 2.03071 110.398 1.87688 110.255 1.75318C109.851 1.45718 109.354 1.31756 108.855 1.36018H106.136L106.142 4.20018ZM113.126 5.88818C113.087 5.41685 113.154 4.94283 113.32 4.50008C113.486 4.05733 113.748 3.6568 114.087 3.32718C114.632 2.86331 115.329 2.61721 116.044 2.63618C116.433 2.62208 116.821 2.68963 117.183 2.83447C117.545 2.97931 117.872 3.19824 118.144 3.47718C118.426 3.79148 118.644 4.15857 118.783 4.55728C118.923 4.95598 118.982 5.37841 118.958 5.80018C118.989 6.44977 118.866 7.09745 118.598 7.69018C118.363 8.14396 117.997 8.51672 117.548 8.76018C117.089 9.01386 116.572 9.14507 116.048 9.14118C115.656 9.15689 115.266 9.09015 114.901 8.94528C114.537 8.8004 114.207 8.58063 113.933 8.30018C113.358 7.63379 113.068 6.76757 113.127 5.88918L113.126 5.88818ZM114.21 5.88818C114.161 6.52825 114.346 7.16431 114.731 7.67818C114.892 7.86901 115.093 8.02149 115.32 8.12444C115.547 8.2274 115.795 8.27822 116.044 8.27318C116.293 8.27742 116.54 8.22572 116.766 8.12187C116.992 8.01802 117.192 7.86468 117.351 7.67318C117.738 7.14821 117.923 6.50139 117.872 5.85118C117.917 5.2237 117.731 4.60143 117.348 4.10218C117.189 3.91284 116.99 3.76124 116.765 3.65833C116.54 3.55543 116.295 3.5038 116.048 3.50718C115.799 3.50213 115.552 3.55266 115.325 3.65506C115.098 3.75747 114.897 3.90919 114.736 4.09918C114.349 4.61204 114.162 5.24849 114.211 5.88918L114.21 5.88818ZM119.771 7.14218L120.814 6.97818C120.848 7.34923 121.023 7.6931 121.303 7.93918C121.626 8.17944 122.023 8.29775 122.425 8.27318C122.808 8.30196 123.19 8.19584 123.503 7.97318C123.611 7.89197 123.698 7.78722 123.759 7.66694C123.82 7.54666 123.853 7.41403 123.855 7.27918C123.857 7.16642 123.83 7.05509 123.775 6.95641C123.72 6.85774 123.641 6.77522 123.544 6.71718C123.201 6.55386 122.839 6.43394 122.466 6.36018C121.916 6.2375 121.378 6.06788 120.858 5.85318C120.578 5.72717 120.341 5.52122 120.178 5.26118C120.024 5.01006 119.944 4.72068 119.947 4.42618C119.945 4.15729 120.01 3.89213 120.137 3.65518C120.262 3.42121 120.44 3.21955 120.656 3.06618C120.86 2.926 121.087 2.82184 121.327 2.75818C121.623 2.67239 121.93 2.62995 122.238 2.63218C122.676 2.62369 123.112 2.6952 123.524 2.84318C123.846 2.95024 124.13 3.14863 124.341 3.41418C124.535 3.70281 124.66 4.03294 124.704 4.37818L123.673 4.51918C123.641 4.22553 123.495 3.95624 123.266 3.76918C122.989 3.57328 122.653 3.47802 122.314 3.49918C121.952 3.4678 121.589 3.5518 121.277 3.73918C121.184 3.80133 121.107 3.88488 121.053 3.98284C120.999 4.0808 120.969 4.19031 120.966 4.30218C120.965 4.43637 121.011 4.56673 121.095 4.67118C121.201 4.79884 121.339 4.89586 121.495 4.95218C121.6 4.99151 121.911 5.08151 122.427 5.22218C122.957 5.35213 123.479 5.51545 123.989 5.71118C124.268 5.8259 124.509 6.01812 124.683 6.26518C124.858 6.53199 124.946 6.84636 124.935 7.16518C124.934 7.51954 124.827 7.86545 124.627 8.15818C124.408 8.48032 124.099 8.73103 123.739 8.87918C123.324 9.05469 122.877 9.14155 122.427 9.13418C121.772 9.17983 121.121 9.00371 120.578 8.63418C120.132 8.25534 119.844 7.72249 119.771 7.14218ZM130.453 7.00018L131.543 7.13518C131.402 7.72341 131.066 8.24616 130.588 8.61718C130.069 8.98533 129.443 9.1707 128.807 9.14418C128.407 9.16371 128.007 9.09864 127.634 8.9532C127.261 8.80776 126.923 8.58524 126.642 8.30018C126.076 7.64961 125.789 6.8027 125.842 5.94218C125.785 5.05429 126.075 4.17897 126.65 3.50018C126.918 3.21372 127.243 2.98807 127.606 2.83849C127.968 2.68891 128.358 2.61889 128.75 2.63318C129.131 2.62051 129.51 2.68985 129.862 2.8365C130.214 2.98315 130.53 3.20369 130.789 3.48318C131.351 4.14832 131.635 5.00498 131.58 5.87418C131.58 5.93684 131.578 6.03051 131.574 6.15518H126.933C126.931 6.7313 127.137 7.28881 127.513 7.72518C127.679 7.90233 127.881 8.04244 128.105 8.13635C128.329 8.23026 128.57 8.27586 128.813 8.27018C129.167 8.2815 129.515 8.17609 129.803 7.97018C130.11 7.71776 130.336 7.38037 130.453 7.00018ZM126.99 5.29118H130.465C130.453 4.86721 130.314 4.45666 130.065 4.11318C129.91 3.91695 129.711 3.75945 129.485 3.65307C129.258 3.5467 129.01 3.49436 128.76 3.50018C128.534 3.49455 128.309 3.53471 128.099 3.61823C127.889 3.70176 127.698 3.82692 127.538 3.98618C127.196 4.3358 127 4.80237 126.99 5.29118ZM134.6 9.00018L132.233 2.77718H133.346L134.678 6.50018C134.823 6.90018 134.956 7.31818 135.078 7.75418C135.172 7.42618 135.303 7.03151 135.471 6.57018L136.854 2.77018H137.938L135.58 9.00018H134.6ZM138.877 1.62318V0.410177H139.932V1.62318H138.877ZM138.877 9.00018V2.77718H139.932V9.00018H138.877ZM141.514 9.00018V0.410177H142.569V9.00018H141.514ZM144.18 9.00018V0.410177H145.235V9.00018H144.18ZM151.129 7.00018L152.219 7.13518C152.078 7.72341 151.742 8.24616 151.264 8.61718C150.745 8.98533 150.119 9.1707 149.483 9.14418C149.082 9.16443 148.682 9.0997 148.308 8.95424C147.934 8.80879 147.595 8.58589 147.313 8.30018C146.747 7.64961 146.46 6.8027 146.513 5.94218C146.458 5.05585 146.748 4.18254 147.322 3.50518C147.59 3.21872 147.915 2.99307 148.278 2.84349C148.64 2.69391 149.03 2.62389 149.422 2.63818C149.803 2.62551 150.182 2.69485 150.534 2.8415C150.886 2.98815 151.202 3.20869 151.461 3.48818C152.023 4.15332 152.307 5.00998 152.252 5.87918C152.252 5.94184 152.25 6.03551 152.246 6.16018H147.6C147.598 6.7363 147.804 7.29381 148.18 7.73018C148.346 7.90733 148.548 8.04744 148.772 8.14135C148.996 8.23526 149.237 8.28086 149.48 8.27518C149.834 8.2865 150.182 8.18109 150.47 7.97518C150.78 7.72211 151.008 7.3828 151.125 7.00018H151.129ZM147.666 5.29518H151.141C151.129 4.87121 150.99 4.46066 150.741 4.11718C150.585 3.92141 150.386 3.7645 150.159 3.65882C149.932 3.55314 149.684 3.50157 149.434 3.50818C149.208 3.50255 148.983 3.54271 148.773 3.62623C148.563 3.70976 148.372 3.83492 148.212 3.99418C147.871 4.34148 147.675 4.80488 147.662 5.29118L147.666 5.29518ZM153.814 9.00018V7.80018H155.014V9.00018C155.03 9.3708 154.95 9.73927 154.78 10.0692C154.607 10.3548 154.346 10.576 154.036 10.6992L153.743 10.2482C153.951 10.1637 154.124 10.0119 154.235 9.81718C154.356 9.56209 154.417 9.2825 154.412 9.00018H153.814ZM166.47 5.98818L167.607 6.27518C167.429 7.1108 166.976 7.86274 166.321 8.41118C165.672 8.91141 164.869 9.17115 164.05 9.14618C163.258 9.18129 162.473 8.98496 161.791 8.58118C161.193 8.18258 160.731 7.61115 160.467 6.94318C160.162 6.21506 160.007 5.43264 160.013 4.64318C159.994 3.83303 160.17 3.0302 160.526 2.30218C160.846 1.65891 161.355 1.12911 161.985 0.784178C162.624 0.436328 163.341 0.257664 164.068 0.265178C164.843 0.239083 165.605 0.469687 166.236 0.921177C166.839 1.38291 167.27 2.03259 167.461 2.76718L166.342 3.03118C166.202 2.4971 165.899 2.01996 165.475 1.66618C165.059 1.36926 164.556 1.21874 164.045 1.23818C163.457 1.21717 162.877 1.3835 162.39 1.71318C161.949 2.02589 161.621 2.47278 161.455 2.98718C161.275 3.5184 161.184 4.07545 161.185 4.63618C161.171 5.28814 161.28 5.9369 161.504 6.54918C161.688 7.0575 162.039 7.48813 162.5 7.77018C162.94 8.03558 163.445 8.17402 163.959 8.17018C164.547 8.18691 165.121 7.99129 165.576 7.61918C166.05 7.19246 166.365 6.61746 166.47 5.98818ZM168.064 9.00018L171.364 0.410177H172.589L176.1 9.00018H174.805L173.805 6.40018H170.213L169.271 9.00018H168.064ZM170.543 5.47318H173.455L172.555 3.09418C172.282 2.37151 172.079 1.77784 171.946 1.31318C171.835 1.87138 171.68 2.42004 171.483 2.95418L170.543 5.47318ZM179.414 7.01418L180.428 6.92018C180.472 7.31109 180.645 7.67616 180.92 7.95718C181.179 8.17801 181.512 8.293 181.852 8.27918C182.152 8.28577 182.447 8.20853 182.705 8.05618C182.949 7.90766 183.154 7.70384 183.305 7.46118C183.487 7.15006 183.619 6.81275 183.698 6.46118C183.803 6.03961 183.856 5.6067 183.856 5.17218C183.856 5.12551 183.854 5.05518 183.85 4.96118C183.635 5.30124 183.338 5.58208 182.986 5.77818C182.625 5.98588 182.215 6.0939 181.799 6.09118C181.461 6.09616 181.127 6.02989 180.817 5.89669C180.506 5.76349 180.228 5.56636 179.999 5.31818C179.748 5.04351 179.554 4.72204 179.427 4.37217C179.3 4.02229 179.244 3.65087 179.261 3.27918C179.244 2.89553 179.303 2.51234 179.436 2.15184C179.568 1.79135 179.771 1.46073 180.032 1.17918C180.28 0.918199 180.58 0.712154 180.913 0.574353C181.245 0.436553 181.603 0.370062 181.963 0.379177C182.507 0.374897 183.04 0.53183 183.495 0.830177C183.968 1.14297 184.336 1.59115 184.55 2.11618C184.826 2.89084 184.948 3.71178 184.91 4.53318C184.941 5.42111 184.82 6.30779 184.553 7.15518C184.357 7.74652 183.987 8.26443 183.49 8.64018C183.008 8.98378 182.427 9.16264 181.835 9.15018C181.236 9.17511 180.649 8.97541 180.189 8.59018C179.741 8.1812 179.465 7.61837 179.414 7.01418ZM183.732 3.22318C183.76 2.69891 183.587 2.18365 183.249 1.78218C183.106 1.61389 182.927 1.47897 182.727 1.3869C182.526 1.29482 182.307 1.24782 182.086 1.24918C181.852 1.24998 181.622 1.30176 181.41 1.4009C181.199 1.50004 181.011 1.64415 180.861 1.82318C180.503 2.23418 180.317 2.76677 180.34 3.31118C180.331 3.55545 180.37 3.79915 180.456 4.02803C180.542 4.2569 180.672 4.46637 180.84 4.64418C180.996 4.81045 181.186 4.94202 181.397 5.03039C181.607 5.11876 181.834 5.16195 182.062 5.15718C182.287 5.16312 182.511 5.12036 182.718 5.03182C182.925 4.94328 183.111 4.81105 183.262 4.64418C183.595 4.24822 183.763 3.73957 183.732 3.22318ZM185.932 6.75018L187.039 6.65618C187.082 7.11553 187.284 7.54548 187.61 7.87218C187.904 8.14196 188.292 8.28775 188.691 8.27918C188.935 8.28243 189.176 8.23279 189.398 8.13369C189.621 8.0346 189.819 7.88839 189.98 7.70518C190.345 7.2843 190.534 6.73876 190.507 6.18218C190.521 5.92305 190.484 5.6637 190.397 5.41922C190.31 5.17475 190.175 4.95003 190 4.75818C189.827 4.58393 189.62 4.44761 189.391 4.35791C189.163 4.26821 188.918 4.22709 188.673 4.23718C188.351 4.2324 188.034 4.31205 187.753 4.46818C187.491 4.61119 187.27 4.81746 187.108 5.06818L186.118 4.93918L186.95 0.527178H191.221V1.53518H187.793L187.33 3.84418C187.802 3.49965 188.369 3.31119 188.953 3.30518C189.306 3.2975 189.657 3.36272 189.984 3.49675C190.311 3.63078 190.607 3.83075 190.853 4.08418C191.11 4.34791 191.312 4.66115 191.445 5.00492C191.577 5.34869 191.639 5.71586 191.626 6.08418C191.642 6.81499 191.401 7.52828 190.946 8.10018C190.68 8.44128 190.336 8.71407 189.944 8.89597C189.551 9.07788 189.121 9.16364 188.689 9.14618C187.992 9.17553 187.309 8.94134 186.776 8.49018C186.277 8.04311 185.974 7.41849 185.93 6.75018H185.932ZM198.078 2.51418L197.029 2.59618C196.973 2.26735 196.836 1.95783 196.629 1.69618C196.495 1.55075 196.332 1.43537 196.15 1.35764C195.968 1.2799 195.772 1.24157 195.574 1.24518C195.256 1.23923 194.945 1.33797 194.689 1.52618C194.333 1.79953 194.061 2.1671 193.904 2.58718C193.684 3.22538 193.582 3.89843 193.604 4.57318C193.833 4.20913 194.155 3.91212 194.536 3.71218C194.893 3.52739 195.288 3.43102 195.69 3.43118C196.028 3.42601 196.363 3.49249 196.673 3.62625C196.983 3.76 197.262 3.958 197.49 4.20718C197.74 4.47641 197.934 4.79232 198.061 5.13674C198.188 5.48117 198.246 5.84732 198.231 6.21418C198.235 6.73471 198.115 7.2487 197.882 7.71418C197.671 8.153 197.339 8.52198 196.924 8.77718C196.506 9.02636 196.027 9.15414 195.541 9.14618C195.133 9.1577 194.727 9.07639 194.354 8.90837C193.982 8.74035 193.653 8.48999 193.391 8.17618C192.751 7.23812 192.457 6.10702 192.559 4.97618C192.453 3.70029 192.776 2.4255 193.479 1.35518C193.738 1.03395 194.068 0.777679 194.443 0.606825C194.819 0.435971 195.229 0.355274 195.641 0.371178C196.246 0.346536 196.839 0.549145 197.302 0.939178C197.749 1.34843 198.025 1.91064 198.076 2.51418H198.078ZM193.771 6.21418C193.769 6.57547 193.847 6.93269 194 7.26018C194.136 7.57136 194.361 7.8354 194.647 8.01918C194.907 8.18796 195.21 8.27855 195.52 8.28018C195.739 8.28046 195.956 8.23229 196.154 8.13911C196.353 8.04593 196.528 7.91005 196.668 7.74118C197.006 7.33029 197.177 6.80742 197.148 6.27618C197.176 5.76576 197.006 5.26427 196.673 4.87618C196.522 4.70909 196.336 4.57672 196.129 4.48816C195.922 4.39961 195.698 4.35697 195.473 4.36318C195.246 4.35942 195.021 4.40311 194.812 4.49145C194.603 4.5798 194.415 4.71084 194.26 4.87618C194.093 5.05603 193.964 5.26722 193.88 5.49745C193.796 5.72767 193.759 5.97233 193.77 6.21718L193.771 6.21418ZM199.349 1.53218V0.521177H204.91V1.34118C204.276 2.0459 203.73 2.82493 203.284 3.66118C202.757 4.60272 202.339 5.60156 202.039 6.63818C201.821 7.40839 201.687 8.20002 201.639 8.99918H200.555C200.591 8.16993 200.726 7.34788 200.955 6.55018C201.211 5.58798 201.578 4.65876 202.048 3.78118C202.466 2.97679 202.974 2.22287 203.563 1.53418L199.349 1.53218ZM205.958 6.73218L207.013 6.59118C207.078 7.07616 207.294 7.52831 207.631 7.88318C207.921 8.14823 208.301 8.29148 208.694 8.28318C208.928 8.28823 209.16 8.24501 209.376 8.15623C209.593 8.06744 209.788 7.935 209.951 7.76718C210.119 7.60039 210.251 7.40112 210.339 7.18155C210.427 6.96198 210.47 6.72673 210.464 6.49018C210.471 6.26827 210.433 6.04721 210.351 5.84077C210.27 5.63432 210.146 5.4469 209.989 5.29018C209.83 5.13368 209.642 5.01112 209.434 4.92997C209.227 4.84883 209.005 4.81079 208.782 4.81818C208.53 4.82606 208.28 4.86537 208.038 4.93518L208.155 4.00918C208.211 4.01617 208.268 4.02018 208.325 4.02118C208.755 4.02659 209.177 3.90408 209.538 3.66918C209.716 3.55248 209.859 3.39061 209.954 3.20013C210.049 3.00965 210.091 2.79742 210.077 2.58518C210.082 2.40644 210.05 2.22861 209.982 2.06311C209.914 1.89761 209.813 1.7481 209.684 1.62418C209.549 1.4965 209.389 1.39705 209.215 1.33163C209.041 1.26622 208.856 1.23615 208.67 1.24318C208.291 1.23165 207.922 1.37078 207.645 1.63018C207.344 1.94653 207.158 2.35523 207.118 2.79018L206.063 2.60018C206.152 1.9655 206.464 1.38304 206.942 0.956178C207.42 0.56009 208.027 0.352707 208.647 0.373178C209.096 0.368128 209.541 0.471009 209.942 0.673178C210.316 0.855658 210.63 1.1412 210.847 1.49618C211.052 1.82917 211.16 2.21235 211.16 2.60318C211.163 2.96348 211.059 3.3165 210.86 3.61718C210.64 3.93905 210.333 4.19133 209.975 4.34418C210.444 4.43716 210.865 4.69592 211.159 5.07318C211.451 5.47498 211.599 5.96298 211.581 6.45918C211.587 6.81691 211.516 7.17178 211.375 7.50046C211.234 7.82914 211.024 8.12418 210.761 8.36618C210.484 8.62682 210.158 8.8301 209.802 8.9643C209.446 9.09851 209.067 9.161 208.687 9.14818C207.998 9.17154 207.326 8.93039 206.809 8.47418C206.311 8.02473 206.007 7.40082 205.958 6.73218ZM3.00598 27.6112V25.2562H0.667978V24.2722H3.00598V21.9342H3.99998V24.2722H6.33998V25.2562H3.99998V27.6112H3.00598ZM10.887 29.0002V26.9432H7.15998V25.9762L11.08 20.4102H11.941V25.9762H13.1V26.9432H11.94V29.0002H10.887ZM10.887 25.9772V22.1002L8.19998 25.9772H10.887ZM17.561 29.0002V26.9432H13.834V25.9762L17.754 20.4102H18.615V25.9762H19.775V26.9432H18.615V29.0002H17.561ZM17.561 25.9772V22.1002L14.872 25.9732L17.561 25.9772ZM24.194 26.7332L25.249 26.5922C25.3138 27.0772 25.5301 27.5293 25.867 27.8842C26.1567 28.1492 26.5374 28.2925 26.93 28.2842C27.1637 28.2892 27.396 28.246 27.6123 28.1572C27.8286 28.0684 28.0242 27.936 28.187 27.7682C28.3548 27.6014 28.4869 27.4021 28.5751 27.1826C28.6633 26.963 28.7058 26.7277 28.7 26.4912C28.7074 26.2693 28.669 26.0482 28.5873 25.8418C28.5056 25.6353 28.3823 25.4479 28.225 25.2912C28.0664 25.1347 27.8776 25.0121 27.67 24.931C27.4625 24.8498 27.2407 24.8118 27.018 24.8192C26.7661 24.8271 26.5161 24.8664 26.274 24.9362L26.391 24.0102C26.4474 24.0172 26.5041 24.0212 26.561 24.0222C26.9913 24.0276 27.4134 23.9051 27.774 23.6702C27.9518 23.5535 28.0955 23.3916 28.1902 23.2011C28.2849 23.0107 28.3273 22.7984 28.313 22.5862C28.3181 22.4074 28.2858 22.2296 28.2181 22.0641C28.1504 21.8986 28.0489 21.7491 27.92 21.6252C27.7847 21.4975 27.6254 21.3981 27.4513 21.3326C27.2772 21.2672 27.0918 21.2371 26.906 21.2442C26.5266 21.2326 26.1581 21.3718 25.881 21.6312C25.5798 21.9475 25.3941 22.3562 25.354 22.7912L24.3 22.6002C24.3894 21.9655 24.7008 21.383 25.179 20.9562C25.657 20.5601 26.2635 20.3527 26.884 20.3732C27.3334 20.3681 27.7775 20.471 28.179 20.6732C28.5529 20.8557 28.8669 21.1412 29.084 21.4962C29.2886 21.8292 29.3969 22.2123 29.397 22.6032C29.4 22.9635 29.2955 23.3165 29.097 23.6172C28.8775 23.939 28.5703 24.1913 28.212 24.3442C28.6814 24.4372 29.1016 24.6959 29.396 25.0732C29.6877 25.475 29.8363 25.963 29.818 26.4592C29.8244 26.8174 29.7549 27.173 29.6139 27.5024C29.4729 27.8318 29.2636 28.1275 29 28.3702C28.7229 28.6308 28.397 28.8341 28.0411 28.9683C27.6851 29.1025 27.3062 29.165 26.926 29.1522C26.2369 29.1755 25.565 28.9344 25.048 28.4782C24.5484 28.0283 24.2421 27.4027 24.193 26.7322L24.194 26.7332ZM34.242 29.0002V26.9432H30.516V25.9762L34.436 20.4102H35.3V25.9762H36.46V26.9432H35.3V29.0002H34.242ZM34.242 25.9772V22.1002L31.553 25.9732L34.242 25.9772ZM37.535 26.7502L38.642 26.6562C38.6853 27.1155 38.8872 27.5455 39.213 27.8722C39.5075 28.142 39.8947 28.2878 40.294 28.2792C40.5376 28.2824 40.779 28.2328 41.0015 28.1337C41.224 28.0346 41.4224 27.8884 41.583 27.7052C41.9482 27.2843 42.137 26.7388 42.11 26.1822C42.1242 25.9231 42.0866 25.6637 41.9996 25.4192C41.9125 25.1747 41.7777 24.95 41.603 24.7582C41.4301 24.5839 41.2228 24.4476 40.9944 24.3579C40.7659 24.2682 40.5212 24.2271 40.276 24.2372C39.9544 24.2324 39.6372 24.3121 39.356 24.4682C39.0943 24.6112 38.8725 24.8175 38.711 25.0682L37.721 24.9392L38.553 20.5272H42.824V21.5352H39.4L38.937 23.8442C39.4085 23.4997 39.976 23.3112 40.56 23.3052C40.9132 23.2975 41.2642 23.3627 41.5911 23.4967C41.918 23.6308 42.2138 23.8307 42.46 24.0842C42.7174 24.3479 42.9187 24.6611 43.0515 25.0049C43.1844 25.3487 43.2461 25.7159 43.233 26.0842C43.2488 26.815 43.0082 27.5283 42.553 28.1002C42.2867 28.4406 41.9432 28.7127 41.5509 28.8941C41.1586 29.0755 40.7288 29.1608 40.297 29.1432C39.5996 29.1725 38.9166 28.9383 38.384 28.4872C37.8849 28.0413 37.5802 27.4179 37.535 26.7502ZM53.015 22.5142L51.966 22.5962C51.9103 22.2674 51.7728 21.9578 51.566 21.6962C51.432 21.5508 51.2686 21.4354 51.0868 21.3576C50.905 21.2799 50.7087 21.2416 50.511 21.2452C50.1931 21.2392 49.8822 21.338 49.626 21.5262C49.2703 21.7995 48.9983 22.1671 48.841 22.5872C48.6208 23.2254 48.5192 23.8984 48.541 24.5732C48.7704 24.2091 49.0919 23.9121 49.473 23.7122C49.8296 23.5274 50.2253 23.431 50.627 23.4312C50.9648 23.426 51.2999 23.4925 51.6102 23.6262C51.9204 23.76 52.1988 23.958 52.427 24.2072C52.6766 24.4764 52.8706 24.7923 52.9977 25.1367C53.1249 25.4812 53.1827 25.8473 53.168 26.2142C53.1716 26.7347 53.052 27.2487 52.819 27.7142C52.6081 28.153 52.2756 28.522 51.861 28.7772C51.4432 29.0264 50.9643 29.1541 50.478 29.1462C50.0696 29.1577 49.6639 29.0764 49.2915 28.9084C48.919 28.7403 48.5896 28.49 48.328 28.1762C47.6883 27.2381 47.3942 26.107 47.496 24.9762C47.3895 23.7003 47.7134 22.4255 48.416 21.3552C48.6747 21.034 49.0049 20.7777 49.3803 20.6068C49.7557 20.436 50.1658 20.3553 50.578 20.3712C51.1845 20.3333 51.7814 20.537 52.2382 20.9378C52.695 21.3386 52.9746 21.9039 53.016 22.5102L53.015 22.5142ZM48.708 26.2142C48.7072 26.5746 48.7861 26.9308 48.939 27.2572C49.0752 27.5684 49.3003 27.8324 49.586 28.0162C49.846 28.185 50.149 28.2755 50.459 28.2772C50.6782 28.2775 50.8948 28.2293 51.0933 28.1361C51.2917 28.0429 51.4671 27.907 51.607 27.7382C51.945 27.3273 52.1163 26.8044 52.087 26.2732C52.1148 25.7628 51.9447 25.2613 51.612 24.8732C51.4609 24.7061 51.2753 24.5737 51.0682 24.4852C50.861 24.3966 50.6372 24.354 50.412 24.3602C50.1852 24.3564 49.9601 24.4001 49.7513 24.4885C49.5424 24.5768 49.3542 24.7078 49.199 24.8732C49.0321 25.0534 48.9028 25.2651 48.8187 25.4958C48.7345 25.7266 48.6972 25.9718 48.709 26.2172L48.708 26.2142ZM54.286 21.5322V20.5212H59.847V21.3412C59.2131 22.0459 58.6672 22.8249 58.221 23.6612C57.6937 24.6027 57.276 25.6016 56.976 26.6382C56.7576 27.4084 56.6235 28.2 56.576 28.9992H55.488C55.5243 28.1699 55.6586 27.3479 55.888 26.5502C56.1439 25.588 56.5107 24.6588 56.981 23.7812C57.3985 22.9768 57.9068 22.2229 58.496 21.5342L54.286 21.5322ZM62.513 24.3392C62.1261 24.2154 61.7865 23.976 61.54 23.6532C61.3244 23.3403 61.2137 22.967 61.224 22.5872C61.2182 22.2917 61.2753 21.9984 61.3915 21.7267C61.5077 21.455 61.6804 21.2111 61.898 21.0112C62.407 20.5966 63.0442 20.3715 63.7007 20.3742C64.3572 20.377 64.9924 20.6074 65.498 21.0262C65.7182 21.2279 65.8931 21.474 66.0114 21.7482C66.1296 22.0224 66.1884 22.3186 66.184 22.6172C66.1924 22.9882 66.0828 23.3524 65.871 23.6572C65.6299 23.9758 65.298 24.2139 64.919 24.3402C65.3984 24.4804 65.8195 24.7723 66.119 25.1722C66.4 25.5731 66.5447 26.0537 66.532 26.5432C66.5409 26.8896 66.4767 27.2339 66.3437 27.5539C66.2107 27.8738 66.0118 28.1622 65.76 28.4002C65.1869 28.885 64.4606 29.151 63.71 29.151C62.9594 29.151 62.233 28.885 61.66 28.4002C61.4058 28.1592 61.2051 27.8675 61.0709 27.5439C60.9367 27.2204 60.872 26.8723 60.881 26.5222C60.8642 26.0214 61.0137 25.5291 61.306 25.1222C61.6059 24.7298 62.033 24.4541 62.514 24.3422L62.513 24.3392ZM62.3 22.5552C62.2928 22.74 62.324 22.9243 62.3916 23.0964C62.4593 23.2685 62.5619 23.4247 62.693 23.5552C62.8281 23.6851 62.9882 23.7863 63.1635 23.8528C63.3387 23.9194 63.5257 23.9497 63.713 23.9422C63.8969 23.949 64.0804 23.9184 64.2523 23.8525C64.4241 23.7865 64.5808 23.6864 64.713 23.5582C64.8393 23.4369 64.9392 23.2908 65.0063 23.129C65.0735 22.9672 65.1064 22.7933 65.103 22.6182C65.1072 22.4367 65.0739 22.2563 65.005 22.0884C64.9362 21.9204 64.8334 21.7685 64.703 21.6422C64.5721 21.5113 64.4159 21.4083 64.244 21.3395C64.0721 21.2708 63.8881 21.2377 63.703 21.2422C63.5189 21.2368 63.3356 21.2682 63.1639 21.3347C62.9921 21.4011 62.8354 21.5013 62.703 21.6292C62.5748 21.7468 62.4728 21.89 62.4034 22.0495C62.334 22.209 62.2987 22.3812 62.3 22.5552ZM61.96 26.5222C61.9608 26.8261 62.0341 27.1254 62.174 27.3952C62.3136 27.6732 62.5357 27.9013 62.81 28.0482C63.088 28.2014 63.4006 28.281 63.718 28.2792C63.9481 28.2869 64.1773 28.2478 64.3919 28.1643C64.6064 28.0807 64.8017 27.9545 64.966 27.7932C65.1286 27.6321 65.2562 27.4392 65.3409 27.2265C65.4255 27.0138 65.4654 26.786 65.458 26.5572C65.4651 26.3235 65.4237 26.0909 65.3364 25.8741C65.2492 25.6572 65.1179 25.4608 64.951 25.2972C64.7841 25.1325 64.5857 25.0033 64.3676 24.9174C64.1495 24.8315 63.9163 24.7906 63.682 24.7972C63.454 24.791 63.2272 24.8313 63.0154 24.9157C62.8035 25.0001 62.6111 25.1268 62.4498 25.288C62.2886 25.4493 62.1619 25.6417 62.0775 25.8535C61.9931 26.0654 61.9528 26.2922 61.959 26.5202L61.96 26.5222ZM71.054 27.0142L72.068 26.9202C72.1116 27.3111 72.2848 27.6762 72.56 27.9572C72.819 28.178 73.1518 28.293 73.492 28.2792C73.7915 28.2858 74.087 28.2085 74.345 28.0562C74.5889 27.9077 74.7944 27.7038 74.945 27.4612C75.1267 27.1501 75.2592 26.8128 75.338 26.4612C75.4433 26.0396 75.4964 25.6067 75.496 25.1722C75.496 25.1255 75.494 25.0552 75.49 24.9612C75.2745 25.3012 74.9775 25.5821 74.626 25.7782C74.265 25.9859 73.8554 26.0939 73.439 26.0912C73.1015 26.0962 72.7667 26.0299 72.4565 25.8967C72.1464 25.7635 71.8678 25.5664 71.639 25.3182C71.388 25.0435 71.1936 24.722 71.0669 24.3722C70.9403 24.0223 70.8839 23.6509 70.901 23.2792C70.884 22.8955 70.9435 22.5123 71.0758 22.1518C71.2082 21.7913 71.4108 21.4607 71.672 21.1792C71.92 20.9182 72.22 20.7122 72.5526 20.5744C72.8852 20.4366 73.2431 20.3701 73.603 20.3792C74.147 20.3749 74.6801 20.5318 75.135 20.8302C75.608 21.143 75.9757 21.5912 76.19 22.1162C76.4657 22.8908 76.588 23.7118 76.55 24.5332C76.5807 25.4211 76.46 26.3078 76.193 27.1552C75.9974 27.7465 75.6267 28.2644 75.13 28.6402C74.6475 28.9838 74.0671 29.1626 73.475 29.1502C73.1762 29.1698 72.8764 29.1301 72.593 29.0333C72.3096 28.9366 72.0482 28.7847 71.8238 28.5864C71.5994 28.3881 71.4164 28.1474 71.2855 27.878C71.1546 27.6087 71.0783 27.3161 71.061 27.0172L71.054 27.0142ZM75.372 23.2232C75.4 22.6989 75.2273 22.1836 74.889 21.7822C74.7457 21.6139 74.5674 21.479 74.3665 21.3869C74.1656 21.2948 73.947 21.2478 73.726 21.2492C73.4923 21.25 73.2617 21.3018 73.0501 21.4009C72.8385 21.5 72.6511 21.6442 72.501 21.8232C72.1432 22.2342 71.9567 22.7668 71.98 23.3112C71.9705 23.5554 72.0099 23.7991 72.0957 24.028C72.1816 24.2569 72.3122 24.4664 72.48 24.6442C72.6364 24.8104 72.826 24.942 73.0365 25.0304C73.247 25.1188 73.4737 25.162 73.702 25.1572C73.9271 25.1631 74.1509 25.1204 74.358 25.0318C74.5652 24.9433 74.7507 24.8111 74.902 24.6442C75.236 24.2487 75.4053 23.74 75.375 23.2232H75.372ZM77.572 24.7642C77.5463 23.9355 77.652 23.1079 77.885 22.3122C78.0527 21.7554 78.3761 21.2582 78.817 20.8792C79.2604 20.5342 79.8116 20.3571 80.373 20.3792C80.7941 20.3697 81.211 20.4653 81.586 20.6572C81.9369 20.8455 82.2334 21.121 82.447 21.4572C82.6923 21.8513 82.8723 22.2826 82.98 22.7342C83.1257 23.4006 83.1905 24.0822 83.173 24.7642C83.1976 25.5888 83.0927 26.4121 82.862 27.2042C82.6956 27.7616 82.3732 28.2599 81.933 28.6402C81.4889 28.989 80.9353 29.1687 80.371 29.1472C79.9985 29.1636 79.6274 29.0913 79.2883 28.9365C78.9491 28.7816 78.6515 28.5484 78.42 28.2562C77.7656 27.2152 77.4679 25.9894 77.572 24.7642ZM78.656 24.7642C78.566 25.7304 78.7388 26.703 79.156 27.5792C79.2805 27.7927 79.4588 27.9699 79.6731 28.093C79.8874 28.2161 80.1303 28.2809 80.3775 28.2809C80.6247 28.2809 80.8675 28.2161 81.0818 28.093C81.2962 27.9699 81.4745 27.7927 81.599 27.5792C82.0156 26.7039 82.1883 25.7324 82.099 24.7672C82.1896 23.7999 82.0168 22.8262 81.599 21.9492C81.4691 21.738 81.288 21.5631 81.0724 21.4407C80.8569 21.3183 80.6138 21.2524 80.366 21.2492C80.1363 21.2446 79.9092 21.2987 79.7062 21.4063C79.5033 21.5139 79.3311 21.6715 79.206 21.8642C78.7593 22.7618 78.569 23.7653 78.656 24.7642ZM84.256 26.7332L85.311 26.5922C85.3758 27.0772 85.5921 27.5293 85.929 27.8842C86.2187 28.1492 86.5994 28.2925 86.992 28.2842C87.2257 28.2892 87.458 28.246 87.6743 28.1572C87.8906 28.0684 88.0862 27.936 88.249 27.7682C88.4168 27.6014 88.5489 27.4021 88.6371 27.1826C88.7253 26.963 88.7678 26.7277 88.762 26.4912C88.7694 26.2693 88.731 26.0482 88.6493 25.8418C88.5676 25.6353 88.4443 25.4479 88.287 25.2912C88.1284 25.1347 87.9396 25.0121 87.732 24.931C87.5245 24.8498 87.3027 24.8118 87.08 24.8192C86.8281 24.8271 86.5781 24.8664 86.336 24.9362L86.453 24.0102C86.5094 24.0172 86.5661 24.0212 86.623 24.0222C87.0533 24.0276 87.4754 23.9051 87.836 23.6702C88.0138 23.5535 88.1575 23.3916 88.2522 23.2011C88.3469 23.0107 88.3893 22.7984 88.375 22.5862C88.3801 22.4074 88.3478 22.2296 88.2801 22.0641C88.2124 21.8986 88.1109 21.7491 87.982 21.6252C87.8467 21.4975 87.6874 21.3981 87.5133 21.3326C87.3392 21.2672 87.1538 21.2371 86.968 21.2442C86.5886 21.2326 86.2201 21.3718 85.943 21.6312C85.6418 21.9475 85.4561 22.3562 85.416 22.7912L84.357 22.6002C84.4464 21.9655 84.7578 21.383 85.236 20.9562C85.714 20.5601 86.3205 20.3527 86.941 20.3732C87.3904 20.3681 87.8345 20.471 88.236 20.6732C88.6099 20.8557 88.9239 21.1412 89.141 21.4962C89.3456 21.8292 89.4539 22.2123 89.454 22.6032C89.457 22.9635 89.3525 23.3165 89.154 23.6172C88.9345 23.939 88.6273 24.1913 88.269 24.3442C88.7384 24.4372 89.1586 24.6959 89.453 25.0732C89.7447 25.475 89.8933 25.963 89.875 26.4592C89.8806 26.8169 89.8105 27.1718 89.6691 27.5005C89.5278 27.8291 89.3185 28.1242 89.055 28.3662C88.7779 28.6268 88.452 28.8301 88.0961 28.9643C87.7401 29.0985 87.3612 29.161 86.981 29.1482C86.2919 29.1715 85.62 28.9304 85.103 28.4742C84.6058 28.0246 84.3011 27.4007 84.252 26.7322L84.256 26.7332ZM4.85598 48.2332C4.52243 48.5288 4.14098 48.7656 3.72798 48.9332C3.35603 49.0718 2.96189 49.1412 2.56498 49.1382C1.99537 49.1764 1.43239 48.9978 0.988978 48.6382C0.809533 48.4778 0.66726 48.2801 0.572093 48.059C0.476925 47.838 0.431155 47.5988 0.437978 47.3582C0.434554 47.0666 0.506182 46.7791 0.645978 46.5232C0.776535 46.2805 0.963436 46.0727 1.19098 45.9172C1.42338 45.7612 1.67978 45.6443 1.94998 45.5712C2.25901 45.4988 2.5723 45.446 2.88798 45.4132C3.52548 45.3549 4.15559 45.2333 4.76898 45.0502C4.77298 44.9055 4.77498 44.8138 4.77498 44.7752C4.79212 44.6112 4.77425 44.4455 4.72253 44.2889C4.67081 44.1324 4.58643 43.9887 4.47498 43.8672C4.13204 43.6055 3.70516 43.4785 3.27498 43.5102C2.89013 43.4811 2.50576 43.5723 2.17498 43.7712C1.89994 44.0099 1.715 44.3357 1.65098 44.6942L0.614978 44.5532C0.684932 44.1659 0.843384 43.8001 1.07798 43.4842C1.32345 43.1916 1.6465 42.9743 2.00998 42.8572C2.46441 42.7028 2.94214 42.6284 3.42198 42.6372C3.86134 42.6232 4.29972 42.6869 4.71698 42.8252C4.99771 42.9165 5.24993 43.0792 5.44898 43.2972C5.61449 43.5066 5.727 43.7529 5.77698 44.0152C5.82127 44.3375 5.839 44.6629 5.82998 44.9882V46.3942C5.8136 47.015 5.83597 47.6362 5.89698 48.2542C5.94306 48.5162 6.03334 48.7684 6.16398 49.0002H5.06398C4.9479 48.7589 4.8761 48.4988 4.85198 48.2322L4.85598 48.2332ZM4.76798 45.8782C4.21082 46.0769 3.63271 46.2111 3.04498 46.2782C2.73103 46.3118 2.4222 46.3826 2.12498 46.4892C1.95507 46.5592 1.81014 46.6787 1.70898 46.8322C1.58994 47.02 1.54196 47.2441 1.57368 47.4642C1.60541 47.6842 1.71475 47.8857 1.88198 48.0322C2.14873 48.2372 2.48142 48.3371 2.81698 48.3132C3.19487 48.3204 3.56814 48.2291 3.89998 48.0482C4.20415 47.8848 4.44909 47.6297 4.59998 47.3192C4.73058 46.9835 4.78852 46.6239 4.76998 46.2642L4.76798 45.8782ZM11.5 49.0002V48.2152C11.3195 48.5113 11.0628 48.7534 10.7567 48.9163C10.4506 49.0792 10.1064 49.1569 9.75998 49.1412C9.27329 49.144 8.79688 49.0012 8.39198 48.7312C7.96791 48.4481 7.63264 48.0508 7.42498 47.5852C7.18785 47.0539 7.07074 46.4769 7.08198 45.8952C7.07419 45.3169 7.17985 44.7428 7.39298 44.2052C7.57528 43.7301 7.90103 43.3236 8.32498 43.0422C8.73827 42.7745 9.22162 42.6353 9.71398 42.6422C10.0479 42.636 10.3783 42.7105 10.6772 42.8594C10.9761 43.0082 11.2347 43.227 11.431 43.4972V40.4102H12.48V49.0002H11.5ZM8.16798 45.8952C8.11829 46.5312 8.29542 47.1643 8.66798 47.6822C8.80839 47.8645 8.98837 48.0125 9.19434 48.115C9.40032 48.2176 9.6269 48.272 9.85698 48.2742C10.0828 48.2751 10.3059 48.2247 10.5095 48.1268C10.713 48.0289 10.8917 47.8861 11.032 47.7092C11.3919 47.209 11.563 46.5975 11.515 45.9832C11.5688 45.3204 11.3953 44.6591 11.023 44.1082C10.8812 43.9209 10.6978 43.7692 10.4872 43.6651C10.2767 43.561 10.0449 43.5072 9.80998 43.5082C9.583 43.506 9.35863 43.5567 9.15467 43.6564C8.95071 43.756 8.77278 43.9018 8.63498 44.0822C8.27843 44.6162 8.11377 45.2554 8.16798 45.8952ZM13.746 45.8892C13.7074 45.4179 13.7736 44.9438 13.9397 44.5011C14.1059 44.0583 14.3679 43.6578 14.707 43.3282C15.2517 42.8643 15.9487 42.6182 16.664 42.6372C17.0533 42.6231 17.4413 42.6906 17.803 42.8355C18.1646 42.9803 18.492 43.1992 18.764 43.4782C19.0463 43.7925 19.2636 44.1596 19.4033 44.5583C19.543 44.957 19.6024 45.3794 19.578 45.8012C19.6089 46.4508 19.4856 47.0985 19.218 47.6912C18.9831 48.1444 18.6177 48.5168 18.169 48.7602C17.71 49.0139 17.1934 49.1451 16.669 49.1412C16.2779 49.1569 15.8879 49.0904 15.5242 48.946C15.1604 48.8017 14.8309 48.5827 14.557 48.3032C13.9791 47.6368 13.6877 46.7693 13.746 45.8892ZM14.83 45.8892C14.7811 46.5293 14.9662 47.1653 15.351 47.6792C15.5139 47.8664 15.7151 48.0165 15.941 48.1194C16.1669 48.2223 16.4123 48.2755 16.6605 48.2755C16.9087 48.2755 17.154 48.2223 17.3799 48.1194C17.6058 48.0165 17.807 47.8664 17.97 47.6792C18.357 47.1542 18.542 46.5074 18.491 45.8572C18.5362 45.2297 18.3497 44.6074 17.967 44.1082C17.8038 43.9219 17.6026 43.7726 17.3771 43.6703C17.1515 43.5681 16.9067 43.5152 16.659 43.5152C16.4113 43.5152 16.1665 43.5681 15.9409 43.6703C15.7153 43.7726 15.5142 43.9219 15.351 44.1082C14.9674 44.6192 14.7823 45.252 14.83 45.8892ZM21.785 49.0002H20.806V40.4102H21.861V43.4742C22.0586 43.2096 22.3162 42.9956 22.6126 42.8499C22.909 42.7042 23.2357 42.631 23.566 42.6362C23.9407 42.6343 24.3114 42.7131 24.653 42.8672C24.9829 43.0121 25.2726 43.2352 25.497 43.5172C25.73 43.8199 25.9058 44.1625 26.016 44.5282C26.1435 44.938 26.2069 45.365 26.204 45.7942C26.2615 46.6888 25.979 47.5721 25.413 48.2672C25.1792 48.5426 24.888 48.7635 24.5597 48.9143C24.2315 49.0651 23.8742 49.1422 23.513 49.1402C23.1698 49.1498 22.8299 49.0701 22.5268 48.9088C22.2237 48.7475 21.9677 48.5102 21.784 48.2202L21.785 49.0002ZM21.773 45.8422C21.7318 46.398 21.8351 46.9551 22.073 47.4592C22.1902 47.6855 22.363 47.8784 22.575 48.0198C22.787 48.1612 23.0314 48.2466 23.2854 48.268C23.5394 48.2894 23.7946 48.246 24.0273 48.142C24.26 48.038 24.4625 47.8767 24.616 47.6732C24.9869 47.1534 25.1639 46.52 25.116 45.8832C25.1672 45.2454 24.9966 44.6096 24.633 44.0832C24.4958 43.9031 24.319 43.7571 24.1163 43.6566C23.9135 43.556 23.6903 43.5035 23.464 43.5032C23.2313 43.5045 23.0021 43.5593 22.794 43.6633C22.586 43.7674 22.4046 43.9179 22.264 44.1032C21.9006 44.6069 21.7267 45.2228 21.773 45.8422ZM31.746 47.0002L32.836 47.1352C32.6954 47.7234 32.3586 48.2462 31.881 48.6172C31.2814 49.0091 30.5686 49.191 29.8545 49.1344C29.1404 49.0777 28.4653 48.7858 27.935 48.3042C27.3692 47.6536 27.0819 46.8067 27.135 45.9462C27.0798 45.0598 27.3697 44.1865 27.944 43.5092C28.2115 43.2227 28.5375 42.9971 28.8998 42.8475C29.2621 42.6979 29.6523 42.6279 30.044 42.6422C30.4249 42.6295 30.8041 42.6989 31.1559 42.8455C31.5077 42.9922 31.8238 43.2127 32.083 43.4922C32.6452 44.1573 32.9286 45.014 32.874 45.8832C32.874 45.9458 32.872 46.0395 32.868 46.1642H28.225C28.2228 46.7403 28.4288 47.2978 28.805 47.7342C28.9712 47.9113 29.1728 48.0514 29.3968 48.1454C29.6208 48.2393 29.8621 48.2849 30.105 48.2792C30.459 48.2905 30.8068 48.1851 31.095 47.9792C31.4041 47.7245 31.6307 47.3838 31.746 47.0002ZM28.283 45.2952H31.758C31.7462 44.8712 31.6068 44.4607 31.358 44.1172C31.2021 43.9214 31.003 43.7645 30.7762 43.6588C30.5494 43.5531 30.3011 43.5016 30.051 43.5082C29.825 43.5026 29.6003 43.5427 29.3903 43.6262C29.1803 43.7098 28.9893 43.8349 28.829 43.9942C28.4898 44.3421 28.2948 44.8054 28.283 45.2912V45.2952ZM33.457 49.0002L35.73 45.7662L33.63 42.7782H34.948L35.903 44.2372C36.083 44.5145 36.2276 44.7478 36.337 44.9372C36.509 44.6792 36.6673 44.4505 36.812 44.2512L37.861 42.7802H39.121L36.971 45.7102L39.281 49.0002H37.986L36.709 47.0662L36.369 46.5452L34.734 49.0002H33.457ZM44.2 49.0002V48.2152C44.0195 48.5113 43.7628 48.7534 43.4567 48.9163C43.1506 49.0792 42.8064 49.1569 42.46 49.1412C41.9733 49.144 41.4969 49.0012 41.092 48.7312C40.6679 48.4481 40.3326 48.0508 40.125 47.5852C39.8879 47.0539 39.7707 46.4769 39.782 45.8952C39.7742 45.3169 39.8798 44.7428 40.093 44.2052C40.2753 43.7301 40.601 43.3236 41.025 43.0422C41.4383 42.7745 41.9216 42.6353 42.414 42.6422C42.7479 42.636 43.0783 42.7105 43.3772 42.8594C43.6761 43.0082 43.9347 43.227 44.131 43.4972V40.4102H45.18V49.0002H44.2ZM40.866 45.8952C40.8163 46.5312 40.9934 47.1643 41.366 47.6822C41.5064 47.8645 41.6864 48.0125 41.8923 48.115C42.0983 48.2176 42.3249 48.272 42.555 48.2742C42.7808 48.2751 43.0039 48.2247 43.2075 48.1268C43.411 48.0289 43.5897 47.8861 43.73 47.7092C44.0899 47.209 44.261 46.5975 44.213 45.9832C44.2668 45.3204 44.0933 44.6591 43.721 44.1082C43.5792 43.9209 43.3958 43.7692 43.1852 43.6651C42.9747 43.561 42.7428 43.5072 42.508 43.5082C42.281 43.506 42.0566 43.5567 41.8527 43.6564C41.6487 43.756 41.4708 43.9018 41.333 44.0822C40.9754 44.6158 40.8096 45.255 40.863 45.8952H40.866ZM52.848 48.0452C52.6064 48.3279 52.3178 48.5667 51.995 48.7512C51.6985 48.9318 51.3566 49.0242 51.0094 49.0175C50.6623 49.0108 50.3243 48.9052 50.035 48.7132C49.684 48.484 49.4063 48.1587 49.235 47.7762C49.0272 47.3429 48.9218 46.8677 48.927 46.3872C48.9347 45.7359 49.0987 45.096 49.405 44.5212C49.6725 43.9594 50.0815 43.4769 50.592 43.1212C50.9943 42.8318 51.4736 42.6686 51.969 42.6522C52.3113 42.6528 52.6472 42.745 52.942 42.9192C53.273 43.1179 53.5482 43.3973 53.742 43.7312L53.942 42.8232H54.991L54.147 46.7552C54.0296 47.3018 53.971 47.6045 53.971 47.6632C53.9706 47.7144 53.9812 47.7651 54.0019 47.812C54.0225 47.8589 54.0529 47.9009 54.091 47.9352C54.1294 47.9723 54.1748 48.0015 54.2246 48.0211C54.2744 48.0407 54.3275 48.0502 54.381 48.0492C54.6811 48.0112 54.9638 47.8873 55.195 47.6922C55.6488 47.3699 56.0129 46.9373 56.253 46.4352C56.5078 45.9309 56.6414 45.3742 56.643 44.8092C56.6463 44.1429 56.4601 43.4895 56.1059 42.9252C55.7518 42.3608 55.2444 41.9089 54.643 41.6222C53.9633 41.2781 53.2107 41.1032 52.449 41.1122C51.5738 41.1037 50.7118 41.3251 49.949 41.7542C49.1943 42.1806 48.5826 42.8208 48.191 43.5942C47.7765 44.3868 47.5623 45.2688 47.567 46.1632C47.5434 47.0292 47.7594 47.885 48.191 48.6362C48.6084 49.329 49.2403 49.8668 49.991 50.1682C50.8207 50.5082 51.7103 50.6783 52.607 50.6682C53.4926 50.6967 54.3729 50.5201 55.179 50.1522C55.7938 49.8713 56.3279 49.44 56.732 48.8982H57.793C57.5369 49.3794 57.1886 49.8055 56.768 50.1522C56.2587 50.5927 55.6726 50.9354 55.039 51.1632C54.2626 51.4286 53.4453 51.5546 52.625 51.5352C51.8129 51.543 51.0041 51.4305 50.225 51.2012C49.5373 51.0039 48.8993 50.6631 48.353 50.2012C47.8557 49.7783 47.4576 49.2512 47.187 48.6572C46.8558 47.9039 46.6881 47.089 46.695 46.2662C46.6921 45.3263 46.892 44.3968 47.281 43.5412C47.7008 42.5446 48.4069 41.6951 49.31 41.1002C50.2688 40.5152 51.3773 40.2219 52.5 40.2562C53.4052 40.2417 54.3005 40.4458 55.11 40.8512C55.881 41.2472 56.5164 41.8642 56.935 42.6232C57.3124 43.2947 57.5081 44.0529 57.503 44.8232C57.5062 45.9461 57.0764 47.027 56.303 47.8412C56.0233 48.1957 55.6699 48.4852 55.2672 48.6897C54.8645 48.8941 54.4223 49.0086 53.971 49.0252C53.7468 49.0341 53.5235 48.9921 53.318 48.9022C53.1606 48.8283 53.0319 48.7046 52.952 48.5502C52.8879 48.3892 52.8521 48.2183 52.846 48.0452H52.848ZM50.01 46.4572C49.9823 46.9055 50.1176 47.3488 50.391 47.7052C50.4936 47.8403 50.6254 47.9505 50.7766 48.0275C50.9277 48.1046 51.0944 48.1465 51.264 48.1502C51.5074 48.1423 51.745 48.0735 51.955 47.9502C52.2201 47.8001 52.4554 47.6025 52.649 47.3672C52.8883 47.0762 53.072 46.7436 53.191 46.3862C53.3278 46.0057 53.3984 45.6045 53.4 45.2002C53.4267 44.7526 53.2839 44.3113 53 43.9642C52.8813 43.8248 52.7334 43.7133 52.5668 43.6374C52.4002 43.5616 52.219 43.5232 52.036 43.5252C51.7879 43.5245 51.5442 43.5901 51.33 43.7152C51.0762 43.8729 50.8576 44.0812 50.688 44.3272C50.4654 44.6386 50.2964 44.985 50.188 45.3522C50.0738 45.7096 50.0138 46.082 50.01 46.4572ZM59.016 49.0002V42.7772H59.959V43.6502C60.1547 43.3452 60.4222 43.0929 60.738 42.9152C61.0759 42.7263 61.4579 42.6303 61.845 42.6372C62.2428 42.6205 62.6369 42.7202 62.979 42.9242C63.2715 43.1125 63.4915 43.3946 63.603 43.7242C63.8013 43.3914 64.0828 43.116 64.4198 42.9249C64.7567 42.7338 65.1376 42.6336 65.525 42.6342C65.7849 42.6172 66.0454 42.654 66.2905 42.7422C66.5355 42.8305 66.7596 42.9684 66.949 43.1472C67.3158 43.5878 67.4953 44.1547 67.449 44.7262V49.0002H66.4V45.0802C66.4154 44.7731 66.3816 44.4656 66.3 44.1692C66.2302 43.9821 66.0991 43.8242 65.928 43.7212C65.7377 43.6049 65.5179 43.5459 65.295 43.5512C65.093 43.5454 64.8921 43.5812 64.7045 43.6564C64.517 43.7315 64.347 43.8445 64.205 43.9882C63.8812 44.3793 63.7251 44.8825 63.771 45.3882V49.0002H62.713V44.9572C62.7391 44.5872 62.6488 44.2184 62.455 43.9022C62.3537 43.779 62.2239 43.6826 62.0768 43.6212C61.9296 43.5599 61.7697 43.5355 61.611 43.5502C61.32 43.5485 61.0345 43.6297 60.788 43.7842C60.5329 43.9442 60.3397 44.186 60.24 44.4702C60.1096 44.8906 60.0521 45.3303 60.07 45.7702V49.0002H59.016ZM73.073 48.2322C72.7394 48.5278 72.358 48.7646 71.945 48.9322C71.573 49.0708 71.1789 49.1402 70.782 49.1372C70.2124 49.1754 69.6494 48.9968 69.206 48.6372C69.0265 48.4768 68.8843 48.2791 68.7891 48.058C68.6939 47.837 68.6482 47.5978 68.655 47.3572C68.6516 47.0656 68.7232 46.7781 68.863 46.5222C68.9935 46.2795 69.1804 46.0717 69.408 45.9162C69.6404 45.7602 69.8968 45.6433 70.167 45.5702C70.476 45.4978 70.7893 45.445 71.105 45.4122C71.7425 45.3539 72.3726 45.2323 72.986 45.0492C72.99 44.9045 72.992 44.8128 72.992 44.7742C73.0091 44.6102 72.9912 44.4445 72.9395 44.2879C72.8878 44.1314 72.8034 43.9877 72.692 43.8662C72.349 43.6045 71.9222 43.4775 71.492 43.5092C71.1071 43.4801 70.7228 43.5713 70.392 43.7702C70.1169 44.0089 69.932 44.3347 69.868 44.6932L68.837 44.5522C68.9069 44.1649 69.0654 43.7991 69.3 43.4832C69.5455 43.1906 69.8685 42.9733 70.232 42.8562C70.6864 42.7018 71.1641 42.6274 71.644 42.6362C72.0833 42.6222 72.5217 42.6859 72.939 42.8242C73.2197 42.9155 73.4719 43.0782 73.671 43.2962C73.8365 43.5056 73.949 43.7519 73.999 44.0142C74.0433 44.3365 74.061 44.6619 74.052 44.9872V46.3932C74.0356 47.014 74.058 47.6352 74.119 48.2532C74.165 48.5155 74.2552 48.7681 74.386 49.0002H73.286C73.1692 48.7591 73.0977 48.4989 73.073 48.2322ZM72.985 45.8772C72.4278 46.0759 71.8497 46.2101 71.262 46.2772C70.948 46.3108 70.6392 46.3816 70.342 46.4882C70.1721 46.5582 70.0271 46.6777 69.926 46.8312C69.8069 47.019 69.759 47.2431 69.7907 47.4632C69.8224 47.6832 69.9318 47.8847 70.099 48.0312C70.3657 48.2361 70.6984 48.3361 71.034 48.3122C71.4124 48.319 71.786 48.227 72.118 48.0452C72.4221 47.8818 72.6671 47.6267 72.818 47.3162C72.9486 46.9805 73.0065 46.6209 72.988 46.2612L72.985 45.8772ZM75.692 41.6232V40.4102H76.747V41.6232H75.692ZM75.692 49.0002V42.7772H76.747V49.0002H75.692ZM78.329 49.0002V40.4102H79.384V49.0002H78.329ZM81.317 49.0002V47.8002H82.517V49.0002H81.317ZM88.417 46.7212L89.454 46.8562C89.3767 47.5027 89.0676 48.0992 88.584 48.5352C88.1057 48.9435 87.4926 49.1595 86.864 49.1412C86.4818 49.1571 86.1006 49.0908 85.7463 48.9468C85.3919 48.8027 85.0726 48.5843 84.81 48.3062C84.2535 47.6374 83.9757 46.7802 84.034 45.9122C84.0209 45.3073 84.1347 44.7064 84.368 44.1482C84.5703 43.6669 84.9285 43.2675 85.385 43.0142C85.8392 42.7624 86.3507 42.6322 86.87 42.6362C87.4653 42.6108 88.0511 42.792 88.528 43.1492C88.9726 43.5167 89.2666 44.0349 89.354 44.6052L88.329 44.7632C88.2627 44.4009 88.0805 44.07 87.81 43.8202C87.5588 43.6082 87.2386 43.4957 86.91 43.5042C86.6652 43.4964 86.4217 43.5437 86.1976 43.6425C85.9735 43.7413 85.7744 43.8892 85.615 44.0752C85.2385 44.5992 85.0613 45.2402 85.115 45.8832C85.0597 46.5277 85.2293 47.1715 85.595 47.7052C85.7468 47.8892 85.9388 48.0361 86.1561 48.1346C86.3735 48.233 86.6105 48.2804 86.849 48.2732C87.2309 48.285 87.6026 48.1484 87.886 47.8922C88.1926 47.5752 88.3786 47.1609 88.412 46.7212H88.417ZM89.964 45.8892C89.9254 45.4179 89.9916 44.9438 90.1577 44.5011C90.3239 44.0583 90.5859 43.6578 90.925 43.3282C91.4697 42.8643 92.1667 42.6182 92.882 42.6372C93.2713 42.6231 93.6593 42.6906 94.021 42.8355C94.3826 42.9803 94.71 43.1992 94.982 43.4782C95.2643 43.7925 95.4816 44.1596 95.6213 44.5583C95.761 44.957 95.8204 45.3794 95.796 45.8012C95.8269 46.4508 95.7036 47.0985 95.436 47.6912C95.1993 48.1455 94.8313 48.5179 94.38 48.7602C93.921 49.0139 93.4044 49.1451 92.88 49.1412C92.4889 49.1569 92.0989 49.0904 91.7352 48.946C91.3714 48.8017 91.0419 48.5827 90.768 48.3032C90.1908 47.6365 89.9001 46.769 89.959 45.8892H89.964ZM91.048 45.8892C90.9991 46.5293 91.1842 47.1653 91.569 47.6792C91.7319 47.8664 91.9331 48.0165 92.159 48.1194C92.3849 48.2223 92.6303 48.2755 92.8785 48.2755C93.1267 48.2755 93.372 48.2223 93.5979 48.1194C93.8238 48.0165 94.025 47.8664 94.188 47.6792C94.575 47.1542 94.76 46.5074 94.709 45.8572C94.7542 45.2297 94.5677 44.6074 94.185 44.1082C94.0218 43.9219 93.8206 43.7726 93.5951 43.6703C93.3695 43.5681 93.1247 43.5152 92.877 43.5152C92.6293 43.5152 92.3845 43.5681 92.1589 43.6703C91.9333 43.7726 91.7322 43.9219 91.569 44.1082C91.1837 44.6185 90.9967 45.2514 91.043 45.8892H91.048ZM97.025 49.0002V42.7772H97.968V43.6502C98.1637 43.3452 98.4312 43.0929 98.747 42.9152C99.0849 42.7263 99.4669 42.6303 99.854 42.6372C100.252 42.6205 100.646 42.7202 100.988 42.9242C101.281 43.1125 101.501 43.3946 101.612 43.7242C101.81 43.3914 102.092 43.116 102.429 42.9249C102.766 42.7338 103.147 42.6336 103.534 42.6342C103.794 42.6172 104.054 42.654 104.299 42.7422C104.544 42.8305 104.769 42.9684 104.958 43.1472C105.325 43.5878 105.504 44.1547 105.458 44.7262V49.0002H104.409V45.0802C104.424 44.7731 104.391 44.4656 104.309 44.1692C104.239 43.9821 104.108 43.8242 103.937 43.7212C103.747 43.6049 103.527 43.5459 103.304 43.5512C103.102 43.5454 102.901 43.5812 102.714 43.6564C102.526 43.7315 102.356 43.8445 102.214 43.9882C101.89 44.3793 101.734 44.8825 101.78 45.3882V49.0002H100.725V44.9572C100.751 44.5872 100.661 44.2184 100.467 43.9022C100.366 43.779 100.236 43.6826 100.089 43.6212C99.9416 43.5599 99.7817 43.5355 99.623 43.5502C99.332 43.5485 99.0465 43.6297 98.8 43.7842C98.5449 43.9442 98.3517 44.186 98.252 44.4702C98.1216 44.8906 98.0641 45.3303 98.082 45.7702V49.0002H97.025Z" fill="black"/>
</svg>
