<svg width="36" height="36" viewBox="0 0 36 36" fill="none" xmlns="http://www.w3.org/2000/svg">
<path d="M36 18C36 27.9411 27.9411 36 18 36C8.05887 36 0 27.9411 0 18C0 8.05887 8.05887 0 18 0C27.9411 0 36 8.05887 36 18Z" fill="#282B2D"/>
<path fill-rule="evenodd" clip-rule="evenodd" d="M23.7049 13.0985C23.9002 12.9033 23.9002 12.5867 23.7049 12.3914C23.5097 12.1962 23.1931 12.1962 22.9978 12.3914L18.227 17.1622L13.2292 12.1644C13.034 11.9691 12.7174 11.9691 12.5221 12.1644C12.3269 12.3597 12.3269 12.6763 12.5221 12.8715L17.5199 17.8693L12.3912 22.998C12.1959 23.1933 12.1959 23.5099 12.3912 23.7051C12.5865 23.9004 12.9031 23.9004 13.0983 23.7051L18.227 18.5764L23.1287 23.4781C23.324 23.6734 23.6406 23.6734 23.8358 23.4781C24.0311 23.2829 24.0311 22.9663 23.8358 22.771L18.9341 17.8693L23.7049 13.0985Z" fill="#FFFBEF"/>
</svg>
