<svg width="28" height="34" viewBox="0 0 28 34" fill="none" xmlns="http://www.w3.org/2000/svg">
<path d="M26.5 20.75V16.375C26.5 13.2684 23.9816 10.75 20.875 10.75H18.375C17.3395 10.75 16.5 9.91053 16.5 8.875V6.375C16.5 3.2684 13.9816 0.75 10.875 0.75H7.75M9 20.75L14 25.75M14 25.75L19 20.75M14 25.75L14 15.75M11.5 0.75H3.375C2.33947 0.75 1.5 1.58947 1.5 2.625V31.375C1.5 32.4105 2.33947 33.25 3.375 33.25H24.625C25.6605 33.25 26.5 32.4105 26.5 31.375V15.75C26.5 7.46573 19.7843 0.75 11.5 0.75Z" stroke="#282B2D" stroke-width="1.5" stroke-linecap="round" stroke-linejoin="round"/>
</svg>
