<svg aria-hidden="true" xmlns="http://www.w3.org/2000/svg" xmlns:xlink="http://www.w3.org/1999/xlink"><symbol viewBox="0 0 36 36" id="close" xmlns="http://www.w3.org/2000/svg">
<path d="M36 18C36 27.9411 27.9411 36 18 36C8.05887 36 0 27.9411 0 18C0 8.05887 8.05887 0 18 0C27.9411 0 36 8.05887 36 18Z"/>
<path fill-rule="evenodd" clip-rule="evenodd" d="M23.7049 13.0985C23.9002 12.9033 23.9002 12.5867 23.7049 12.3914C23.5097 12.1962 23.1931 12.1962 22.9978 12.3914L18.227 17.1622L13.2292 12.1644C13.034 11.9691 12.7174 11.9691 12.5221 12.1644C12.3269 12.3597 12.3269 12.6763 12.5221 12.8715L17.5199 17.8693L12.3912 22.998C12.1959 23.1933 12.1959 23.5099 12.3912 23.7051C12.5865 23.9004 12.9031 23.9004 13.0983 23.7051L18.227 18.5764L23.1287 23.4781C23.324 23.6734 23.6406 23.6734 23.8358 23.4781C24.0311 23.2829 24.0311 22.9663 23.8358 22.771L18.9341 17.8693L23.7049 13.0985Z"/>
</symbol><symbol viewBox="0 0 28 34" id="download" xmlns="http://www.w3.org/2000/svg">
<path d="M26.5 20.75V16.375C26.5 13.2684 23.9816 10.75 20.875 10.75H18.375C17.3395 10.75 16.5 9.91053 16.5 8.875V6.375C16.5 3.2684 13.9816 0.75 10.875 0.75H7.75M9 20.75L14 25.75M14 25.75L19 20.75M14 25.75L14 15.75M11.5 0.75H3.375C2.33947 0.75 1.5 1.58947 1.5 2.625V31.375C1.5 32.4105 2.33947 33.25 3.375 33.25H24.625C25.6605 33.25 26.5 32.4105 26.5 31.375V15.75C26.5 7.46573 19.7843 0.75 11.5 0.75Z" stroke-width="1.5" stroke-linecap="round" stroke-linejoin="round"/>
</symbol><symbol viewBox="0 0 32 34" id="print" xmlns="http://www.w3.org/2000/svg">
<path d="M7.2002 20.0478C6.79907 20.0981 6.39899 20.1518 6 20.2089M7.2002 20.0478C10.0826 19.6863 13.0196 19.5 16 19.5C18.9804 19.5 21.9174 19.6863 24.7998 20.0478M7.2002 20.0478L6.56818 27M24.7998 20.0478C25.2009 20.0981 25.601 20.1518 26 20.2089M24.7998 20.0478L25.4318 27M25.4318 27L25.8141 31.2052C25.9139 32.3033 25.0494 33.25 23.9468 33.25H8.05319C6.95063 33.25 6.08607 32.3033 6.18589 31.2052L6.56818 27M25.4318 27H27.25C29.3211 27 31 25.3211 31 23.25V12.7595C31 10.9579 29.7202 9.40136 27.9384 9.13477C26.8822 8.97673 25.8193 8.83934 24.75 8.72302M6.56818 27H4.75C2.67893 27 1 25.3211 1 23.25V12.7595C1 10.9579 2.27984 9.40136 4.06157 9.13477C5.11777 8.97673 6.18072 8.83934 7.25 8.72302M24.75 8.72302C21.8763 8.41042 18.9569 8.25 16 8.25C13.0431 8.25 10.1237 8.41042 7.25 8.72302M24.75 8.72302V2.625C24.75 1.58947 23.9105 0.75 22.875 0.75H9.125C8.08947 0.75 7.25 1.58947 7.25 2.625V8.72302M26 14.5H26.0125V14.5125H26V14.5ZM21 14.5H21.0125V14.5125H21V14.5Z" stroke-width="1.5" stroke-linecap="round" stroke-linejoin="round"/>
</symbol><symbol viewBox="0 0 13 12" id="vector" xmlns="http://www.w3.org/2000/svg">
<path d="M1.5 11L11.5 1M11.5 1L4 1M11.5 1V8.5" stroke-width="1.5" stroke-linecap="round" stroke-linejoin="round"/>
</symbol></svg>