<svg width="32" height="34" viewBox="0 0 32 34" fill="none" xmlns="http://www.w3.org/2000/svg">
<path d="M7.2002 20.0478C6.79907 20.0981 6.39899 20.1518 6 20.2089M7.2002 20.0478C10.0826 19.6863 13.0196 19.5 16 19.5C18.9804 19.5 21.9174 19.6863 24.7998 20.0478M7.2002 20.0478L6.56818 27M24.7998 20.0478C25.2009 20.0981 25.601 20.1518 26 20.2089M24.7998 20.0478L25.4318 27M25.4318 27L25.8141 31.2052C25.9139 32.3033 25.0494 33.25 23.9468 33.25H8.05319C6.95063 33.25 6.08607 32.3033 6.18589 31.2052L6.56818 27M25.4318 27H27.25C29.3211 27 31 25.3211 31 23.25V12.7595C31 10.9579 29.7202 9.40136 27.9384 9.13477C26.8822 8.97673 25.8193 8.83934 24.75 8.72302M6.56818 27H4.75C2.67893 27 1 25.3211 1 23.25V12.7595C1 10.9579 2.27984 9.40136 4.06157 9.13477C5.11777 8.97673 6.18072 8.83934 7.25 8.72302M24.75 8.72302C21.8763 8.41042 18.9569 8.25 16 8.25C13.0431 8.25 10.1237 8.41042 7.25 8.72302M24.75 8.72302V2.625C24.75 1.58947 23.9105 0.75 22.875 0.75H9.125C8.08947 0.75 7.25 1.58947 7.25 2.625V8.72302M26 14.5H26.0125V14.5125H26V14.5ZM21 14.5H21.0125V14.5125H21V14.5Z" stroke="#282B2D" stroke-width="1.5" stroke-linecap="round" stroke-linejoin="round"/>
</svg>
