<svg width="40" height="40" viewBox="0 0 40 40" fill="none" xmlns="http://www.w3.org/2000/svg">
<g clip-path="url(#clip0_142_6519)">
<path d="M24.0769 10.8791L27.7734 12.5819L40.1913 12.5819L40.1913 18.0908L-0.239258 18.0908L-0.239258 12.5819L17.3769 12.5819L-0.239258 5.26996L-0.239259 -0.138844L17.7812 7.52362L40.1913 -0.138845L40.1913 5.52036L24.0769 10.8791Z" fill="#FFFBEF"/>
<path d="M28.11 25.6258L-1 21.8015L-1 14L40 14V19.303L10.5971 19.303L40 23.1783V28.4813L11.0071 32.6625L40 32.6625V37.5575C23.9391 40.8226 14.9658 40.8057 -0.999999 37.5575L-0.999999 29.756L28.11 25.6258Z" fill="#FFFBEF"/>
</g>
<defs>
<clipPath id="clip0_142_6519">
<rect y="40" width="40" height="40" rx="20" transform="rotate(-90 0 40)" fill="white"/>
</clipPath>
</defs>
</svg>
