<svg width="543" height="757" viewBox="0 0 543 757" fill="none" xmlns="http://www.w3.org/2000/svg">
<path d="M0.800781 296.695H83.1174C32.3882 345.264 0.800781 413.654 0.800781 489.429C0.800781 636.771 120.249 756.219 267.592 756.219C414.935 756.219 534.383 636.771 534.383 489.429C534.383 413.654 502.795 345.264 452.066 296.695H534.383V222.638H304.62V375.442C352.675 391.035 387.42 436.169 387.42 489.429C387.42 555.607 333.77 609.257 267.592 609.257C201.413 609.257 147.763 555.607 147.763 489.429C147.763 436.169 182.508 391.035 230.563 375.442V222.638H0.800781V296.695Z" fill="black"/>
<path d="M459.553 461.143C445.862 367.471 365.192 295.543 267.714 295.543C170.236 295.543 89.5653 367.471 75.875 461.143C74.5275 470.369 73.8281 479.822 73.8281 489.429C73.8281 499.036 74.5275 508.488 75.875 517.714C83.5275 570.038 112.07 615.583 152.781 645.586C184.945 669.305 224.689 683.314 267.714 683.314C312.374 683.314 353.507 668.215 386.288 642.84C388.046 650.02 389.147 657.466 389.528 665.098C417.052 632.822 438.138 594.898 450.82 553.313C450.892 553.108 450.954 552.892 451.016 552.686H287.432C309.865 555.977 330.272 565.481 346.842 579.408C325.859 597.892 298.355 609.134 268.228 609.247C268.053 609.257 267.889 609.257 267.714 609.257C266.438 609.257 265.163 609.237 263.898 609.185C263.27 609.175 262.643 609.154 262.016 609.124C261.532 609.103 261.059 609.072 260.576 609.041C260.133 609.021 259.681 608.99 259.238 608.959C258.776 608.928 258.313 608.897 257.85 608.846C257.305 608.815 256.749 608.764 256.204 608.702C255.865 608.681 255.525 608.65 255.186 608.609C254.27 608.517 253.355 608.414 252.45 608.29C251.586 608.188 250.732 608.064 249.878 607.941C249.488 607.879 249.097 607.817 248.706 607.755C248.017 607.653 247.317 607.529 246.628 607.406C246.494 607.385 246.361 607.365 246.217 607.334C245.332 607.18 244.448 607.005 243.573 606.82C243.573 606.82 243.563 606.82 243.553 606.82C242.781 606.665 242.01 606.501 241.249 606.326C240.755 606.213 240.261 606.1 239.778 605.976C239.531 605.925 239.284 605.863 239.037 605.791C238.492 605.668 237.947 605.534 237.402 605.39C236.486 605.153 235.571 604.906 234.656 604.639C233.041 604.176 231.446 603.682 229.862 603.158C229.513 603.045 229.173 602.921 228.824 602.798C228.042 602.541 227.27 602.263 226.509 601.985C225.686 601.687 224.864 601.378 224.051 601.049C223.886 600.988 223.722 600.926 223.547 600.854C222.714 600.525 221.891 600.185 221.068 599.836C220.173 599.465 219.278 599.074 218.394 598.673C218.342 598.653 218.291 598.632 218.25 598.612C217.417 598.231 216.584 597.84 215.761 597.439C215.041 597.089 214.31 596.729 213.59 596.369C213.272 596.205 212.942 596.04 212.624 595.865C211.945 595.526 211.266 595.166 210.597 594.796C209.836 594.384 209.075 593.962 208.324 593.53C208.18 593.448 208.046 593.366 207.902 593.283C207.121 592.841 206.349 592.378 205.578 591.905C204.868 591.484 204.169 591.041 203.469 590.599C203.305 590.496 203.14 590.383 202.976 590.28C202.214 589.797 201.453 589.293 200.713 588.789C199.345 587.863 197.987 586.906 196.66 585.929C196.218 585.61 195.786 585.281 195.354 584.952C194.438 584.253 193.533 583.553 192.638 582.823C192.145 582.432 191.661 582.031 191.178 581.63C191.024 581.506 190.869 581.383 190.725 581.249C189.625 580.334 188.534 579.388 187.475 578.421C187.105 578.092 186.734 577.752 186.374 577.413C185.984 577.063 185.613 576.703 185.233 576.343C185.048 576.178 184.873 576.014 184.698 575.839C184.286 575.448 183.885 575.057 183.484 574.656C183.042 574.224 182.61 573.782 182.178 573.34C182.157 573.329 182.147 573.319 182.147 573.298C181.633 572.794 181.139 572.28 180.645 571.755C180.419 571.519 180.182 571.262 179.956 571.015C179.565 570.604 179.185 570.182 178.804 569.76C177.693 568.536 176.613 567.292 175.554 566.016C175.204 565.605 174.865 565.183 174.525 564.761C173.764 563.825 173.024 562.879 172.283 561.912C171.892 561.398 171.512 560.884 171.121 560.359C171.049 560.256 170.966 560.153 170.894 560.04C170.462 559.464 170.041 558.868 169.629 558.281C168.683 556.934 167.757 555.566 166.873 554.177C166.605 553.766 166.338 553.354 166.091 552.933C165.422 551.894 164.785 550.834 164.168 549.775C163.91 549.333 163.653 548.89 163.406 548.448C163.098 547.913 162.8 547.378 162.501 546.833C162.409 546.658 162.316 546.494 162.224 546.319C161.956 545.825 161.699 545.332 161.432 544.828C161.216 544.416 161.01 544.015 160.794 543.593C160.033 542.081 159.292 540.549 158.593 539.006C158.387 538.564 158.192 538.121 158.006 537.679C157.79 537.226 157.595 536.764 157.41 536.301C157.112 535.612 156.824 534.922 156.546 534.223C156.32 533.668 156.093 533.112 155.888 532.557C155.744 532.207 155.61 531.847 155.486 531.497C155.291 530.993 155.106 530.5 154.931 529.996C154.221 528.031 153.573 526.046 152.977 524.04C152.792 523.464 152.617 522.868 152.452 522.281C152.216 521.469 152 520.656 151.784 519.844C151.629 519.257 151.475 518.661 151.331 518.064C151.31 517.951 151.28 517.828 151.249 517.714H459.429C459.625 516.624 459.82 515.544 459.995 514.454C461.054 506.266 461.6 497.904 461.6 489.429C461.6 479.822 460.9 470.369 459.553 461.143ZM151.249 461.143C151.28 461.03 151.31 460.906 151.331 460.793C151.475 460.197 151.629 459.6 151.784 459.014C152 458.201 152.216 457.389 152.452 456.576C152.617 455.99 152.792 455.393 152.977 454.817C153.573 452.812 154.221 450.826 154.931 448.862C155.106 448.358 155.291 447.864 155.486 447.36C155.61 447.01 155.744 446.65 155.888 446.301C156.093 445.745 156.32 445.19 156.546 444.634C156.824 443.935 157.112 443.246 157.41 442.557C157.595 442.094 157.79 441.631 158.006 441.178C158.192 440.736 158.387 440.294 158.593 439.852C159.292 438.309 160.033 436.776 160.794 435.264C161.01 434.842 161.216 434.441 161.432 434.03C161.699 433.526 161.956 433.032 162.224 432.538C162.316 432.364 162.409 432.199 162.501 432.024C162.8 431.489 163.098 430.954 163.406 430.42C163.653 429.967 163.91 429.525 164.168 429.082C164.785 428.023 165.422 426.964 166.091 425.925C166.338 425.503 166.605 425.092 166.873 424.68C167.757 423.292 168.683 421.924 169.629 420.576C170.041 419.99 170.462 419.393 170.894 418.817C170.966 418.704 171.049 418.601 171.121 418.498C171.512 417.974 171.892 417.46 172.283 416.945C173.024 415.978 173.764 415.032 174.525 414.096C174.865 413.674 175.204 413.253 175.554 412.841C176.613 411.566 177.693 410.321 178.804 409.097C179.185 408.676 179.565 408.254 179.956 407.842C180.182 407.596 180.419 407.338 180.645 407.102C181.139 406.577 181.633 406.063 182.147 405.559C182.147 405.538 182.157 405.528 182.178 405.518C182.61 405.076 183.042 404.633 183.484 404.201C183.885 403.8 184.286 403.409 184.698 403.018C184.873 402.844 185.048 402.679 185.233 402.514C185.613 402.144 185.994 401.784 186.374 401.445C186.734 401.105 187.105 400.766 187.475 400.437C188.678 399.336 189.923 398.266 191.178 397.228C191.661 396.826 192.145 396.425 192.638 396.034C193.533 395.304 194.438 394.605 195.354 393.905C195.786 393.576 196.218 393.247 196.66 392.928C197.987 391.951 199.345 390.994 200.713 390.069C201.453 389.565 202.214 389.061 202.976 388.577C203.14 388.474 203.305 388.361 203.469 388.258C204.169 387.816 204.868 387.374 205.578 386.952C206.349 386.479 207.121 386.016 207.902 385.574C208.046 385.492 208.18 385.409 208.324 385.327C209.075 384.895 209.836 384.473 210.597 384.062C211.266 383.692 211.945 383.332 212.624 382.992C212.942 382.817 213.272 382.653 213.59 382.488C214.31 382.128 215.041 381.768 215.761 381.418C216.584 381.017 217.417 380.626 218.25 380.246C218.291 380.225 218.342 380.205 218.394 380.184C219.278 379.783 220.173 379.392 221.068 379.022C221.891 378.672 222.714 378.333 223.547 378.004C223.722 377.932 223.886 377.87 224.051 377.808C224.864 377.479 225.686 377.17 226.509 376.872C227.27 376.594 228.042 376.317 228.824 376.06C229.173 375.936 229.513 375.813 229.862 375.7C231.446 375.175 233.041 374.681 234.656 374.218C235.571 373.951 236.486 373.704 237.402 373.468C237.947 373.324 238.492 373.19 239.037 373.066C239.284 372.994 239.531 372.933 239.778 372.881C240.261 372.758 240.755 372.645 241.249 372.532C242.01 372.357 242.781 372.192 243.553 372.038C243.563 372.038 243.573 372.038 243.573 372.038C244.448 371.853 245.332 371.678 246.217 371.524C246.361 371.493 246.494 371.472 246.628 371.452C247.317 371.328 248.017 371.205 248.706 371.102C249.097 371.04 249.488 370.978 249.878 370.917C250.732 370.793 251.586 370.67 252.45 370.567C253.355 370.444 254.27 370.341 255.186 370.248C255.525 370.207 255.865 370.176 256.204 370.156C256.749 370.094 257.305 370.042 257.85 370.012C258.313 369.96 258.776 369.929 259.238 369.898C259.681 369.868 260.133 369.837 260.576 369.816C261.059 369.785 261.532 369.754 262.016 369.734C262.643 369.703 263.27 369.682 263.898 369.672C265.163 369.621 266.438 369.6 267.714 369.6C268.989 369.6 270.265 369.621 271.53 369.672C272.157 369.682 272.785 369.703 273.412 369.734C273.896 369.754 274.369 369.785 274.852 369.816C275.294 369.837 275.747 369.868 276.189 369.898C276.652 369.929 277.115 369.96 277.578 370.012C278.123 370.042 278.678 370.094 279.224 370.156C279.563 370.176 279.902 370.207 280.242 370.248C281.157 370.341 282.073 370.444 282.978 370.567C283.842 370.67 284.696 370.793 285.549 370.917C285.94 370.978 286.331 371.04 286.722 371.102C287.411 371.205 288.11 371.328 288.8 371.452C288.933 371.472 289.067 371.493 289.211 371.524C290.096 371.678 290.98 371.853 291.854 372.038C291.854 372.038 291.865 372.038 291.875 372.038C292.646 372.192 293.418 372.357 294.179 372.532C294.673 372.645 295.166 372.758 295.65 372.881C295.897 372.933 296.144 372.994 296.39 373.066C296.936 373.19 297.481 373.324 298.026 373.468C298.941 373.704 299.857 373.951 300.772 374.218C302.387 374.681 303.981 375.175 305.565 375.7C305.915 375.813 306.254 375.936 306.604 376.06C307.386 376.317 308.157 376.594 308.918 376.872C309.741 377.17 310.564 377.479 311.377 377.808C311.541 377.87 311.706 377.932 311.881 378.004C312.714 378.333 313.537 378.672 314.36 379.022C315.254 379.392 316.149 379.783 317.034 380.184C317.085 380.205 317.137 380.225 317.178 380.246C318.011 380.626 318.844 381.017 319.667 381.418C320.387 381.768 321.117 382.128 321.837 382.488C322.156 382.653 322.485 382.817 322.804 382.992C323.483 383.332 324.162 383.692 324.83 384.062C325.592 384.473 326.353 384.895 327.104 385.327C327.248 385.409 327.381 385.492 327.525 385.574C328.307 386.016 329.078 386.479 329.85 386.952C330.56 387.374 331.259 387.816 331.958 388.258C332.123 388.361 332.288 388.474 332.452 388.577C333.213 389.061 333.974 389.565 334.715 390.069C336.083 390.994 337.441 391.951 338.768 392.928C339.21 393.247 339.642 393.576 340.074 393.905C340.989 394.605 341.894 395.304 342.789 396.034C343.283 396.425 343.766 396.826 344.25 397.228C345.505 398.266 346.749 399.336 347.953 400.437C348.323 400.766 348.693 401.105 349.053 401.445C349.434 401.784 349.814 402.144 350.195 402.514C350.38 402.679 350.555 402.844 350.73 403.018C351.141 403.409 351.542 403.8 351.944 404.201C352.386 404.633 352.818 405.076 353.25 405.518C353.27 405.528 353.281 405.538 353.281 405.559C353.795 406.063 354.289 406.577 354.782 407.102C355.009 407.338 355.245 407.596 355.472 407.842C355.862 408.254 356.243 408.676 356.624 409.097C357.734 410.321 358.814 411.566 359.874 412.841C360.224 413.253 360.563 413.674 360.902 414.096C361.664 415.032 362.404 415.978 363.145 416.945C363.536 417.46 363.916 417.974 364.307 418.498C364.379 418.601 364.461 418.704 364.533 418.817C364.965 419.393 365.387 419.99 365.798 420.576C366.745 421.924 367.67 423.292 368.555 424.68C368.822 425.092 369.09 425.503 369.337 425.925C370.005 426.964 370.643 428.023 371.26 429.082C371.517 429.525 371.774 429.967 372.021 430.42C372.33 430.954 372.628 431.489 372.926 432.024C373.019 432.199 373.112 432.364 373.204 432.538C373.472 433.032 373.729 433.526 373.996 434.03C374.212 434.441 374.418 434.842 374.634 435.264C375.395 436.776 376.136 438.309 376.835 439.852C377.041 440.294 377.236 440.736 377.421 441.178C377.637 441.631 377.833 442.094 378.018 442.557C378.316 443.246 378.604 443.935 378.882 444.634C379.108 445.19 379.334 445.745 379.54 446.301C379.684 446.65 379.818 447.01 379.941 447.36C380.137 447.864 380.322 448.358 380.497 448.862C381.206 450.826 381.854 452.812 382.451 454.817C382.646 455.404 382.811 455.99 382.976 456.576C383.212 457.389 383.428 458.201 383.644 459.014C383.798 459.6 383.953 460.197 384.097 460.793C384.117 460.906 384.148 461.03 384.179 461.143H151.249Z" fill="url(#paint0_linear_421_3169)"/>
<path d="M5.75438 38.2327H164.447V75.0309H71.9203V85.2919H163.385V121.382H71.9203V132.705H165.154V169.857H5.75438V38.2327ZM171.739 83.5228V38.2327H352.545V83.5228H295.756V169.857H228.528V83.5228H171.739ZM358.501 83.5228V38.2327H539.307V83.5228H482.518V169.857H415.29V83.5228H358.501Z" fill="black"/>
<defs>
<linearGradient id="paint0_linear_421_3169" x1="153.542" y1="382.972" x2="333.028" y2="489.429" gradientUnits="userSpaceOnUse">
<stop stop-color="#C02425"/>
<stop offset="1" stop-color="#FCC400"/>
</linearGradient>
</defs>
</svg>
