<svg aria-hidden="true" xmlns="http://www.w3.org/2000/svg" xmlns:xlink="http://www.w3.org/1999/xlink"><symbol viewBox="0 0 20 20" id="arrows" xmlns="http://www.w3.org/2000/svg">
<path d="M17.562 10.098L19.093 12.75C20.06 14.424 19.486 16.565 17.813 17.531C17.28 17.838 16.677 18 16.063 18H14V20L8.99999 16.5L14 13V15H16.062C16.15 15 16.236 14.977 16.312 14.933C16.525 14.81 16.613 14.555 16.533 14.332L16.495 14.25L14.964 11.598L17.562 10.098ZM5.73699 7.384L6.26699 13.464L4.53699 12.464L3.50499 14.25C3.46099 14.326 3.43799 14.412 3.43799 14.5C3.43799 14.745 3.61499 14.95 3.84799 14.992L3.93799 15H6.99999V18H3.93799C2.00499 18 0.437994 16.433 0.437994 14.5C0.437994 13.886 0.599994 13.282 0.906994 12.75L1.93799 10.964L0.205994 9.964L5.73599 7.384H5.73699ZM11.75 0.969003C12.282 1.276 12.724 1.718 13.031 2.25L14.061 4.036L15.794 3.036L15.264 9.116L9.73199 6.536L11.464 5.536L10.433 3.75C10.389 3.674 10.326 3.61 10.25 3.567C10.037 3.444 9.77199 3.495 9.61899 3.677L9.56699 3.75L8.03699 6.402L5.43799 4.902L6.96799 2.25C7.93499 0.576003 10.076 0.00200334 11.75 0.969003Z"/>
</symbol><symbol viewBox="0 0 22 17" id="car" xmlns="http://www.w3.org/2000/svg">
<path d="M16 3H19L22 7.056V13H19.965C19.8461 13.8343 19.4302 14.5977 18.7937 15.1499C18.1571 15.7022 17.3427 16.0063 16.5 16.0063C15.6573 16.0063 14.8429 15.7022 14.2063 15.1499C13.5698 14.5977 13.1539 13.8343 13.035 13H7.965C7.84612 13.8343 7.43021 14.5977 6.79368 15.1499C6.15714 15.7022 5.34272 16.0063 4.5 16.0063C3.65728 16.0063 2.84286 15.7022 2.20632 15.1499C1.56979 14.5977 1.15388 13.8343 1.035 13H0V1C0 0.734784 0.105357 0.48043 0.292893 0.292893C0.48043 0.105357 0.734784 0 1 0H15C15.2652 0 15.5196 0.105357 15.7071 0.292893C15.8946 0.48043 16 0.734784 16 1V3ZM16 5V8H20V7.715L17.992 5H16Z"/>
</symbol><symbol viewBox="0 0 24 28" id="cart" xmlns="http://www.w3.org/2000/svg">
<path d="M4.66667 0.666687H19.3333C19.5403 0.666687 19.7445 0.71488 19.9296 0.807451C20.1148 0.900021 20.2758 1.03443 20.4 1.20002L24 6.00002V26C24 26.3536 23.8595 26.6928 23.6095 26.9428C23.3594 27.1929 23.0203 27.3334 22.6667 27.3334H1.33333C0.979711 27.3334 0.640573 27.1929 0.390524 26.9428C0.140476 26.6928 0 26.3536 0 26V6.00002L3.6 1.20002C3.7242 1.03443 3.88524 0.900021 4.07038 0.807451C4.25552 0.71488 4.45967 0.666687 4.66667 0.666687ZM20.6667 6.00002L18.6667 3.33335H5.33333L3.33333 6.00002H20.6667ZM8 11.3334H5.33333V14C5.33333 15.7681 6.03571 17.4638 7.28595 18.7141C8.5362 19.9643 10.2319 20.6667 12 20.6667C13.7681 20.6667 15.4638 19.9643 16.714 18.7141C17.9643 17.4638 18.6667 15.7681 18.6667 14V11.3334H16V14C16 15.0609 15.5786 16.0783 14.8284 16.8284C14.0783 17.5786 13.0609 18 12 18C10.9391 18 9.92172 17.5786 9.17157 16.8284C8.42143 16.0783 8 15.0609 8 14V11.3334Z"/>
</symbol><symbol viewBox="0 0 18 18" id="line" xmlns="http://www.w3.org/2000/svg">
<path d="M12 18H10V15H8V18H6V16H4V18H1C0.734784 18 0.48043 17.8946 0.292893 17.7071C0.105357 17.5196 0 17.2652 0 17V14H2V12H0V10H3V8H0V6H2V4H0V1C0 0.734784 0.105357 0.48043 0.292893 0.292893C0.48043 0.105357 0.734784 0 1 0H7C7.26522 0 7.51957 0.105357 7.70711 0.292893C7.89464 0.48043 8 0.734784 8 1V10H17C17.2652 10 17.5196 10.1054 17.7071 10.2929C17.8946 10.4804 18 10.7348 18 11V17C18 17.2652 17.8946 17.5196 17.7071 17.7071C17.5196 17.8946 17.2652 18 17 18H14V16H12V18Z"/>
</symbol><symbol viewBox="0 0 21 21" id="serch" xmlns="http://www.w3.org/2000/svg">
<path d="M16.031 14.617L20.314 18.899L18.899 20.314L14.617 16.031C13.0237 17.3082 11.042 18.0029 9 18C4.032 18 0 13.968 0 9C0 4.032 4.032 0 9 0C13.968 0 18 4.032 18 9C18.0029 11.042 17.3082 13.0237 16.031 14.617ZM14.025 13.875C15.2941 12.5699 16.0029 10.8204 16 9C16 5.132 12.867 2 9 2C5.132 2 2 5.132 2 9C2 12.867 5.132 16 9 16C10.8204 16.0029 12.5699 15.2941 13.875 14.025L14.025 13.875Z"/>
</symbol><symbol viewBox="0 0 403 97" id="vector" xmlns="http://www.w3.org/2000/svg">
<path d="M2 28.5001C73.5 -0.499971 371 -13.4998 397.5 42.0001C424 97.5 105 103.5 33 80.5001" stroke-width="6"/>
</symbol></svg>