<svg width="533" height="453" viewBox="0 0 533 453" fill="none" xmlns="http://www.w3.org/2000/svg">
<g filter="url(#filter0_d_421_3150)">
<path fill-rule="evenodd" clip-rule="evenodd" d="M337.836 115.196L357.917 84.0207L432.74 133L79.2929 171.421L166.17 73.3708L176.534 109.671L241.292 124.2L337.836 115.196ZM494.143 129.75L18.5466 181.502L41.3351 282.733L518.561 273.245L494.143 129.75ZM88.7179 397.104H426.727V409.238L268.778 435.001L88.7179 410.545V397.104ZM508.152 283.434L14.7154 292.763L35.2436 394.901L466.638 390.051L508.152 283.434Z" fill="#0C1921"/>
</g>
<path d="M391.373 234.825L411.794 233.25L408.05 180.61L387.998 182.157L389.699 206.071L378.395 193.466L380.488 222.894L391.373 234.825Z" fill="#FF7C01"/>
<path d="M213.518 196.008C178.635 198.701 171.635 214.004 172.435 225.248V228.698C172.61 231.158 173.252 234.936 174.248 237.59L213.518 196.008Z" fill="#FF7C01"/>
<path fill-rule="evenodd" clip-rule="evenodd" d="M174.248 237.59C178.258 246.234 188.578 254.027 214.022 252.063L214.46 234.708C203.365 235.565 199.348 230.077 199.004 225.248L198.942 224.383C198.609 219.698 201.489 214.113 212.931 213.23C224.235 212.357 228.082 217.423 228.416 222.108L255.57 219.577C254.769 208.333 248.4 193.316 213.518 196.008L174.248 237.59Z" fill="#FF7C01"/>
<path d="M31.1886 236.637L31.1316 235.836C30.5621 227.83 34.0778 221.923 43.8969 221.166C45.5021 221.042 46.9147 221.033 48.158 221.113L53.9095 200.914C50.6166 200.75 46.9513 200.805 42.8711 201.119L40.7481 201.283C10.362 203.627 3.93775 220.223 5.13374 237.036L5.32358 239.705C6.31367 253.623 12.9773 269.576 35.2447 270.557L40.66 250.124C34.4648 248.673 31.6622 243.295 31.1886 236.637Z" fill="#FF7C01"/>
<path d="M60.3413 218.942L86.0831 216.957L86.0768 216.868C85.486 208.562 82.0423 195.195 58.5291 193.468L53.2865 213.808C58.7514 214.738 59.9956 217.669 60.3413 218.942Z" fill="#FF7C01"/>
<path d="M46.84 265.572C62.2984 264.379 67.6874 257.613 69.1405 255.533C70.5213 257.126 72.0223 260.409 72.6196 262.242L89.5376 260.937L86.8608 223.307L51.0703 226.067L47.7503 239.919L61.0857 238.891C61.2122 240.67 58.8495 244.967 49.0304 245.724C47.874 245.813 46.7958 245.805 45.7924 245.707L40.8402 265.88C42.2096 265.876 43.6339 265.819 45.115 265.705L46.84 265.572Z" fill="#FF7C01"/>
<path d="M116.54 225.077L115.945 216.715L122.652 216.198L122.537 198.049L89.4494 200.601L94.1575 266.786L119.369 264.842L117.863 243.669L123.362 243.245L122.852 224.59L116.54 225.077Z" fill="#FF7C01"/>
<path d="M136.521 207.957C139.904 207.696 141.219 209.294 141.396 211.785C141.567 214.186 140.566 216.053 137.116 216.319L125.561 217.21L126.035 235.868L134.126 235.244C141.225 234.696 143.989 238.866 144.47 245.627L145.04 253.633C145.109 254.612 145.154 255.234 145.517 255.654L171.458 253.653L171.42 253.119C170.794 251.826 170.355 250.339 170.121 247.047L169.406 236.995C168.792 228.366 164.586 222.697 156.546 221.26C160.969 219.667 167.571 214.954 166.869 205.079L166.812 204.279C165.875 191.113 156.798 188.235 146.183 189.054L125.245 190.668L125.477 208.808L136.521 207.957Z" fill="#FF7C01"/>
<path d="M461.382 168.758L421.84 171.807L426.548 237.993L450.003 236.184L455.346 215.199L450.304 215.588L448.513 190.413L458.598 189.635C459.858 189.538 461.02 189.513 462.089 189.553L467.269 168.528C465.402 168.524 463.441 168.599 461.382 168.758Z" fill="#FF7C01"/>
<path fill-rule="evenodd" clip-rule="evenodd" d="M375.999 223.673L364.108 210.639L336.543 179.49L365.005 177.295L373.363 186.615L375.999 223.673Z" fill="#FF7C01"/>
<path d="M341.251 245.676L366.462 243.731L364.424 215.086L337.37 191.121L341.251 245.676Z" fill="#FF7C01"/>
<path fill-rule="evenodd" clip-rule="evenodd" d="M515.36 192.6C516.744 212.059 510.138 231.182 474.289 233.947L458.89 235.134L463.811 210.43L467.547 210.142C484.413 208.841 484.778 198.449 484.449 193.82L515.36 192.6ZM515.128 189.339C513.825 171.03 504.145 156.149 477.505 155.445L471.389 180.404C482.573 181.557 484.119 189.185 484.404 193.189L515.128 189.339Z" fill="#FF7C01"/>
<path fill-rule="evenodd" clip-rule="evenodd" d="M258.961 217.127C259.78 228.648 264.398 248.738 293 246.532L292.901 224.772C283.733 225.479 281.23 218.831 280.774 212.413L279.091 192.433L257.063 194.132L258.961 217.127Z" fill="#FF7C01"/>
<path d="M328.369 183.193L303.026 185.148L304.962 212.369L330.319 210.601L328.369 183.193Z" fill="#FF7C01"/>
<path d="M224.081 254.876C259.259 252.268 263.509 236.41 262.716 225.708L235.194 227.046C235.547 231.802 232.372 237.453 221.02 238.294L224.081 254.876Z" fill="#FF7C01"/>
<path d="M223.098 255.058L223.26 255.94L224.155 255.874C241.866 254.561 252.01 249.899 257.612 244.017C263.236 238.113 264.122 231.15 263.713 225.635L263.641 224.662L262.667 224.71L235.145 226.047L234.121 226.097L234.197 227.12C234.354 229.24 233.73 231.54 231.798 233.422C229.852 235.317 226.476 236.887 220.946 237.297L219.834 237.38L220.036 238.476L223.098 255.058Z" stroke="#1B222C" stroke-width="2"/>
<path d="M469.418 341.11V339.687C469.418 326.986 467.204 309.205 435.065 309.205L435.709 324.155C440.2 324.708 441.6 327.186 441.936 330.136H435.967L436.439 341.11H469.418Z" fill="#FF7C01"/>
<path fill-rule="evenodd" clip-rule="evenodd" d="M426.821 332.981C427.16 330.183 428.282 327.544 433.08 326.991V312.05C401.628 312.05 399.338 329.527 399.338 339.687V341.11C399.338 351.271 401.476 369.763 433.004 369.763L435.218 352.896L436.439 369.763C467.586 369.763 470.792 355.437 470.792 347.511V347.308H443.386C443.38 347.339 443.373 347.372 443.366 347.408C443.114 348.669 442.27 352.896 435.218 352.896C430.877 352.896 428.689 350.813 427.629 348.235C427.068 346.869 426.824 345.363 426.744 343.955H433.08V332.981H426.821Z" fill="#FF7C01"/>
<path fill-rule="evenodd" clip-rule="evenodd" d="M150.72 356.333L142.512 376.634C126.709 371.744 124.972 356.293 124.972 347.41V345.872C124.972 335.328 127.534 315.778 153.67 315.778H159.05C161.871 315.778 164.415 315.995 166.709 316.395L159.343 334.849C158.516 334.454 157.55 334.23 156.424 334.23H156.232C149.954 334.23 148.609 341.479 148.609 346.202C148.609 349.392 149.037 353.509 150.72 356.333Z" fill="#FF7C01"/>
<path d="M282.229 372.696H305.61V335.353H312.144V313.606H305.61V312.398C305.61 310.201 305.866 309.213 307.34 309.213H312.144V293.729L282.229 367.931V372.696Z" fill="#FF7C01"/>
<path d="M390.359 346.446V344.908C390.359 333.194 389.007 317.48 371.856 313.122L365.165 329.456C366.559 330.666 367.116 332.518 367.299 334.584H363.153L358.715 346.446H390.359Z" fill="#FF7C01"/>
<path d="M390.359 350.07H367.363L367.355 350.118L367.346 350.179C367.135 351.542 366.426 356.111 360.509 356.111C358.143 356.111 356.539 355.161 355.462 353.732L348.038 373.01C351.039 373.863 354.549 374.344 358.651 374.344H361.534C387.669 374.344 390.359 358.857 390.359 350.29V350.07Z" fill="#FF7C01"/>
<path fill-rule="evenodd" clip-rule="evenodd" d="M218.776 376.761H242.156V341.765L233.548 335.353L218.776 371.996V376.761Z" fill="#FF7C01"/>
<path d="M245.627 335.353H252.161V313.606H245.627V312.398C245.627 310.201 245.884 309.213 247.357 309.213H252.161V293.729L237.65 329.724L245.627 335.353Z" fill="#FF7C01"/>
<path d="M268.035 348.937H275.209V379.225L291.47 338.642L268.035 338.064V348.937Z" fill="#FF7C01"/>
<path d="M348.818 353.732H352.618L353.924 350.656H325.822C325.822 359.738 327.048 374.977 342.428 379.982L350.294 360.102C349.284 358.25 348.912 355.885 348.818 353.732Z" fill="#FF7C01"/>
<path d="M351.86 338.064C352.181 334.659 353.334 331.474 358.779 331.474C360.313 331.474 361.52 331.74 362.467 332.209L369.337 316.383C366.603 315.772 363.485 315.438 359.932 315.438H357.113C330.722 315.438 328.8 334.329 328.8 345.313H357.556L360.635 338.064H351.86Z" fill="#FF7C01"/>
<path d="M161.615 331.514C164.781 333.724 167.589 340.655 167.589 344.251L196.426 341.943C196.426 332.764 189.788 311.243 171.214 307.47L161.615 331.514Z" fill="#FF7C01"/>
<path d="M161.151 374.895C187.863 374.895 189.913 354.795 189.913 344.251L166.199 345.122C165.84 350.191 164.11 356.333 158.653 356.333H158.461C156.272 356.333 154.689 355.397 153.553 353.95L145.661 373.634C148.607 374.441 152.016 374.895 155.963 374.895H161.151Z" fill="#FF7C01"/>
<path fill-rule="evenodd" clip-rule="evenodd" d="M208.948 318.607H216.122L231.079 333.312L216.122 370.642V340.354H208.948V318.607Z" fill="#FF7C01"/>
<path d="M69.6075 347.352C69.6075 352.814 71.3692 359.033 81.3521 359.033C91.1163 359.033 92.3638 352.978 92.7067 351.314C92.7206 351.246 92.733 351.186 92.7444 351.134H115.353V352.394C115.353 361.638 111.653 378.949 82.7027 378.949H80.6474C50.5812 378.949 46.6467 360.966 46.6467 347.857L69.6075 347.352Z" fill="#FF7C01"/>
<path d="M293.002 253.827L293.439 257.11L296.741 256.855C314.137 255.513 324.043 248.458 329.243 239.384C334.29 230.576 334.532 220.487 334.044 213.636L333.811 210.356L330.522 210.385L305.006 210.61L301.49 210.641L301.538 214.157C301.579 217.243 301.035 219.858 299.809 221.69C298.703 223.343 296.762 224.788 292.905 225.085L289.217 225.37L289.704 229.036L293.002 253.827Z" fill="#FF7C01" stroke="#0C1921" stroke-width="7"/>
<path fill-rule="evenodd" clip-rule="evenodd" d="M271.115 6.37343C260.946 9.4722 253.709 14.5651 245.575 24.3454C228.685 44.6539 221.366 75.5317 228.525 96.2779C230.068 100.751 233.899 107.506 235.092 107.859C235.813 108.072 236.732 106.49 238.008 102.835C239.853 97.5563 241.933 94.5474 252.858 81.3605C258.6 74.4299 260.983 69.5769 268.113 50.2921C275.027 31.5951 278.526 24.499 284.978 16.1016C289.368 10.3874 289.626 9.83862 288.454 8.71618C285.927 6.29823 275.837 4.93489 271.115 6.37343ZM274.699 9.37517C274.988 9.77283 274.65 10.3446 273.948 10.6464C263.393 15.1804 252.839 23.7554 243.316 35.5339C240.704 38.7654 238.53 41.0341 238.486 40.5746C238.371 39.3622 246.055 28.3253 250.875 22.7805C253.151 20.162 256.829 16.6463 259.049 14.9688C264.877 10.5636 273.361 7.53091 274.699 9.37517ZM208.461 48.2879C192.731 53.7441 180.281 65.6258 176.964 78.3465C175.933 82.2985 175.756 87.1069 176.644 87.0223C176.852 87.0025 178.486 85.9987 180.277 84.7911C182.415 83.3501 185.748 82.1023 189.987 81.1557C193.537 80.3631 198.028 79.0694 199.967 78.2799C204.307 76.5124 224.645 63.0633 225.245 61.5639C226.001 59.6728 228.545 50.2939 228.761 48.5962C228.945 47.1581 228.475 46.9135 224.71 46.4879C219.378 45.8861 213.512 46.5364 208.461 48.2879ZM202.993 52.526C198.367 55.6608 191.264 61.2836 188.02 64.3795C183.889 68.3214 182.699 68.5054 185.969 64.6969C190.486 59.4358 200.57 51.7353 203.267 51.4868C204.541 51.37 204.506 51.5007 202.993 52.526ZM312.348 58.6966C295.629 65.3485 282.119 82.6401 282.208 97.2728C282.245 103.12 282.634 103.319 286.84 99.6337C288.4 98.2654 292.375 96.1191 295.672 94.8639C303.102 92.0354 308.347 88.4194 317.565 79.7722C325.211 72.5996 332.843 67.0792 336.72 65.9193C339.932 64.9577 340.136 63.3671 337.372 60.846C331.722 55.6931 321.996 54.8577 312.348 58.6966ZM220.681 68.9241C219.356 69.8133 215.174 72.6218 211.388 75.1646C203.013 80.7911 199.328 82.4293 191.226 84.1292C184.64 85.5113 179.45 88.174 178.2 90.8137C176.823 93.7195 181.352 98.6437 187.883 101.342C190.552 102.445 192.934 102.684 198.609 102.416C207.153 102.013 212.395 100.338 220.142 95.54L225.193 92.4116L224.305 88.0638C223.51 84.1707 223.431 76.6773 224.111 69.6434C224.39 66.7648 224.015 66.6868 220.681 68.9241ZM301.799 68.5007C296.771 73.3155 291.332 80.5503 290.678 83.2905C290.554 83.8112 290.158 83.9986 289.797 83.7068C288.616 82.751 291.531 76.2931 294.641 72.9789C297.914 69.491 305.636 63.2183 306.793 63.1081C307.181 63.0712 304.933 65.4981 301.799 68.5007ZM336.444 69.4078C331.255 71.732 327.912 74.0445 322.733 78.8922C308.239 92.4576 306.529 93.7204 297.798 97.3078C288.84 100.988 284.833 104.222 285.146 107.516C285.37 109.865 290.27 113.481 294.698 114.565C300.226 115.918 310.077 114.325 316.436 111.05C332.371 102.845 344.302 84.9681 342.412 72.1256C342.075 69.8306 341.463 67.8903 341.053 67.815C340.643 67.739 338.569 68.4555 336.444 69.4078Z" fill="#0E1D24"/>
<path d="M294.519 12.0339C289.783 13.158 283.511 26.2291 279.747 33.4878C278.699 35.5088 275.43 43.7641 272.482 51.833C264.029 74.9748 262.009 78.5597 248.485 94.4351C244.102 99.5791 240.481 107.607 240.84 111.384C241.065 113.751 243.499 115.46 248.16 116.522C257.08 118.555 267.545 115.312 276.814 107.642L280.282 104.774C280.224 103.792 280.195 102.824 280.195 101.87C280.195 77.9548 297.943 62.9599 305.304 60.2832C308.598 49.2298 309.8 22.8365 294.519 12.0339Z" fill="#0E1D24"/>
<path d="M303.46 299.711L287.49 301.566C277.818 302.689 274.442 309.162 275.95 322.145L276.356 325.636L269.229 326.464L270.106 334.015L294.917 331.134L303.46 299.711Z" fill="#FF7C01"/>
<path d="M247.933 293.731H229.855C218.907 293.731 214.297 299.665 214.297 312.504L231.821 328.863L247.933 293.731Z" fill="#FF7C01"/>
<path d="M79.3225 329.389C69.5158 329.389 67.5779 336.364 67.5779 341.742L44.6172 340.733C44.6172 327.708 48.7865 309.305 78.6179 309.305L79.3225 329.389Z" fill="#FF7C01"/>
<path d="M82.47 308.389C108.204 308.389 111.492 324.261 111.492 332.084V334.039H91.396C91.2447 332.732 90.4605 326.793 82.1777 326.389L82.47 308.389Z" fill="#FF7C01"/>
<rect x="195.701" y="190.823" width="47.0911" height="8.10505" transform="rotate(45 195.701 190.823)" fill="#0F1D25"/>
<defs>
<filter id="filter0_d_421_3150" x="0.714844" y="63.3708" width="531.846" height="389.63" filterUnits="userSpaceOnUse" color-interpolation-filters="sRGB">
<feFlood flood-opacity="0" result="BackgroundImageFix"/>
<feColorMatrix in="SourceAlpha" type="matrix" values="0 0 0 0 0 0 0 0 0 0 0 0 0 0 0 0 0 0 127 0" result="hardAlpha"/>
<feOffset dy="4"/>
<feGaussianBlur stdDeviation="7"/>
<feComposite in2="hardAlpha" operator="out"/>
<feColorMatrix type="matrix" values="0 0 0 0 1 0 0 0 0 1 0 0 0 0 1 0 0 0 0.24 0"/>
<feBlend mode="normal" in2="BackgroundImageFix" result="effect1_dropShadow_421_3150"/>
<feBlend mode="normal" in="SourceGraphic" in2="effect1_dropShadow_421_3150" result="shape"/>
</filter>
</defs>
</svg>
